<svg width="24" height="24" viewBox="0 0 24 24" fill="none" xmlns="http://www.w3.org/2000/svg">
<path d="M9.99994 11.9999C9.99994 10.8973 10.8973 9.99994 11.9999 9.99994H14.6666V4.66665C14.6666 4.29865 14.3686 4 13.9999 4H4.66665C4.298 4 4 4.29865 4 4.66665V19.3332C4 19.7012 4.298 19.9998 4.66665 19.9998H13.9999C14.3686 19.9998 14.6666 19.7012 14.6666 19.3332V14.6666V13.9999H11.9999C10.8973 13.9999 9.99994 13.1026 9.99994 11.9999Z" fill="#7E7E7E"/>
<path d="M19.8501 12.4212C19.8521 12.4187 19.8538 12.4161 19.8558 12.4136C19.8672 12.3991 19.8783 12.3844 19.8885 12.369C19.8933 12.3618 19.8974 12.3543 19.9019 12.347C19.9087 12.336 19.9156 12.325 19.9217 12.3136C19.9267 12.3042 19.9309 12.2945 19.9354 12.285C19.9401 12.2751 19.9451 12.2653 19.9493 12.2551C19.9538 12.2442 19.9575 12.2331 19.9614 12.222C19.9647 12.2127 19.9683 12.2037 19.9711 12.1943C19.9751 12.1812 19.9781 12.168 19.9813 12.1548C19.9831 12.147 19.9854 12.1394 19.987 12.1316C19.9906 12.1134 19.9932 12.0951 19.9953 12.0768C19.9957 12.0737 19.9963 12.0706 19.9967 12.0674C20.0012 12.0226 20.0012 11.9774 19.9967 11.9326C19.9963 11.9294 19.9957 11.9263 19.9953 11.9232C19.9932 11.9048 19.9906 11.8866 19.987 11.8684C19.9854 11.8606 19.9832 11.853 19.9813 11.8452C19.9781 11.832 19.9751 11.8187 19.9711 11.8057C19.9683 11.7963 19.9647 11.7872 19.9614 11.778C19.9575 11.7669 19.9538 11.7557 19.9493 11.7448C19.9451 11.7347 19.9402 11.7249 19.9354 11.715C19.9309 11.7055 19.9267 11.6958 19.9217 11.6864C19.9155 11.675 19.9087 11.664 19.9019 11.653C19.8974 11.6457 19.8933 11.6382 19.8885 11.631C19.8783 11.6156 19.8672 11.6009 19.8558 11.5864C19.8538 11.5839 19.8521 11.5813 19.8501 11.5788C19.8351 11.5604 19.8191 11.5428 19.8023 11.5262L17.1381 8.86199C16.8774 8.60134 16.4561 8.60134 16.1954 8.86199C15.9348 9.12265 15.9348 9.54399 16.1954 9.80464L17.7241 11.3333H12.0001C11.6315 11.3333 11.3335 11.6319 11.3335 11.9999C11.3335 12.3679 11.6315 12.6666 12.0001 12.6666H17.7241L16.1954 14.1952C15.9348 14.4559 15.9348 14.8772 16.1954 15.1379C16.3254 15.2679 16.4961 15.3332 16.6668 15.3332C16.8374 15.3332 17.0081 15.2679 17.1381 15.1379L19.8023 12.4737C19.8191 12.4571 19.8351 12.4396 19.8501 12.4212Z" fill="#7E7E7E"/>
</svg>
