<svg width="10" height="20" viewBox="0 0 10 20" fill="none" xmlns="http://www.w3.org/2000/svg">
<path d="M9.96669 13.7375L9.83239 13.182C9.77063 12.9263 9.51338 12.7693 9.25761 12.831C9.00203 12.8928 8.84485 13.1502 8.90679 13.4058L9.04109 13.9614C9.06918 14.0773 9.00166 14.1945 8.88763 14.2282C8.88056 14.2302 8.87349 14.2325 8.86642 14.2349L6.55484 15.0353C6.36343 15.1017 6.2349 15.2818 6.23452 15.4843L6.22801 18.8216C6.22801 18.9447 6.12794 19.0448 6.00424 19.0448L3.99455 19.0476C3.90824 19.0476 3.85374 19.0022 3.829 18.9753C3.8037 18.9477 3.76241 18.8886 3.76966 18.801C3.77078 18.7874 3.77134 18.7738 3.77134 18.7602L3.76501 15.4843C3.76464 15.2818 3.63611 15.1017 3.4447 15.0353L1.10316 14.2245C0.995648 14.1874 0.932403 14.0723 0.959189 13.9614L2.71925 6.68049C2.73506 6.61576 2.77338 6.57614 2.80295 6.55382L4.25683 5.46806C4.30631 5.43104 4.35691 5.42323 4.39132 5.42323H4.39169L5.60822 5.42267C5.67407 5.42267 5.72169 5.44983 5.74977 5.47271C5.75461 5.47661 5.75963 5.48033 5.76447 5.48405L7.19789 6.55252C7.24458 6.58749 7.27564 6.63827 7.28531 6.69575C7.28717 6.70691 7.2894 6.71807 7.29219 6.72904L8.01132 9.70303C8.07308 9.95861 8.33015 10.1158 8.5861 10.054C8.84169 9.99209 8.99887 9.73484 8.93711 9.47925L8.22133 6.51959C8.16739 6.22681 8.00686 5.96806 7.76727 5.78912L6.5859 4.90853C7.26708 4.41541 7.71128 3.61443 7.71128 2.71133C7.71128 1.21616 6.49494 0 4.99995 0C3.50497 0 2.28863 1.21616 2.28863 2.71133C2.28863 3.61462 2.73301 4.41559 3.41438 4.90871L2.23357 5.7906C2.01444 5.9543 1.85819 6.19072 1.79383 6.45672L0.0339593 13.7371C-0.110201 14.3296 0.216252 14.9263 0.792521 15.1248L2.81355 15.8247L2.81914 18.7442C2.79849 19.0653 2.91047 19.3832 3.1281 19.6198C3.3502 19.8614 3.66605 20 3.99548 20L6.00517 19.9972C6.65324 19.9972 7.18077 19.4699 7.18077 18.8225L7.18654 15.8246L9.16925 15.138C9.76319 14.9559 10.1133 14.3433 9.96669 13.7375ZM4.99977 0.952204C5.96964 0.952204 6.75871 1.74127 6.75871 2.71133C6.75871 3.68121 5.96964 4.47028 4.99977 4.47028C4.0299 4.47028 3.24083 3.68121 3.24083 2.71133C3.24083 1.74127 4.0299 0.952204 4.99977 0.952204Z" fill="#B8B8B8"/>
<path d="M8.83028 10.742C8.64074 10.8502 8.53098 11.2457 8.5851 11.625C8.63001 11.9385 8.77296 12.1429 8.92833 12.1429C8.96069 12.1429 8.99374 12.134 9.02652 12.1153C9.2162 12.0068 9.32596 11.6116 9.27171 11.2326V11.232C9.21745 10.853 9.01982 10.6338 8.83028 10.742Z" fill="#B8B8B8"/>
</svg>
