<svg width="24" height="24" viewBox="0 0 24 24" fill="none" xmlns="http://www.w3.org/2000/svg">
<path d="M18.2857 5.71428H16.5714V4.57144C16.5714 4.25584 16.3156 4 16 4C15.6844 4 15.4286 4.25584 15.4286 4.57144V5.71428H8.57141V4.57144C8.57141 4.25584 8.31558 4 8.00001 4C7.68444 4 7.42857 4.25584 7.42857 4.57144V5.71428H5.71428C4.76751 5.71428 4 6.4818 4 7.42857V18.2857C4 19.2325 4.76751 20 5.71428 20H18.2857C19.2325 20 20 19.2325 20 18.2857V7.42857C20 6.4818 19.2325 5.71428 18.2857 5.71428ZM18.8571 18.2857C18.8571 18.6013 18.6013 18.8572 18.2857 18.8572H5.71428C5.39868 18.8572 5.14285 18.6013 5.14285 18.2857V10.8571H18.8571V18.2857ZM18.8571 9.71429H5.14285V7.42857C5.14285 7.11297 5.39868 6.85713 5.71428 6.85713H7.42857V7.99997C7.42857 8.31558 7.68441 8.57141 8.00001 8.57141C8.31561 8.57141 8.57145 8.31558 8.57145 7.99997V6.85713H15.4286V7.99997C15.4286 8.31558 15.6844 8.57141 16 8.57141C16.3156 8.57141 16.5715 8.31558 16.5715 7.99997V6.85713H18.2857C18.6014 6.85713 18.8572 7.11297 18.8572 7.42857V9.71429H18.8571Z" fill="black"/>
<path d="M8.57147 12H7.42862C7.11302 12 6.85718 12.2558 6.85718 12.5714C6.85718 12.887 7.11302 13.1429 7.42862 13.1429H8.57147C8.88707 13.1429 9.14291 12.887 9.14291 12.5714C9.14291 12.2558 8.88707 12 8.57147 12Z" fill="black"/>
<path d="M12.5715 12H11.4286C11.113 12 10.8572 12.2558 10.8572 12.5714C10.8572 12.887 11.113 13.1429 11.4286 13.1429H12.5715C12.8871 13.1429 13.1429 12.887 13.1429 12.5714C13.1429 12.2558 12.8871 12 12.5715 12Z" fill="black"/>
<path d="M16.5712 12H15.4284C15.1128 12 14.8569 12.2558 14.8569 12.5714C14.8569 12.887 15.1128 13.1429 15.4284 13.1429H16.5712C16.8868 13.1429 17.1427 12.887 17.1427 12.5714C17.1426 12.2558 16.8868 12 16.5712 12Z" fill="black"/>
<path d="M8.57147 14.2856H7.42862C7.11302 14.2856 6.85718 14.5415 6.85718 14.8571C6.85718 15.1727 7.11302 15.4285 7.42862 15.4285H8.57147C8.88707 15.4285 9.14291 15.1727 9.14291 14.8571C9.14291 14.5415 8.88707 14.2856 8.57147 14.2856Z" fill="black"/>
<path d="M12.5715 14.2856H11.4286C11.113 14.2856 10.8572 14.5415 10.8572 14.8571C10.8572 15.1727 11.113 15.4285 11.4286 15.4285H12.5715C12.8871 15.4285 13.1429 15.1727 13.1429 14.8571C13.1429 14.5415 12.8871 14.2856 12.5715 14.2856Z" fill="black"/>
<path d="M16.5712 14.2856H15.4284C15.1128 14.2856 14.8569 14.5415 14.8569 14.8571C14.8569 15.1727 15.1128 15.4285 15.4284 15.4285H16.5712C16.8868 15.4285 17.1427 15.1727 17.1427 14.8571C17.1426 14.5415 16.8868 14.2856 16.5712 14.2856Z" fill="black"/>
<path d="M8.57147 16.5718H7.42862C7.11302 16.5718 6.85718 16.8276 6.85718 17.1432C6.85718 17.4588 7.11302 17.7146 7.42862 17.7146H8.57147C8.88707 17.7146 9.14291 17.4588 9.14291 17.1432C9.14291 16.8276 8.88707 16.5718 8.57147 16.5718Z" fill="black"/>
<path d="M12.5715 16.5718H11.4286C11.113 16.5718 10.8572 16.8276 10.8572 17.1432C10.8572 17.4588 11.113 17.7147 11.4286 17.7147H12.5715C12.8871 17.7147 13.1429 17.4588 13.1429 17.1432C13.1429 16.8276 12.8871 16.5718 12.5715 16.5718Z" fill="black"/>
<path d="M16.5712 16.5718H15.4284C15.1128 16.5718 14.8569 16.8276 14.8569 17.1432C14.8569 17.4588 15.1128 17.7147 15.4284 17.7147H16.5712C16.8868 17.7147 17.1427 17.4588 17.1427 17.1432C17.1427 16.8276 16.8868 16.5718 16.5712 16.5718Z" fill="black"/>
</svg>
