<svg width="220" height="220" viewBox="0 0 220 220" fill="none" xmlns="http://www.w3.org/2000/svg">
<path opacity="0.2" d="M50.027 111.92C50.1815 111.47 50.8185 111.47 50.973 111.92L51.9282 114.705C52.1361 115.312 52.7062 115.719 53.3471 115.719H56.3185C56.8093 115.719 57.0063 116.352 56.6019 116.631L54.2927 118.22C53.7384 118.602 53.506 119.306 53.7243 119.942L54.628 122.577C54.7844 123.033 54.2686 123.425 53.8716 123.151L51.3505 121.416C50.8383 121.064 50.1617 121.064 49.6495 121.416L47.1284 123.151C46.7314 123.425 46.2156 123.033 46.372 122.577L47.2757 119.942C47.494 119.306 47.2616 118.602 46.7073 118.22L44.3981 116.631C43.9937 116.352 44.1907 115.719 44.6815 115.719H47.6529C48.2938 115.719 48.8639 115.312 49.0718 114.705L50.027 111.92Z" stroke="#B058F8"/>
<path opacity="0.2" d="M46.027 55.9202C46.1815 55.4698 46.8185 55.4698 46.973 55.9202L47.9282 58.7055C48.1361 59.3117 48.7062 59.7188 49.3471 59.7188H52.3185C52.8093 59.7188 53.0063 60.3524 52.6019 60.6307L50.2927 62.2202C49.7384 62.6017 49.506 63.3058 49.7243 63.9424L50.628 66.5773C50.7844 67.0332 50.2686 67.4247 49.8716 67.1514L47.3505 65.4161C46.8383 65.0635 46.1617 65.0635 45.6495 65.4161L43.1284 67.1514C42.7314 67.4247 42.2156 67.0332 42.372 66.5773L43.2757 63.9424C43.494 63.3058 43.2616 62.6017 42.7073 62.2202L40.3981 60.6307C39.9937 60.3524 40.1907 59.7188 40.6815 59.7188H43.6529C44.2938 59.7188 44.8639 59.3117 45.0718 58.7055L46.027 55.9202Z" stroke="#B058F8"/>
<path opacity="0.2" d="M166.027 67.9202C166.182 67.4698 166.818 67.4698 166.973 67.9202L167.928 70.7055C168.136 71.3117 168.706 71.7188 169.347 71.7188H172.318C172.809 71.7188 173.006 72.3524 172.602 72.6307L170.293 74.2202C169.738 74.6017 169.506 75.3058 169.724 75.9424L170.628 78.5773C170.784 79.0332 170.269 79.4247 169.872 79.1514L167.35 77.4161C166.838 77.0635 166.162 77.0635 165.65 77.4161L163.128 79.1514C162.731 79.4247 162.216 79.0332 162.372 78.5773L163.276 75.9424C163.494 75.3058 163.262 74.6017 162.707 74.2202L160.398 72.6307C159.994 72.3524 160.191 71.7188 160.682 71.7188H163.653C164.294 71.7188 164.864 71.3117 165.072 70.7055L166.027 67.9202Z" stroke="#B058F8"/>
<path opacity="0.3" d="M98.0245 37.0816C98.1741 36.6209 98.8259 36.6209 98.9755 37.0816L99.9328 40.0279C100.134 40.6459 100.71 41.0643 101.359 41.0643H104.457C104.942 41.0643 105.143 41.6841 104.751 41.9688L102.245 43.7898C101.719 44.1717 101.499 44.8488 101.7 45.4668L102.657 48.4131C102.807 48.8738 102.28 49.2568 101.888 48.9721L99.3817 47.1512C98.8559 46.7693 98.1441 46.7693 97.6183 47.1512L95.112 48.9721C94.7202 49.2568 94.1929 48.8738 94.3426 48.4131L95.2999 45.4668C95.5007 44.8488 95.2808 44.1717 94.755 43.7898L92.2488 41.9688C91.8569 41.6841 92.0583 41.0643 92.5426 41.0643H95.6406C96.2904 41.0643 96.8663 40.6459 97.0672 40.0279L98.0245 37.0816Z" stroke="#FFBC00"/>
<path opacity="0.2" d="M194.024 161.082C194.174 160.621 194.826 160.621 194.976 161.082L195.933 164.028C196.134 164.646 196.71 165.064 197.359 165.064H200.457C200.942 165.064 201.143 165.684 200.751 165.969L198.245 167.79C197.719 168.172 197.499 168.849 197.7 169.467L198.657 172.413C198.807 172.874 198.28 173.257 197.888 172.972L195.382 171.151C194.856 170.769 194.144 170.769 193.618 171.151L191.112 172.972C190.72 173.257 190.193 172.874 190.343 172.413L191.3 169.467C191.501 168.849 191.281 168.172 190.755 167.79L188.249 165.969C187.857 165.684 188.058 165.064 188.543 165.064H191.641C192.29 165.064 192.866 164.646 193.067 164.028L194.024 161.082Z" stroke="#B058F8"/>
<path opacity="0.3" d="M41.0245 170.082C41.1741 169.621 41.8259 169.621 41.9755 170.082L42.9328 173.028C43.1337 173.646 43.7096 174.064 44.3594 174.064H47.4574C47.9417 174.064 48.1431 174.684 47.7512 174.969L45.245 176.79C44.7192 177.172 44.4993 177.849 44.7001 178.467L45.6574 181.413C45.8071 181.874 45.2798 182.257 44.888 181.972L42.3817 180.151C41.8559 179.769 41.1441 179.769 40.6183 180.151L38.112 181.972C37.7202 182.257 37.1929 181.874 37.3426 181.413L38.2999 178.467C38.5007 177.849 38.2808 177.172 37.755 176.79L35.2488 174.969C34.8569 174.684 35.0583 174.064 35.5426 174.064H38.6406C39.2904 174.064 39.8663 173.646 40.0672 173.028L41.0245 170.082Z" stroke="#FFBC00"/>
<path opacity="0.2" d="M198.024 122.082C198.174 121.621 198.826 121.621 198.976 122.082L199.933 125.028C200.134 125.646 200.71 126.064 201.359 126.064H204.457C204.942 126.064 205.143 126.684 204.751 126.969L202.245 128.79C201.719 129.172 201.499 129.849 201.7 130.467L202.657 133.413C202.807 133.874 202.28 134.257 201.888 133.972L199.382 132.151C198.856 131.769 198.144 131.769 197.618 132.151L195.112 133.972C194.72 134.257 194.193 133.874 194.343 133.413L195.3 130.467C195.501 129.849 195.281 129.172 194.755 128.79L192.249 126.969C191.857 126.684 192.058 126.064 192.543 126.064H195.641C196.29 126.064 196.866 125.646 197.067 125.028L198.024 122.082Z" stroke="#FFBC00"/>
<circle cx="63.5" cy="79.5" r="2.5" fill="#FFBC00"/>
<circle cx="13.5" cy="96.5" r="1.5" fill="#FFBC00"/>
<circle cx="25.5" cy="122.5" r="1.5" fill="#B058F8"/>
<circle cx="37.5" cy="76.5" r="1.5" fill="#B058F8"/>
<circle cx="136.5" cy="42.5" r="1.5" fill="#B058F8"/>
<circle cx="24.5" cy="163.5" r="1" stroke="#B058F8"/>
<circle cx="128" cy="70" r="1" fill="#B058F8"/>
<circle cx="181.5" cy="145.5" r="2.5" fill="#FFBC00"/>
<circle cx="201.5" cy="83.5" r="2.5" fill="#B058F8"/>
<circle cx="161.5" cy="107.5" r="1.5" fill="#FFBC00"/>
<circle cx="218.5" cy="136.5" r="1.2" stroke="#B058F8" stroke-width="0.6"/>
<rect x="15.0913" y="143.657" width="7.4" height="7.4" rx="0.7" transform="rotate(-45 15.0913 143.657)" stroke="#FFBC00" stroke-width="0.6"/>
<rect x="89.7573" y="66.3237" width="4.73333" height="4.73333" rx="0.7" transform="rotate(-45 89.7573 66.3237)" stroke="#FFBC00" stroke-width="0.6"/>
<rect x="168.424" y="176.438" width="4.73333" height="4.73333" rx="0.7" transform="rotate(-45 168.424 176.438)" stroke="#B058F8" stroke-width="0.6"/>
<rect x="153.757" y="92.9902" width="2.06667" height="2.06667" rx="0.7" transform="rotate(-45 153.757 92.9902)" stroke="#FFBC00" stroke-width="0.6"/>
<mask id="path-23-outside-1" maskUnits="userSpaceOnUse" x="54" y="97" width="91" height="91" fill="black">
<rect fill="white" x="54" y="97" width="91" height="91"/>
<path fill-rule="evenodd" clip-rule="evenodd" d="M59.5147 133.802C54.8284 138.489 54.8284 146.087 59.5147 150.773L65.1647 156.423V164.412C65.1647 171.039 70.5373 176.412 77.1647 176.412H85.1527L90.8018 182.061C95.488 186.747 103.086 186.747 107.772 182.061L113.421 176.412H121.411C128.039 176.412 133.411 171.039 133.411 164.412V156.421L139.059 150.773C143.746 146.087 143.746 138.489 139.059 133.802L133.411 128.154V120.164C133.411 113.537 128.039 108.164 121.411 108.164H113.421L107.772 102.515C103.086 97.8284 95.4881 97.8284 90.8018 102.515L85.1527 108.164H77.1647C70.5373 108.164 65.1647 113.537 65.1647 120.164V128.152L59.5147 133.802Z"/>
</mask>
<path fill-rule="evenodd" clip-rule="evenodd" d="M59.5147 133.802C54.8284 138.489 54.8284 146.087 59.5147 150.773L65.1647 156.423V164.412C65.1647 171.039 70.5373 176.412 77.1647 176.412H85.1527L90.8018 182.061C95.488 186.747 103.086 186.747 107.772 182.061L113.421 176.412H121.411C128.039 176.412 133.411 171.039 133.411 164.412V156.421L139.059 150.773C143.746 146.087 143.746 138.489 139.059 133.802L133.411 128.154V120.164C133.411 113.537 128.039 108.164 121.411 108.164H113.421L107.772 102.515C103.086 97.8284 95.4881 97.8284 90.8018 102.515L85.1527 108.164H77.1647C70.5373 108.164 65.1647 113.537 65.1647 120.164V128.152L59.5147 133.802Z" fill="white"/>
<path d="M59.5147 150.773L60.9289 149.359H60.9289L59.5147 150.773ZM59.5147 133.802L60.9289 135.217L59.5147 133.802ZM65.1647 156.423H67.1647V155.595L66.579 155.009L65.1647 156.423ZM85.1527 176.412L86.5669 174.997L85.9811 174.412H85.1527V176.412ZM90.8018 182.061L92.216 180.646L90.8018 182.061ZM107.772 182.061L109.186 183.475L107.772 182.061ZM113.421 176.412V174.412H112.593L112.007 174.997L113.421 176.412ZM133.411 156.421L131.997 155.007L131.411 155.593V156.421H133.411ZM139.059 150.773L140.474 152.187L139.059 150.773ZM139.059 133.802L137.645 135.217L139.059 133.802ZM133.411 128.154H131.411V128.983L131.997 129.568L133.411 128.154ZM113.421 108.164L112.007 109.578L112.593 110.164H113.421V108.164ZM107.772 102.515L106.358 103.929L107.772 102.515ZM90.8018 102.515L92.216 103.929L90.8018 102.515ZM85.1527 108.164V110.164H85.9811L86.5669 109.578L85.1527 108.164ZM65.1647 128.152L66.579 129.566L67.1647 128.981V128.152H65.1647ZM60.9289 149.359C57.0237 145.454 57.0237 139.122 60.9289 135.217L58.1005 132.388C52.6332 137.856 52.6332 146.72 58.1005 152.187L60.9289 149.359ZM66.579 155.009L60.9289 149.359L58.1005 152.187L63.7505 157.837L66.579 155.009ZM67.1647 164.412V156.423H63.1647V164.412H67.1647ZM77.1647 174.412C71.6419 174.412 67.1647 169.934 67.1647 164.412H63.1647C63.1647 172.143 69.4327 178.412 77.1647 178.412V174.412ZM85.1527 174.412H77.1647V178.412H85.1527V174.412ZM92.216 180.646L86.5669 174.997L83.7385 177.826L89.3876 183.475L92.216 180.646ZM106.358 180.646C102.453 184.552 96.1212 184.552 92.216 180.646L89.3876 183.475C94.8549 188.942 103.719 188.942 109.186 183.475L106.358 180.646ZM112.007 174.997L106.358 180.646L109.186 183.475L114.836 177.826L112.007 174.997ZM121.411 174.412H113.421V178.412H121.411V174.412ZM131.411 164.412C131.411 169.934 126.934 174.412 121.411 174.412V178.412C129.143 178.412 135.411 172.143 135.411 164.412H131.411ZM131.411 156.421V164.412H135.411V156.421H131.411ZM137.645 149.359L131.997 155.007L134.825 157.836L140.474 152.187L137.645 149.359ZM137.645 135.217C141.55 139.122 141.55 145.454 137.645 149.359L140.474 152.187C145.941 146.72 145.941 137.856 140.474 132.388L137.645 135.217ZM131.997 129.568L137.645 135.217L140.474 132.388L134.825 126.74L131.997 129.568ZM131.411 120.164V128.154H135.411V120.164H131.411ZM121.411 110.164C126.934 110.164 131.411 114.641 131.411 120.164H135.411C135.411 112.432 129.143 106.164 121.411 106.164V110.164ZM113.421 110.164H121.411V106.164H113.421V110.164ZM106.358 103.929L112.007 109.578L114.836 106.75L109.186 101.101L106.358 103.929ZM92.216 103.929C96.1212 100.024 102.453 100.024 106.358 103.929L109.186 101.101C103.719 95.6332 94.8549 95.6331 89.3876 101.101L92.216 103.929ZM86.5669 109.578L92.216 103.929L89.3876 101.101L83.7385 106.75L86.5669 109.578ZM77.1647 110.164H85.1527V106.164H77.1647V110.164ZM67.1647 120.164C67.1647 114.641 71.6419 110.164 77.1647 110.164V106.164C69.4327 106.164 63.1647 112.432 63.1647 120.164H67.1647ZM67.1647 128.152V120.164H63.1647V128.152H67.1647ZM60.9289 135.217L66.579 129.566L63.7505 126.738L58.1005 132.388L60.9289 135.217Z" fill="#4137FF" mask="url(#path-23-outside-1)"/>
<mask id="path-25-inside-2" fill="white">
<path fill-rule="evenodd" clip-rule="evenodd" d="M62.2301 135.512C58.325 139.417 58.325 145.749 62.2301 149.654L68.0879 155.512V163.796C68.0879 169.319 72.5651 173.796 78.0879 173.796H86.3708L92.2281 179.653C96.1332 183.559 102.465 183.559 106.37 179.653L112.227 173.796H120.511C126.034 173.796 130.511 169.319 130.511 163.796V155.511L136.368 149.654C140.273 145.749 140.273 139.417 136.368 135.512L130.511 129.655V121.37C130.511 115.847 126.034 111.37 120.511 111.37H112.227L106.37 105.513C102.465 101.607 96.1332 101.607 92.2281 105.513L86.3707 111.37H78.0879C72.5651 111.37 68.0879 115.847 68.0879 121.37V129.654L62.2301 135.512Z"/>
</mask>
<path fill-rule="evenodd" clip-rule="evenodd" d="M62.2301 135.512C58.325 139.417 58.325 145.749 62.2301 149.654L68.0879 155.512V163.796C68.0879 169.319 72.5651 173.796 78.0879 173.796H86.3708L92.2281 179.653C96.1332 183.559 102.465 183.559 106.37 179.653L112.227 173.796H120.511C126.034 173.796 130.511 169.319 130.511 163.796V155.511L136.368 149.654C140.273 145.749 140.273 139.417 136.368 135.512L130.511 129.655V121.37C130.511 115.847 126.034 111.37 120.511 111.37H112.227L106.37 105.513C102.465 101.607 96.1332 101.607 92.2281 105.513L86.3707 111.37H78.0879C72.5651 111.37 68.0879 115.847 68.0879 121.37V129.654L62.2301 135.512Z" fill="white"/>
<path d="M62.2301 149.654L60.8159 151.068H60.8159L62.2301 149.654ZM62.2301 135.512L63.6444 136.926L62.2301 135.512ZM68.0879 155.512H70.0879V154.684L69.5022 154.098L68.0879 155.512ZM86.3708 173.796L87.785 172.382L87.1992 171.796H86.3708V173.796ZM92.2281 179.653L90.8138 181.068L92.2281 179.653ZM106.37 179.653L107.784 181.068L106.37 179.653ZM112.227 173.796V171.796H111.399L110.813 172.382L112.227 173.796ZM130.511 155.511L129.097 154.097L128.511 154.683V155.511H130.511ZM136.368 149.654L134.954 148.24L136.368 149.654ZM136.368 135.512L137.782 134.098H137.782L136.368 135.512ZM130.511 129.655H128.511V130.483L129.097 131.069L130.511 129.655ZM112.227 111.37L110.813 112.784L111.399 113.37H112.227V111.37ZM106.37 105.513L104.956 106.927V106.927L106.37 105.513ZM92.2281 105.513L90.8138 104.099V104.099L92.2281 105.513ZM86.3707 111.37V113.37H87.1992L87.785 112.784L86.3707 111.37ZM68.0879 129.654L69.5022 131.068L70.0879 130.482V129.654H68.0879ZM63.6444 148.24C60.5202 145.116 60.5202 140.05 63.6444 136.926L60.8159 134.098C56.1297 138.784 56.1297 146.382 60.8159 151.068L63.6444 148.24ZM69.5022 154.098L63.6444 148.24L60.8159 151.068L66.6737 156.926L69.5022 154.098ZM70.0879 163.796V155.512H66.0879V163.796H70.0879ZM78.0879 171.796C73.6696 171.796 70.0879 168.214 70.0879 163.796H66.0879C66.0879 170.423 71.4605 175.796 78.0879 175.796V171.796ZM86.3708 171.796H78.0879V175.796H86.3708V171.796ZM93.6423 178.239L87.785 172.382L84.9565 175.21L90.8138 181.068L93.6423 178.239ZM104.956 178.239C101.832 181.363 96.7664 181.363 93.6423 178.239L90.8138 181.068C95.5001 185.754 103.098 185.754 107.784 181.068L104.956 178.239ZM110.813 172.382L104.956 178.239L107.784 181.068L113.641 175.21L110.813 172.382ZM120.511 171.796H112.227V175.796H120.511V171.796ZM128.511 163.796C128.511 168.214 124.929 171.796 120.511 171.796V175.796C127.138 175.796 132.511 170.423 132.511 163.796H128.511ZM128.511 155.511V163.796H132.511V155.511H128.511ZM134.954 148.24L129.097 154.097L131.925 156.926L137.782 151.068L134.954 148.24ZM134.954 136.926C138.078 140.05 138.078 145.116 134.954 148.24L137.782 151.068C142.468 146.382 142.468 138.784 137.782 134.098L134.954 136.926ZM129.097 131.069L134.954 136.926L137.782 134.098L131.925 128.241L129.097 131.069ZM128.511 121.37V129.655H132.511V121.37H128.511ZM120.511 113.37C124.929 113.37 128.511 116.952 128.511 121.37H132.511C132.511 114.743 127.138 109.37 120.511 109.37V113.37ZM112.227 113.37H120.511V109.37H112.227V113.37ZM104.956 106.927L110.813 112.784L113.642 109.956L107.784 104.099L104.956 106.927ZM93.6423 106.927C96.7664 103.803 101.832 103.803 104.956 106.927L107.784 104.099C103.098 99.4121 95.5001 99.4121 90.8138 104.099L93.6423 106.927ZM87.785 112.784L93.6423 106.927L90.8138 104.099L84.9565 109.956L87.785 112.784ZM78.0879 113.37H86.3707V109.37H78.0879V113.37ZM70.0879 121.37C70.0879 116.952 73.6697 113.37 78.0879 113.37V109.37C71.4605 109.37 66.0879 114.743 66.0879 121.37H70.0879ZM70.0879 129.654V121.37H66.0879V129.654H70.0879ZM63.6444 136.926L69.5022 131.068L66.6737 128.24L60.8159 134.098L63.6444 136.926Z" fill="#4137FF" mask="url(#path-25-inside-2)"/>
<rect x="82" y="141.05" width="6" height="20" rx="2" transform="rotate(-45 82 141.05)" fill="#B058F8"/>
<rect x="111.991" y="131" width="6" height="28" rx="2" transform="rotate(45 111.991 131)" fill="#B058F8"/>
</svg>
