<svg width="24" height="24" viewBox="0 0 24 24" fill="none" xmlns="http://www.w3.org/2000/svg">
<path d="M21.7694 11.9296C21.617 12.0809 21.4178 12.1566 21.2188 12.1566C21.018 12.1566 20.8172 12.0797 20.6645 11.926L20.0469 11.3043V14.969C20.0469 15.4005 19.6971 15.7502 19.2656 15.7502C18.8341 15.7502 18.4844 15.4005 18.4844 14.969V9.7315L12.5427 3.7508C12.2511 3.50104 11.8218 3.50015 11.5291 3.74869L5.5145 9.75131C5.5147 9.75884 5.51564 9.76623 5.51564 9.77384V18.8751C5.51564 19.7366 6.21657 20.4375 7.07813 20.4375H16.9219C17.7834 20.4375 18.4844 19.7366 18.4844 18.8751C18.4844 18.4436 18.8341 18.0939 19.2656 18.0939C19.6971 18.0939 20.0469 18.4436 20.0469 18.8751C20.0469 20.5982 18.645 22 16.9219 22H7.07813C5.35501 22 3.95314 20.5982 3.95314 18.8751V11.3096L3.33314 11.9283C3.02775 12.2331 2.5331 12.2326 2.2283 11.9272C1.92349 11.6218 1.92396 11.1272 2.22935 10.8224C2.22935 10.8224 10.4651 2.60373 10.4762 2.59385C11.3684 1.79954 12.7116 1.80239 13.6005 2.60041C13.6115 2.61033 21.773 10.8247 21.773 10.8247C22.0771 11.1308 22.0755 11.6255 21.7694 11.9296ZM13.9531 10.1645C14.702 10.1645 15.3909 10.4471 15.8927 10.9602C16.4052 11.4843 16.6875 12.2227 16.6875 13.0393C16.6875 13.8384 16.3768 14.577 15.7375 15.2973C15.2376 15.8606 14.6142 16.3301 14.0113 16.7841C13.4513 17.2059 12.9223 17.6042 12.6109 17.9949C12.4627 18.1809 12.2378 18.2892 12 18.2892C11.7622 18.2892 11.5373 18.1809 11.3891 17.9949C11.0777 17.6043 10.5487 17.2059 9.98871 16.7841C9.38583 16.3301 8.76243 15.8606 8.26247 15.2973C7.62325 14.577 7.31251 13.8384 7.31251 13.0393C7.31251 12.2227 7.59477 11.4843 8.10727 10.9602C8.60915 10.4471 9.29797 10.1645 10.0469 10.1645C10.8369 10.1645 11.5115 10.4333 12 10.9327C12.4885 10.4333 13.1631 10.1645 13.9531 10.1645Z" fill="#4137FF"/>
</svg>
