<svg width="16" height="14" viewBox="0 0 16 14" fill="none" xmlns="http://www.w3.org/2000/svg">
<path d="M9.41431 6.0858C10.1954 6.86688 10.1954 8.13324 9.41431 8.91431C8.63324 9.69538 7.36688 9.69538 6.5858 8.91431C5.80473 8.13324 5.80473 6.86688 6.5858 6.0858C7.36688 5.30473 8.63324 5.30473 9.41431 6.0858Z" fill="#4137FF"/>
<path d="M13.9999 2.00007H12.618L11.6175 0H4.38148L3.38192 2.00105L2.002 2.0035C0.901879 2.00547 0.00632196 2.90198 0.00537203 4.00259L0 11.9999C0 13.1029 0.896998 14.0004 2.00007 14.0004H13.9999C15.103 14.0004 16 13.1034 16 12.0004V4.0001C16 2.89706 15.103 2.00007 13.9999 2.00007ZM7.99974 11.5003C5.79409 11.5003 3.99961 9.70585 3.99961 7.5002C3.99961 5.29456 5.79409 3.50007 7.99974 3.50007C10.2054 3.50007 11.9999 5.29456 11.9999 7.5002C11.9999 9.70585 10.2054 11.5003 7.99974 11.5003Z" fill="#4137FF"/>
</svg>
