<svg width="52" height="52" viewBox="0 0 52 52" fill="none" xmlns="http://www.w3.org/2000/svg">
<path d="M27.1587 8.515H26.7141V8.07039C26.7141 7.74781 26.4526 7.48633 26.1301 7.48633C25.8075 7.48633 25.546 7.74781 25.546 8.07039V8.515H25.1015C24.7789 8.515 24.5174 8.77649 24.5174 9.09907C24.5174 9.42165 24.7789 9.68313 25.1015 9.68313H25.546V10.1277C25.546 10.4502 25.8075 10.7117 26.1301 10.7117C26.4526 10.7117 26.7141 10.4502 26.7141 10.1277V9.68313H27.1587C27.4812 9.68313 27.7427 9.42165 27.7427 9.09907C27.7427 8.77649 27.4812 8.515 27.1587 8.515Z" fill="#B8B8B8"/>
<path d="M43.2355 44.0023L41.5286 34.0089C41.3434 32.925 40.5744 32.0543 39.5217 31.7368L31.8591 29.4248C31.5211 29.3228 31.1704 29.3672 30.8791 29.5262C30.6068 29.2837 30.4082 28.869 30.4082 28.485V26.5722C30.428 26.5552 30.4478 26.5381 30.4675 26.5212C30.497 26.4958 30.5283 26.4684 30.5605 26.4399H31.311C32.3528 26.4399 33.3192 26.0216 34.0322 25.262C34.7452 24.5025 35.1017 23.5117 35.0358 22.472L34.8278 19.1859V19.1367C34.8278 19.047 34.821 18.959 34.808 18.8728L34.575 15.1926C34.5546 14.8707 34.2763 14.6264 33.9553 14.6465C33.6333 14.6669 33.3888 14.9444 33.4092 15.2664L33.547 17.4438C33.3947 17.4007 33.2342 17.377 33.0681 17.377H33.0356C32.8639 17.1166 32.5792 16.9368 32.2442 16.9066C26.1812 16.361 24.4357 14.5504 23.161 13.2282C22.8961 12.9534 22.4615 12.9324 21.8696 13.1658C20.8406 13.5713 19.089 14.8819 19.0507 17.2222C19.0507 17.2254 19.0506 17.2286 19.0506 17.2318V17.3827C18.9345 17.3919 18.8217 17.4129 18.7129 17.4437L18.8931 14.5977C18.989 13.0837 19.7511 11.7341 20.967 10.8758L21.0112 10.9913C21.3044 11.7575 22.0526 12.2722 22.873 12.2722H29.5395C30.3598 12.2722 31.108 11.7575 31.4013 10.9913L31.4115 10.9646C32.0426 11.4401 32.5493 12.0569 32.8943 12.7778C32.9947 12.9874 33.2037 13.1098 33.4216 13.1098C33.5061 13.1098 33.592 13.0913 33.6733 13.0524C33.9643 12.9132 34.0873 12.5644 33.948 12.2734C33.4727 11.2805 32.7502 10.447 31.8427 9.83771L32.2449 8.78669C32.3978 8.38716 32.3673 7.94301 32.1613 7.56817C31.9552 7.1934 31.5967 6.92957 31.1776 6.84449L27.8254 6.16371C26.7509 5.94543 25.6615 5.94543 24.587 6.16371L21.2349 6.84434C20.8158 6.92942 20.4572 7.19317 20.2511 7.56809C20.0451 7.94301 20.0146 8.38708 20.1676 8.78661L20.539 9.757C18.8922 10.8047 17.8522 12.5511 17.7273 14.5238L17.4505 18.896C17.4397 18.9748 17.4322 19.0547 17.4322 19.1365V19.1857L17.2242 22.4717C17.1583 23.5113 17.5148 24.5023 18.2278 25.2618C18.9408 26.0213 19.9072 26.4396 20.949 26.4396H21.6995C21.7317 26.4681 21.763 26.4956 21.7925 26.521C21.8122 26.5379 21.832 26.5549 21.8518 26.572V28.4848C21.8518 28.8688 21.6532 29.2835 21.3808 29.526C21.0896 29.367 20.7388 29.3225 20.401 29.4245L12.7383 31.7365C11.6857 32.0541 10.9167 32.9248 10.7314 34.0086L10.0903 37.7626C10.036 38.0806 10.2497 38.3824 10.5677 38.4367C10.8853 38.4915 11.1875 38.2773 11.2417 37.9593L11.8829 34.2053C11.993 33.5611 12.45 33.0436 13.0757 32.8549L20.7384 30.5428C20.7886 30.5277 20.8419 30.5507 20.8656 30.5972C20.8656 30.5973 20.8658 30.5975 20.8658 30.5975L24.5243 37.8255C24.6205 38.0158 24.7469 38.1835 24.8958 38.3241C25.2234 38.6337 25.6608 38.8123 26.1298 38.8123C26.4284 38.8123 26.714 38.74 26.9667 38.6076C27.2916 38.4373 27.5621 38.1679 27.7355 37.8254L31.3942 30.5972C31.4177 30.5505 31.4712 30.5273 31.5214 30.5428L39.1841 32.8548C39.8098 33.0436 40.2668 33.5611 40.3768 34.2052L42.0838 44.1986C42.1207 44.4146 42.0245 44.5674 41.9638 44.6393C41.9031 44.7112 41.7687 44.8318 41.5496 44.8318H37.9313L36.9767 39.2433C36.9224 38.9254 36.6208 38.7114 36.3026 38.7659C35.9846 38.8202 35.7709 39.122 35.8252 39.44L36.7462 44.8317H15.5137L16.4347 39.44C16.489 39.122 16.2753 38.8202 15.9573 38.7659C15.6395 38.7115 15.3375 38.9253 15.2832 39.2433L14.3286 44.8318H10.7103C10.4911 44.8318 10.3567 44.7112 10.296 44.6393C10.2354 44.5674 10.1392 44.4145 10.176 44.1986L10.7703 40.7197C10.8246 40.4018 10.6108 40.1 10.2928 40.0457C9.97502 39.9912 9.67307 40.2051 9.61877 40.5231L9.02455 44.0019C8.93955 44.4998 9.07752 45.0067 9.40315 45.3927C9.72877 45.7786 10.2052 46 10.7103 46C10.7109 46 10.7103 46 10.7109 46H41.5499C42.0549 46 42.5313 45.7786 42.857 45.3927C43.1825 45.007 43.3206 44.5001 43.2355 44.0023ZM21.2751 8.1309C21.2987 8.08786 21.3552 8.01215 21.4675 7.98934L24.8196 7.30864C25.2798 7.21528 25.743 7.16856 26.2063 7.16856C26.6695 7.16856 27.133 7.21528 27.593 7.30864L30.9452 7.98934C30.9452 7.98934 30.9452 7.98934 30.9452 7.98942C31.0574 8.01215 31.1139 8.08786 31.1376 8.1309C31.1613 8.17403 31.1949 8.26223 31.154 8.36926L30.3103 10.5738C30.1889 10.891 29.8791 11.1041 29.5395 11.1041H22.8731C22.5335 11.1041 22.2237 10.891 22.1023 10.5738L21.2587 8.36926C21.2177 8.26231 21.2514 8.17403 21.2751 8.1309ZM33.87 22.5458C33.9152 23.2601 33.6703 23.9407 33.1805 24.4625C32.7827 24.8863 32.2702 25.1554 31.7083 25.2416C32.3505 24.4466 32.981 23.3961 33.159 22.1968C33.4012 22.1845 33.63 22.1219 33.8368 22.0209L33.87 22.5458ZM19.0796 24.4625C18.5897 23.9407 18.3449 23.26 18.39 22.5458L18.4233 22.021C18.6301 22.122 18.8589 22.1845 19.1011 22.1969C19.279 23.3961 19.9096 24.4466 20.5518 25.2417C19.9899 25.1554 19.4773 24.8863 19.0796 24.4625ZM26.7666 37.1534L26.6934 37.2982C26.683 37.3187 26.6708 37.3378 26.6587 37.3567C26.6548 37.3627 26.6516 37.3694 26.6477 37.3753C26.6403 37.386 26.6316 37.3952 26.6237 37.4054C26.5957 37.4412 26.5652 37.4747 26.5309 37.503C26.5237 37.509 26.5156 37.5137 26.5082 37.5194C26.402 37.5992 26.2719 37.6444 26.13 37.6444C25.887 37.6444 25.6764 37.515 25.5666 37.2983L23.141 32.5058H29.1191L26.7666 37.1534ZM29.7104 31.3376H22.5497L22.0985 30.4462C22.6489 29.9858 23.0201 29.2342 23.0201 28.4849V27.4771C23.7847 27.9689 24.7415 28.3503 26.1236 28.3657C26.1258 28.3657 26.1279 28.3657 26.1301 28.3657C26.1323 28.3657 26.1344 28.3657 26.1366 28.3657C27.5187 28.3503 28.4755 27.9689 29.2401 27.4772V28.485C29.2401 29.2343 29.6112 29.9859 30.1616 30.4463L29.7104 31.3376ZM29.7053 25.636C28.6252 26.5661 27.7925 27.1774 26.1301 27.1975C24.4677 27.1774 23.635 26.566 22.5548 25.636C21.1209 24.4013 20.2483 22.8935 20.2205 21.6025C20.2137 21.2849 19.9543 21.0309 19.6366 21.0309H19.192C18.8658 21.0309 18.6005 20.7656 18.6005 20.4395V19.1367C18.6005 19.1095 18.603 19.0829 18.6066 19.0566C18.6083 19.0477 18.6095 19.0387 18.6108 19.0297C18.6613 18.7545 18.9025 18.5452 19.1921 18.5452H19.6349C19.9575 18.5452 20.219 18.2837 20.219 17.9612V17.2369C20.254 15.2599 21.9366 14.3361 22.4695 14.1927C24.1824 15.9401 26.2876 17.5291 32.05 18.062C32.0977 18.3365 32.3372 18.5452 32.6254 18.5452H33.0682C33.3578 18.5452 33.5989 18.7545 33.6495 19.0297C33.6508 19.0388 33.652 19.0477 33.6537 19.0566C33.6573 19.0828 33.6598 19.1095 33.6598 19.1367V20.4395C33.6598 20.7656 33.3945 21.0309 33.0683 21.0309H32.6237C32.306 21.0309 32.0466 21.2849 32.0398 21.6025C32.0119 22.8934 31.1392 24.4013 29.7053 25.636Z" fill="#B8B8B8"/>
</svg>
