<svg width="60" height="60" viewBox="0 0 60 60" fill="none" xmlns="http://www.w3.org/2000/svg">
<rect x="0.5" y="0.5" width="59" height="59" rx="7.5" fill="white" stroke="#B8B8B8"/>
<path d="M31.1587 12.515H30.7141V12.0704C30.7141 11.7478 30.4526 11.4863 30.1301 11.4863C29.8075 11.4863 29.546 11.7478 29.546 12.0704V12.515H29.1015C28.7789 12.515 28.5174 12.7765 28.5174 13.0991C28.5174 13.4216 28.7789 13.6831 29.1015 13.6831H29.546V14.1277C29.546 14.4502 29.8075 14.7117 30.1301 14.7117C30.4526 14.7117 30.7141 14.4502 30.7141 14.1277V13.6831H31.1587C31.4812 13.6831 31.7427 13.4216 31.7427 13.0991C31.7427 12.7765 31.4812 12.515 31.1587 12.515Z" fill="#B8B8B8"/>
<path d="M47.2355 48.0023L45.5286 38.0089C45.3434 36.925 44.5744 36.0543 43.5217 35.7368L35.8591 33.4248C35.5211 33.3228 35.1704 33.3672 34.8791 33.5262C34.6068 33.2837 34.4082 32.869 34.4082 32.485V30.5722C34.428 30.5552 34.4478 30.5381 34.4675 30.5212C34.497 30.4958 34.5283 30.4684 34.5605 30.4399H35.311C36.3528 30.4399 37.3192 30.0216 38.0322 29.262C38.7452 28.5025 39.1017 27.5117 39.0358 26.472L38.8278 23.1859V23.1367C38.8278 23.047 38.821 22.959 38.808 22.8728L38.575 19.1926C38.5546 18.8707 38.2763 18.6264 37.9553 18.6465C37.6333 18.6669 37.3888 18.9444 37.4092 19.2664L37.547 21.4438C37.3947 21.4007 37.2342 21.377 37.0681 21.377H37.0356C36.8639 21.1166 36.5792 20.9368 36.2442 20.9066C30.1812 20.361 28.4357 18.5504 27.161 17.2282C26.8961 16.9534 26.4615 16.9324 25.8696 17.1658C24.8406 17.5713 23.089 18.8819 23.0507 21.2222C23.0507 21.2254 23.0506 21.2286 23.0506 21.2318V21.3827C22.9345 21.3919 22.8217 21.4129 22.7129 21.4437L22.8931 18.5977C22.989 17.0837 23.7511 15.7341 24.967 14.8758L25.0112 14.9913C25.3044 15.7575 26.0526 16.2722 26.873 16.2722H33.5395C34.3598 16.2722 35.108 15.7575 35.4013 14.9913L35.4115 14.9646C36.0426 15.4401 36.5493 16.0569 36.8943 16.7778C36.9947 16.9874 37.2037 17.1098 37.4216 17.1098C37.5061 17.1098 37.592 17.0913 37.6733 17.0524C37.9643 16.9132 38.0873 16.5644 37.948 16.2734C37.4727 15.2805 36.7502 14.447 35.8427 13.8377L36.2449 12.7867C36.3978 12.3872 36.3673 11.943 36.1613 11.5682C35.9552 11.1934 35.5967 10.9296 35.1776 10.8445L31.8254 10.1637C30.7509 9.94543 29.6615 9.94543 28.587 10.1637L25.2349 10.8443C24.8158 10.9294 24.4572 11.1932 24.2511 11.5681C24.0451 11.943 24.0146 12.3871 24.1676 12.7866L24.539 13.757C22.8922 14.8047 21.8522 16.5511 21.7273 18.5238L21.4505 22.896C21.4397 22.9748 21.4322 23.0547 21.4322 23.1365V23.1857L21.2242 26.4717C21.1583 27.5113 21.5148 28.5023 22.2278 29.2618C22.9408 30.0213 23.9072 30.4396 24.949 30.4396H25.6995C25.7317 30.4681 25.763 30.4956 25.7925 30.521C25.8122 30.5379 25.832 30.5549 25.8518 30.572V32.4848C25.8518 32.8688 25.6532 33.2835 25.3808 33.526C25.0896 33.367 24.7388 33.3225 24.401 33.4245L16.7383 35.7365C15.6857 36.0541 14.9167 36.9248 14.7314 38.0086L14.0903 41.7626C14.036 42.0806 14.2497 42.3824 14.5677 42.4367C14.8853 42.4915 15.1875 42.2773 15.2417 41.9593L15.8829 38.2053C15.993 37.5611 16.45 37.0436 17.0757 36.8549L24.7384 34.5428C24.7886 34.5277 24.8419 34.5507 24.8656 34.5972C24.8656 34.5973 24.8658 34.5975 24.8658 34.5975L28.5243 41.8255C28.6205 42.0158 28.7469 42.1835 28.8958 42.3241C29.2234 42.6337 29.6608 42.8123 30.1298 42.8123C30.4284 42.8123 30.714 42.74 30.9667 42.6076C31.2916 42.4373 31.5621 42.1679 31.7355 41.8254L35.3942 34.5972C35.4177 34.5505 35.4712 34.5273 35.5214 34.5428L43.1841 36.8548C43.8098 37.0436 44.2668 37.5611 44.3768 38.2052L46.0838 48.1986C46.1207 48.4146 46.0245 48.5674 45.9638 48.6393C45.9031 48.7112 45.7687 48.8318 45.5496 48.8318H41.9313L40.9767 43.2433C40.9224 42.9254 40.6208 42.7114 40.3026 42.7659C39.9846 42.8202 39.7709 43.122 39.8252 43.44L40.7462 48.8317H19.5137L20.4347 43.44C20.489 43.122 20.2753 42.8202 19.9573 42.7659C19.6395 42.7115 19.3375 42.9253 19.2832 43.2433L18.3286 48.8318H14.7103C14.4911 48.8318 14.3567 48.7112 14.296 48.6393C14.2354 48.5674 14.1392 48.4145 14.176 48.1986L14.7703 44.7197C14.8246 44.4018 14.6108 44.1 14.2928 44.0457C13.975 43.9912 13.6731 44.2051 13.6188 44.5231L13.0246 48.0019C12.9396 48.4998 13.0775 49.0067 13.4031 49.3927C13.7288 49.7786 14.2052 50 14.7103 50C14.7109 50 14.7103 50 14.7109 50H45.5499C46.0549 50 46.5313 49.7786 46.857 49.3927C47.1825 49.007 47.3206 48.5001 47.2355 48.0023ZM25.2751 12.1309C25.2987 12.0879 25.3552 12.0122 25.4675 11.9893L28.8196 11.3086C29.2798 11.2153 29.743 11.1686 30.2063 11.1686C30.6695 11.1686 31.133 11.2153 31.593 11.3086L34.9452 11.9893C34.9452 11.9893 34.9452 11.9893 34.9452 11.9894C35.0574 12.0122 35.1139 12.0879 35.1376 12.1309C35.1613 12.174 35.1949 12.2622 35.154 12.3693L34.3103 14.5738C34.1889 14.891 33.8791 15.1041 33.5395 15.1041H26.8731C26.5335 15.1041 26.2237 14.891 26.1023 14.5738L25.2587 12.3693C25.2177 12.2623 25.2514 12.174 25.2751 12.1309ZM37.87 26.5458C37.9152 27.2601 37.6703 27.9407 37.1805 28.4625C36.7827 28.8863 36.2702 29.1554 35.7083 29.2416C36.3505 28.4466 36.981 27.3961 37.159 26.1968C37.4012 26.1845 37.63 26.1219 37.8368 26.0209L37.87 26.5458ZM23.0796 28.4625C22.5897 27.9407 22.3449 27.26 22.39 26.5458L22.4233 26.021C22.6301 26.122 22.8589 26.1845 23.1011 26.1969C23.279 27.3961 23.9096 28.4466 24.5518 29.2417C23.9899 29.1554 23.4773 28.8863 23.0796 28.4625ZM30.7666 41.1534L30.6934 41.2982C30.683 41.3187 30.6708 41.3378 30.6587 41.3567C30.6548 41.3627 30.6516 41.3694 30.6477 41.3753C30.6403 41.386 30.6316 41.3952 30.6237 41.4054C30.5957 41.4412 30.5652 41.4747 30.5309 41.503C30.5237 41.509 30.5156 41.5137 30.5082 41.5194C30.402 41.5992 30.2719 41.6444 30.13 41.6444C29.887 41.6444 29.6764 41.515 29.5666 41.2983L27.141 36.5058H33.1191L30.7666 41.1534ZM33.7104 35.3376H26.5497L26.0985 34.4462C26.6489 33.9858 27.0201 33.2342 27.0201 32.4849V31.4771C27.7847 31.9689 28.7415 32.3503 30.1236 32.3657C30.1258 32.3657 30.1279 32.3657 30.1301 32.3657C30.1323 32.3657 30.1344 32.3657 30.1366 32.3657C31.5187 32.3503 32.4755 31.9689 33.2401 31.4772V32.485C33.2401 33.2343 33.6112 33.9859 34.1616 34.4463L33.7104 35.3376ZM33.7053 29.636C32.6252 30.5661 31.7925 31.1774 30.1301 31.1975C28.4677 31.1774 27.635 30.566 26.5548 29.636C25.1209 28.4013 24.2483 26.8935 24.2205 25.6025C24.2137 25.2849 23.9543 25.0309 23.6366 25.0309H23.192C22.8658 25.0309 22.6005 24.7656 22.6005 24.4395V23.1367C22.6005 23.1095 22.603 23.0829 22.6066 23.0566C22.6083 23.0477 22.6095 23.0387 22.6108 23.0297C22.6613 22.7545 22.9025 22.5452 23.1921 22.5452H23.6349C23.9575 22.5452 24.219 22.2837 24.219 21.9612V21.2369C24.254 19.2599 25.9366 18.3361 26.4695 18.1927C28.1824 19.9401 30.2876 21.5291 36.05 22.062C36.0977 22.3365 36.3372 22.5452 36.6254 22.5452H37.0682C37.3578 22.5452 37.5989 22.7545 37.6495 23.0297C37.6508 23.0388 37.652 23.0477 37.6537 23.0566C37.6573 23.0828 37.6598 23.1095 37.6598 23.1367V24.4395C37.6598 24.7656 37.3945 25.0309 37.0683 25.0309H36.6237C36.306 25.0309 36.0466 25.2849 36.0398 25.6025C36.0119 26.8934 35.1392 28.4013 33.7053 29.636Z" fill="#B8B8B8"/>
</svg>
