<svg width="24" height="24" viewBox="0 0 24 24" fill="none" xmlns="http://www.w3.org/2000/svg">
<path d="M17.6902 12.3276H16.4528C16.5789 12.6729 16.6478 13.0456 16.6478 13.434V18.1106C16.6478 18.2725 16.6197 18.428 16.5684 18.5725H18.614C19.3782 18.5725 19.9998 17.9508 19.9998 17.1867V14.6373C19.9999 13.3638 18.9637 12.3276 17.6902 12.3276Z" fill="black"/>
<path d="M7.35204 13.434C7.35204 13.0456 7.42094 12.6729 7.54707 12.3276H6.30969C5.03613 12.3276 4 13.3638 4 14.6373V17.1867C4 17.9509 4.62166 18.5726 5.38582 18.5726H7.43151C7.38023 18.4279 7.35204 18.2725 7.35204 18.1106V13.434Z" fill="black"/>
<path d="M13.4143 11.1245H10.5855C9.31194 11.1245 8.27582 12.1606 8.27582 13.4342V18.1108C8.27582 18.3659 8.48263 18.5727 8.73776 18.5727H15.2621C15.5172 18.5727 15.724 18.3659 15.724 18.1108V13.4342C15.724 12.1606 14.6879 11.1245 13.4143 11.1245Z" fill="black"/>
<path d="M12.0002 5C10.4686 5 9.22255 6.24606 9.22255 7.77772C9.22255 8.81663 9.79596 9.72398 10.6428 10.2004C11.0444 10.4263 11.5075 10.5554 12.0002 10.5554C12.493 10.5554 12.956 10.4263 13.3577 10.2004C14.2045 9.72398 14.7779 8.8166 14.7779 7.77772C14.7779 6.2461 13.5319 5 12.0002 5Z" fill="black"/>
<path d="M7.12257 7.58936C5.9771 7.58936 5.04523 8.52123 5.04523 9.6667C5.04523 10.8122 5.9771 11.7441 7.12257 11.7441C7.41314 11.7441 7.68983 11.6839 7.94117 11.5757C8.37573 11.3886 8.73405 11.0574 8.95577 10.6425C9.11139 10.3514 9.19992 10.0192 9.19992 9.6667C9.19992 8.52126 8.26805 7.58936 7.12257 7.58936Z" fill="black"/>
<path d="M16.8776 7.58936C15.7322 7.58936 14.8003 8.52123 14.8003 9.6667C14.8003 10.0193 14.8888 10.3514 15.0445 10.6425C15.2662 11.0574 15.6245 11.3886 16.059 11.5757C16.3104 11.6839 16.5871 11.7441 16.8776 11.7441C18.0231 11.7441 18.955 10.8122 18.955 9.6667C18.955 8.52123 18.0231 7.58936 16.8776 7.58936Z" fill="black"/>
</svg>
