<svg width="24" height="24" viewBox="0 0 24 24" fill="none" xmlns="http://www.w3.org/2000/svg">
<path d="M14.5006 7.5005C14.3726 7.5005 14.2446 7.45183 14.1473 7.35383L12.0006 5.20783L9.85392 7.35383C9.65859 7.54917 9.34192 7.54917 9.14659 7.35383C8.95126 7.1585 8.95126 6.84183 9.14659 6.6465L11.6466 4.1465C11.8419 3.95117 12.1586 3.95117 12.3539 4.1465L14.8539 6.6465C15.0493 6.84183 15.0493 7.1585 14.8539 7.35383C14.7566 7.45183 14.6286 7.5005 14.5006 7.5005Z" fill="black"/>
<path d="M12.0005 12.0005C11.7245 12.0005 11.5005 11.7765 11.5005 11.5005V4.50049C11.5005 4.22449 11.7245 4.00049 12.0005 4.00049C12.2765 4.00049 12.5005 4.22449 12.5005 4.50049V11.5005C12.5005 11.7765 12.2765 12.0005 12.0005 12.0005Z" fill="black"/>
<path d="M18.5005 20.0001H5.50047C4.67381 20.0001 4.00047 19.3268 4.00047 18.5001V10.8335C4.00047 10.0068 4.67381 9.3335 5.50047 9.3335H10.1671C10.4431 9.3335 10.6671 9.5575 10.6671 9.83349C10.6671 10.1095 10.4431 10.3335 10.1671 10.3335H5.50047C5.22514 10.3335 5.00047 10.5582 5.00047 10.8335V18.5001C5.00047 18.7755 5.22514 19.0001 5.50047 19.0001H18.5005C18.7758 19.0001 19.0005 18.7755 19.0005 18.5001V10.8335C19.0005 10.5582 18.7758 10.3335 18.5005 10.3335H13.8338C13.5578 10.3335 13.3338 10.1095 13.3338 9.83349C13.3338 9.5575 13.5578 9.3335 13.8338 9.3335H18.5005C19.3271 9.3335 20.0005 10.0068 20.0005 10.8335V18.5001C20.0005 19.3268 19.3271 20.0001 18.5005 20.0001Z" fill="black"/>
<path d="M11.9996 15.9978C11.7076 15.9978 11.4163 15.9285 11.1503 15.7905L4.26825 12.1972C4.02425 12.0692 3.92892 11.7665 4.05692 11.5218C4.18425 11.2785 4.48558 11.1818 4.73225 11.3105L11.6123 14.9038C11.8549 15.0305 12.1469 15.0292 12.3896 14.9032L19.2683 11.3105C19.5149 11.1825 19.8156 11.2785 19.9436 11.5218C20.0709 11.7665 19.9763 12.0685 19.7323 12.1972L12.8523 15.7905C12.5849 15.9285 12.2923 15.9978 11.9996 15.9978Z" fill="black"/>
</svg>
