<svg width="24" height="24" viewBox="0 0 24 24" fill="none" xmlns="http://www.w3.org/2000/svg">
<path d="M18.754 2H16.9083V7.82736C16.9083 8.23678 16.4645 8.43921 16.1207 7.92517L14.9016 6.10554L13.6824 7.92517C13.3362 8.43694 12.8948 8.23678 12.8948 7.82736V2H6.70649C5.21055 2.00375 4 3.13607 4 4.53156V19.4753C4.00402 20.8681 5.21341 21.9962 6.70649 22H18.7565C19.086 21.9995 19.4018 21.8768 19.6343 21.6588C19.8679 21.442 19.9995 21.1474 20 20.84V3.16229C19.9987 2.52087 19.4416 2.00125 18.754 2ZM18.9857 18.9976L7.22828 19.0113C6.97202 19.0277 6.76812 19.218 6.75044 19.457C6.73087 19.7214 6.94483 19.9506 7.22828 19.9688H18.9857L18.9832 20.8514C18.9834 20.904 18.9615 20.9546 18.9223 20.9924C18.8817 21.0289 18.8275 21.0494 18.7711 21.0492H6.70649C5.78068 21.0492 5.03017 20.3491 5.03017 19.4855C5.03017 18.6219 5.78068 17.9218 6.70649 17.9218H18.7711C18.8891 17.923 18.9843 18.0119 18.9857 18.1219V18.9976Z" fill="black"/>
</svg>
