<svg width="16" height="16" viewBox="0 0 16 16" fill="none" xmlns="http://www.w3.org/2000/svg">
<path d="M7.99996 2.66669C5.05463 2.66669 2.66663 5.05469 2.66663 8.00002C2.66663 10.9454 5.05463 13.3334 7.99996 13.3334C10.9453 13.3334 13.3333 10.9454 13.3333 8.00002C13.3333 5.05469 10.9453 2.66669 7.99996 2.66669ZM7.99996 11.4045C7.58307 11.4045 7.29774 11.0831 7.29774 10.6667C7.29774 10.2382 7.59507 9.92891 7.99996 9.92891C8.42796 9.92891 8.70218 10.2382 8.70218 10.6667C8.70218 11.0836 8.42796 11.4045 7.99996 11.4045ZM8.2764 8.58713C8.17018 8.94935 7.83551 8.95558 7.72396 8.58713C7.59551 8.16224 7.13907 6.54935 7.13907 5.5018C7.13907 4.11958 8.8684 4.11291 8.8684 5.5018C8.86796 6.55558 8.38707 8.21024 8.2764 8.58713Z" fill="white"/>
</svg>
