<svg width="52" height="52" viewBox="0 0 52 52" fill="none" xmlns="http://www.w3.org/2000/svg">
<path d="M25.3005 27.2367L20.8641 25.9058V24.1088C22.5036 22.8948 23.6129 21.0033 23.7703 18.8507C24.6268 18.5929 25.2524 17.7969 25.2524 16.8576C25.2524 16.2495 24.9791 15.6732 24.521 15.2815V11.0064C24.521 9.83439 23.9274 8.73808 22.9546 8.08111C22.6293 6.85913 21.5332 6 20.2459 6H14.3948C11.2309 6 8.65696 8.57392 8.65696 11.7378V15.2815C8.19884 15.6732 7.92557 16.2495 7.92557 16.8576C7.92557 17.7969 8.55123 18.5929 9.40763 18.8507C9.56512 21.0033 10.6743 22.8948 12.3139 24.1088V25.9058L7.00414 27.4987C5.8054 27.8583 5 28.9408 5 30.1924V37.3365C5 37.6779 5.27673 37.9546 5.61808 37.9546H5.73139V45.3818C5.73139 45.7232 6.00813 45.9999 6.34947 45.9999C6.69081 45.9999 6.96755 45.7232 6.96755 45.3818V37.9546H9.38835V45.3818C9.38835 45.7232 9.66508 45.9999 10.0064 45.9999C10.3478 45.9999 10.6245 45.7232 10.6245 45.3818V33.6796C10.6245 33.5836 10.6022 33.4889 10.5592 33.4032L9.09645 30.4776C8.94383 30.1723 8.57265 30.0485 8.26724 30.2012C7.96191 30.3538 7.83813 30.7251 7.99084 31.0304L9.38835 33.8255V36.7184H6.34947H6.23615V30.1924C6.23615 29.491 6.6876 28.8843 7.35941 28.6827L9.57896 28.0168C10.3335 31.223 13.2373 33.5662 16.589 33.5662C18.3123 33.5662 19.9798 32.9478 21.2843 31.825C22.4428 30.8278 23.251 29.4898 23.5976 28.0163L24.9452 28.4207C25.0044 28.4385 25.0642 28.4469 25.123 28.4469C25.3889 28.4469 25.6345 28.274 25.7148 28.0063C25.8129 27.6793 25.6274 27.3348 25.3005 27.2367ZM10.6245 18.3203C10.6245 17.979 10.3478 17.7023 10.0064 17.7023C9.54064 17.7023 9.16172 17.3233 9.16172 16.8576C9.16172 16.5577 9.32028 16.2865 9.58589 16.1319C9.59957 16.1239 9.61201 16.1145 9.62495 16.1056C9.74255 16.0458 9.873 16.0129 10.0064 16.0129H10.942C11.5238 16.0129 12.0383 15.642 12.2223 15.0901L12.6481 13.8127C14.1011 13.7807 18.6805 13.5773 21.2537 12.2906C21.559 12.138 21.6828 11.7667 21.5301 11.4614C21.3775 11.1561 21.0063 11.0323 20.7009 11.185C17.9409 12.565 12.2576 12.5825 12.2005 12.5825C11.9345 12.5826 11.6983 12.7528 11.6143 13.0051L11.0496 14.6992C11.0341 14.7455 10.991 14.7767 10.942 14.7767H10.0064C9.9686 14.7767 9.93086 14.7783 9.89311 14.7804V11.7378C9.89311 9.25562 11.9126 7.23615 14.3948 7.23615H20.2459C21.0212 7.23615 21.6727 7.7949 21.7949 8.56469C21.8245 8.75094 21.9375 8.91353 22.1017 9.00616C22.8314 9.41772 23.2847 10.1841 23.2847 11.0064V15.5977C23.2847 15.8177 23.4017 16.0212 23.5919 16.1319C23.8575 16.2865 24.0161 16.5577 24.0161 16.8576C24.0161 17.3233 23.6372 17.7023 23.1714 17.7023C22.83 17.7023 22.5533 17.979 22.5533 18.3203C22.5533 21.6092 19.8777 24.2848 16.5889 24.2848C13.3 24.2848 10.6245 21.6091 10.6245 18.3203ZM19.6278 24.8467V26.3657C19.6278 28.0413 18.2646 29.4045 16.589 29.4045C14.9159 29.4045 13.5546 28.0456 13.5502 26.3736C13.5502 26.3706 13.5501 26.3676 13.5501 26.3647V24.8467C14.474 25.2786 15.5035 25.5209 16.589 25.5209C17.6744 25.5209 18.7039 25.2787 19.6278 24.8467ZM20.4777 30.8882C19.3975 31.818 18.0164 32.3301 16.589 32.3301C13.787 32.3301 11.3641 30.3533 10.7667 27.6606L12.3915 27.1732C12.7701 29.1455 14.5078 30.6407 16.589 30.6407C18.6701 30.6407 20.4078 29.1455 20.7864 27.1731L22.4111 27.6606C22.1341 28.9092 21.457 30.0454 20.4777 30.8882Z" fill="#B8B8B8"/>
<path d="M18.4411 20.0346C18.176 19.8195 17.7868 19.8601 17.5718 20.1252C17.3089 20.4494 16.9599 20.6279 16.5891 20.6279C16.2182 20.6279 15.8692 20.4494 15.6063 20.1252C15.3914 19.8601 15.0021 19.8196 14.737 20.0346C14.4718 20.2496 14.4313 20.6388 14.6463 20.9039C15.1411 21.514 15.8492 21.864 16.589 21.864C17.3288 21.864 18.0368 21.514 18.5318 20.9039C18.7468 20.6387 18.7063 20.2496 18.4411 20.0346Z" fill="#B8B8B8"/>
<path d="M13.6629 16.2393C13.3216 16.2393 13.0449 16.516 13.0449 16.8573V17.5887C13.0449 17.9301 13.3216 18.2068 13.6629 18.2068C14.0043 18.2068 14.281 17.9301 14.281 17.5887V16.8573C14.281 16.5161 14.0043 16.2393 13.6629 16.2393Z" fill="#B8B8B8"/>
<path d="M19.5143 16.2393C19.173 16.2393 18.8962 16.516 18.8962 16.8573V17.5887C18.8962 17.9301 19.173 18.2068 19.5143 18.2068C19.8557 18.2068 20.1324 17.9301 20.1324 17.5887V16.8573C20.1324 16.5161 19.8557 16.2393 19.5143 16.2393Z" fill="#B8B8B8"/>
<path d="M38.1887 23.6913C37.9236 23.4762 37.5344 23.5169 37.3194 23.782C37.0565 24.1062 36.7075 24.2847 36.3366 24.2847C35.9658 24.2847 35.6168 24.1062 35.3539 23.782C35.1389 23.5169 34.7496 23.4763 34.4845 23.6913C34.2194 23.9063 34.1789 24.2956 34.3939 24.5607C34.8887 25.1708 35.5969 25.5208 36.3367 25.5208C37.0765 25.5208 37.7844 25.1708 38.2794 24.5607C38.4944 24.2956 38.4538 23.9063 38.1887 23.6913Z" fill="#B8B8B8"/>
<path d="M33.4126 19.8965C33.0712 19.8965 32.7945 20.1732 32.7945 20.5146V21.246C32.7945 21.5873 33.0712 21.864 33.4126 21.864C33.7539 21.864 34.0306 21.5873 34.0306 21.246V20.5146C34.0306 20.1731 33.7539 19.8965 33.4126 19.8965Z" fill="#B8B8B8"/>
<path d="M39.2619 19.8965C38.9205 19.8965 38.6438 20.1732 38.6438 20.5146V21.246C38.6438 21.5873 38.9205 21.864 39.2619 21.864C39.6032 21.864 39.88 21.5873 39.88 21.246V20.5146C39.88 20.1733 39.6032 19.8965 39.2619 19.8965Z" fill="#B8B8B8"/>
<path d="M45.427 32.5538L40.4118 30.5477C40.3692 30.5306 40.3287 30.5103 40.2903 30.4873C43.687 29.8033 45.2778 29.1604 45.3482 29.1316C45.6065 29.0257 45.7618 28.7599 45.7272 28.4829C45.7199 28.4247 45.0006 22.6118 45.0006 17.5887C45.0006 12.8117 41.1142 8.92529 36.3372 8.92529C31.5602 8.92529 27.6738 12.8118 27.6738 17.5888C27.6738 22.6096 26.9545 28.4249 26.9472 28.4831C26.9126 28.7601 27.0679 29.0258 27.3262 29.1317C27.3966 29.1606 28.9874 29.8034 32.3841 30.4875C32.3457 30.5104 32.3052 30.5308 32.2626 30.5479L27.2475 32.5539C26.1736 32.9834 25.4797 34.0084 25.4797 35.165V36.7183H23.7902V33.8254L25.1877 31.0303C25.3405 30.725 25.2167 30.3537 24.9113 30.2011C24.606 30.0484 24.2348 30.1722 24.0821 30.4775L22.6193 33.403C22.5764 33.4889 22.5541 33.5834 22.5541 33.6795V45.3817C22.5541 45.7231 22.8308 45.9998 23.1722 45.9998C23.5135 45.9998 23.7902 45.7231 23.7902 45.3817V37.9545H25.4796V38.7995C25.4796 38.9635 25.5448 39.1208 25.6608 39.2367C25.7766 39.3526 25.9338 39.4176 26.0977 39.4176C26.0978 39.4176 26.0979 39.4176 26.098 39.4176H26.211V45.3817C26.211 45.7231 26.4878 45.9998 26.8291 45.9998C27.1705 45.9998 27.4472 45.7231 27.4472 45.3817V39.4173H29.1366V45.3817C29.1366 45.7231 29.4133 45.9998 29.7547 45.9998C30.096 45.9998 30.3728 45.7231 30.3728 45.3817V37.3364C30.3728 36.9951 30.096 36.7183 29.7547 36.7183C29.4133 36.7183 29.1366 36.9951 29.1366 37.3364V38.1811H26.7158V35.1649C26.7158 34.5167 27.1047 33.9423 27.7065 33.7015L30.172 32.7153C31.0191 35.3866 33.5041 37.223 36.3372 37.223C39.1703 37.223 41.6553 35.3865 42.5024 32.7153L44.9679 33.7015C45.5697 33.9423 45.9586 34.5167 45.9586 35.1649V38.1811H43.5378V37.3364C43.5378 36.9951 43.2611 36.7183 42.9197 36.7183C42.5784 36.7183 42.3016 36.9951 42.3016 37.3364V45.3817C42.3016 45.7231 42.5784 45.9998 42.9197 45.9998C43.2611 45.9998 43.5378 45.7231 43.5378 45.3817V39.4173H45.2272V45.3817C45.2272 45.7231 45.5039 45.9998 45.8453 45.9998C46.1866 45.9998 46.4634 45.7231 46.4634 45.3817V39.4173H46.5767C46.918 39.4173 47.1948 39.1405 47.1948 38.7992V35.1649C47.1948 34.0083 46.5009 32.9834 45.427 32.5538ZM28.9099 17.5888C28.91 13.4933 32.2418 10.1615 36.3372 10.1615C40.4326 10.1615 43.7644 13.4934 43.7644 17.5888C43.7644 21.8321 44.2691 26.6228 44.4427 28.1454C43.758 28.378 42.2595 28.8364 39.8808 29.3085V28.2444C40.224 28.0507 40.5522 27.8291 40.8607 27.5798C42.1166 26.5647 43.0039 25.1431 43.3593 23.5769C43.4777 23.055 43.5378 22.5167 43.5378 21.9771C43.5378 18.377 40.9301 17.8593 38.4083 17.3587C36.7956 17.0385 35.1279 16.7074 33.7977 15.6433C33.6523 15.5269 33.4617 15.4827 33.2797 15.5225C33.0977 15.5622 32.943 15.6823 32.8592 15.8487C32.8557 15.8556 32.5094 16.5373 31.9237 17.2011C31.4277 17.7633 30.6487 18.4335 29.7546 18.4335C29.4503 18.4335 29.1613 18.4996 28.9006 18.6176C28.9066 18.2725 28.9099 17.9289 28.9099 17.5888ZM36.3372 27.9416C34.9572 27.9416 33.6617 27.484 32.5907 26.6184C31.55 25.7771 30.8148 24.5998 30.5205 23.3033C30.4224 22.871 30.3728 22.4248 30.3728 21.9771C30.3728 21.6358 30.096 21.359 29.7547 21.359C29.2889 21.359 28.91 20.9801 28.91 20.5143C28.91 20.0485 29.2889 19.6696 29.7547 19.6696C31.6289 19.6696 32.9884 17.9725 33.6022 17.0229C35.0437 17.951 36.6923 18.2783 38.1676 18.5713C40.8841 19.1105 42.3016 19.5069 42.3016 21.9772C42.3016 22.4249 42.2519 22.8711 42.1539 23.3033C41.8597 24.5999 41.1244 25.7772 40.0837 26.6185C39.0127 27.4841 37.7172 27.9416 36.3372 27.9416ZM28.2317 28.1454C28.341 27.1863 28.5817 24.9304 28.7449 22.3317C28.8744 22.4039 29.0115 22.4639 29.156 22.5074C29.1823 22.8682 29.2355 23.2262 29.3151 23.5769C29.6705 25.1431 30.5579 26.5647 31.8137 27.5798C32.1222 27.8291 32.4504 28.0507 32.7936 28.2444V29.3085C30.4145 28.8364 28.916 28.3779 28.2317 28.1454ZM36.3372 35.9869C34.0149 35.9869 31.9812 34.4623 31.3229 32.2551L32.7216 31.6956C33.5162 31.3777 34.0297 30.6194 34.0297 29.7636V28.7957C34.7689 29.0457 35.5487 29.1779 36.3372 29.1779C37.1257 29.1779 37.9055 29.0457 38.6447 28.7957V29.7636C38.6447 30.6194 39.1581 31.3777 39.9527 31.6956L41.3515 32.2552C40.6932 34.4621 38.6596 35.9869 36.3372 35.9869Z" fill="#B8B8B8"/>
</svg>
