<svg width="60" height="60" viewBox="0 0 60 60" fill="none" xmlns="http://www.w3.org/2000/svg">
<rect x="0.5" y="0.5" width="59" height="59" rx="7.5" fill="white" stroke="#B8B8B8"/>
<path d="M29.3005 31.2367L24.8641 29.9058V28.1088C26.5036 26.8948 27.6129 25.0033 27.7703 22.8507C28.6268 22.5929 29.2524 21.7969 29.2524 20.8576C29.2524 20.2495 28.9791 19.6732 28.521 19.2815V15.0064C28.521 13.8344 27.9274 12.7381 26.9546 12.0811C26.6293 10.8591 25.5332 10 24.2459 10H18.3948C15.2309 10 12.657 12.5739 12.657 15.7378V19.2815C12.1988 19.6732 11.9256 20.2495 11.9256 20.8576C11.9256 21.7969 12.5512 22.5929 13.4076 22.8507C13.5651 25.0033 14.6743 26.8948 16.3139 28.1088V29.9058L11.0041 31.4987C9.8054 31.8583 9 32.9408 9 34.1924V41.3365C9 41.6779 9.27673 41.9546 9.61808 41.9546H9.73139V49.3818C9.73139 49.7232 10.0081 49.9999 10.3495 49.9999C10.6908 49.9999 10.9675 49.7232 10.9675 49.3818V41.9546H13.3883V49.3818C13.3883 49.7232 13.6651 49.9999 14.0064 49.9999C14.3478 49.9999 14.6245 49.7232 14.6245 49.3818V37.6796C14.6245 37.5836 14.6022 37.4889 14.5592 37.4032L13.0965 34.4776C12.9438 34.1723 12.5727 34.0485 12.2672 34.2012C11.9619 34.3538 11.8381 34.7251 11.9908 35.0304L13.3883 37.8255V40.7184H10.3495H10.2362V34.1924C10.2362 33.491 10.6876 32.8843 11.3594 32.6827L13.579 32.0168C14.3335 35.223 17.2373 37.5662 20.589 37.5662C22.3123 37.5662 23.9798 36.9478 25.2843 35.825C26.4428 34.8278 27.251 33.4898 27.5976 32.0163L28.9452 32.4207C29.0044 32.4385 29.0642 32.4469 29.123 32.4469C29.3889 32.4469 29.6345 32.274 29.7148 32.0063C29.8129 31.6793 29.6274 31.3348 29.3005 31.2367ZM14.6245 22.3203C14.6245 21.979 14.3478 21.7023 14.0064 21.7023C13.5406 21.7023 13.1617 21.3233 13.1617 20.8576C13.1617 20.5577 13.3203 20.2865 13.5859 20.1319C13.5996 20.1239 13.612 20.1145 13.6249 20.1056C13.7425 20.0458 13.873 20.0129 14.0064 20.0129H14.942C15.5238 20.0129 16.0383 19.642 16.2223 19.0901L16.6481 17.8127C18.1011 17.7807 22.6805 17.5773 25.2537 16.2906C25.559 16.138 25.6828 15.7667 25.5301 15.4614C25.3775 15.1561 25.0063 15.0323 24.7009 15.185C21.9409 16.565 16.2576 16.5825 16.2005 16.5825C15.9345 16.5826 15.6983 16.7528 15.6143 17.0051L15.0496 18.6992C15.0341 18.7455 14.991 18.7767 14.942 18.7767H14.0064C13.9686 18.7767 13.9309 18.7783 13.8931 18.7804V15.7378C13.8931 13.2556 15.9126 11.2362 18.3948 11.2362H24.2459C25.0212 11.2362 25.6727 11.7949 25.7949 12.5647C25.8245 12.7509 25.9375 12.9135 26.1017 13.0062C26.8314 13.4177 27.2847 14.1841 27.2847 15.0064V19.5977C27.2847 19.8177 27.4017 20.0212 27.5919 20.1319C27.8575 20.2865 28.0161 20.5577 28.0161 20.8576C28.0161 21.3233 27.6372 21.7023 27.1714 21.7023C26.83 21.7023 26.5533 21.979 26.5533 22.3203C26.5533 25.6092 23.8777 28.2848 20.5889 28.2848C17.3 28.2848 14.6245 25.6091 14.6245 22.3203ZM23.6278 28.8467V30.3657C23.6278 32.0413 22.2646 33.4045 20.589 33.4045C18.9159 33.4045 17.5546 32.0456 17.5502 30.3736C17.5502 30.3706 17.5501 30.3676 17.5501 30.3647V28.8467C18.474 29.2786 19.5035 29.5209 20.589 29.5209C21.6744 29.5209 22.7039 29.2787 23.6278 28.8467ZM24.4777 34.8882C23.3975 35.818 22.0164 36.3301 20.589 36.3301C17.787 36.3301 15.3641 34.3533 14.7667 31.6606L16.3915 31.1732C16.7701 33.1455 18.5078 34.6407 20.589 34.6407C22.6701 34.6407 24.4078 33.1455 24.7864 31.1731L26.4111 31.6606C26.1341 32.9092 25.457 34.0454 24.4777 34.8882Z" fill="#B8B8B8"/>
<path d="M22.4411 24.0346C22.176 23.8195 21.7868 23.8601 21.5718 24.1252C21.3089 24.4494 20.9599 24.6279 20.5891 24.6279C20.2182 24.6279 19.8692 24.4494 19.6063 24.1252C19.3914 23.8601 19.0021 23.8196 18.737 24.0346C18.4718 24.2496 18.4313 24.6388 18.6463 24.9039C19.1411 25.514 19.8492 25.864 20.589 25.864C21.3288 25.864 22.0368 25.514 22.5318 24.9039C22.7468 24.6387 22.7063 24.2496 22.4411 24.0346Z" fill="#B8B8B8"/>
<path d="M17.6629 20.2393C17.3216 20.2393 17.0449 20.516 17.0449 20.8573V21.5887C17.0449 21.9301 17.3216 22.2068 17.6629 22.2068C18.0043 22.2068 18.281 21.9301 18.281 21.5887V20.8573C18.281 20.5161 18.0043 20.2393 17.6629 20.2393Z" fill="#B8B8B8"/>
<path d="M23.5143 20.2393C23.173 20.2393 22.8962 20.516 22.8962 20.8573V21.5887C22.8962 21.9301 23.173 22.2068 23.5143 22.2068C23.8557 22.2068 24.1324 21.9301 24.1324 21.5887V20.8573C24.1324 20.5161 23.8557 20.2393 23.5143 20.2393Z" fill="#B8B8B8"/>
<path d="M42.1887 27.6913C41.9236 27.4762 41.5344 27.5169 41.3194 27.782C41.0565 28.1062 40.7075 28.2847 40.3366 28.2847C39.9658 28.2847 39.6168 28.1062 39.3539 27.782C39.1389 27.5169 38.7496 27.4763 38.4845 27.6913C38.2194 27.9063 38.1789 28.2956 38.3939 28.5607C38.8887 29.1708 39.5969 29.5208 40.3367 29.5208C41.0765 29.5208 41.7844 29.1708 42.2794 28.5607C42.4944 28.2956 42.4538 27.9063 42.1887 27.6913Z" fill="#B8B8B8"/>
<path d="M37.4126 23.8965C37.0712 23.8965 36.7945 24.1732 36.7945 24.5146V25.246C36.7945 25.5873 37.0712 25.864 37.4126 25.864C37.7539 25.864 38.0306 25.5873 38.0306 25.246V24.5146C38.0306 24.1731 37.7539 23.8965 37.4126 23.8965Z" fill="#B8B8B8"/>
<path d="M43.2619 23.8965C42.9205 23.8965 42.6438 24.1732 42.6438 24.5146V25.246C42.6438 25.5873 42.9205 25.864 43.2619 25.864C43.6032 25.864 43.88 25.5873 43.88 25.246V24.5146C43.88 24.1733 43.6032 23.8965 43.2619 23.8965Z" fill="#B8B8B8"/>
<path d="M49.427 36.5538L44.4118 34.5477C44.3692 34.5306 44.3287 34.5103 44.2903 34.4873C47.687 33.8033 49.2778 33.1604 49.3482 33.1316C49.6065 33.0257 49.7618 32.7599 49.7272 32.4829C49.7199 32.4247 49.0006 26.6118 49.0006 21.5887C49.0006 16.8117 45.1142 12.9253 40.3372 12.9253C35.5602 12.9253 31.6738 16.8118 31.6738 21.5888C31.6738 26.6096 30.9545 32.4249 30.9472 32.4831C30.9126 32.7601 31.0679 33.0258 31.3262 33.1317C31.3966 33.1606 32.9874 33.8034 36.3841 34.4875C36.3457 34.5104 36.3052 34.5308 36.2626 34.5479L31.2475 36.5539C30.1736 36.9834 29.4797 38.0084 29.4797 39.165V40.7183H27.7902V37.8254L29.1877 35.0303C29.3405 34.725 29.2167 34.3537 28.9113 34.2011C28.606 34.0484 28.2348 34.1722 28.0821 34.4775L26.6193 37.403C26.5764 37.4889 26.5541 37.5834 26.5541 37.6795V49.3817C26.5541 49.7231 26.8308 49.9998 27.1722 49.9998C27.5135 49.9998 27.7902 49.7231 27.7902 49.3817V41.9545H29.4796V42.7995C29.4796 42.9635 29.5448 43.1208 29.6608 43.2367C29.7766 43.3526 29.9338 43.4176 30.0977 43.4176C30.0978 43.4176 30.0979 43.4176 30.098 43.4176H30.211V49.3817C30.211 49.7231 30.4878 49.9998 30.8291 49.9998C31.1705 49.9998 31.4472 49.7231 31.4472 49.3817V43.4173H33.1366V49.3817C33.1366 49.7231 33.4133 49.9998 33.7547 49.9998C34.096 49.9998 34.3728 49.7231 34.3728 49.3817V41.3364C34.3728 40.9951 34.096 40.7183 33.7547 40.7183C33.4133 40.7183 33.1366 40.9951 33.1366 41.3364V42.1811H30.7158V39.1649C30.7158 38.5167 31.1047 37.9423 31.7065 37.7015L34.172 36.7153C35.0191 39.3866 37.5041 41.223 40.3372 41.223C43.1703 41.223 45.6553 39.3865 46.5024 36.7153L48.9679 37.7015C49.5697 37.9423 49.9586 38.5167 49.9586 39.1649V42.1811H47.5378V41.3364C47.5378 40.9951 47.2611 40.7183 46.9197 40.7183C46.5784 40.7183 46.3016 40.9951 46.3016 41.3364V49.3817C46.3016 49.7231 46.5784 49.9998 46.9197 49.9998C47.2611 49.9998 47.5378 49.7231 47.5378 49.3817V43.4173H49.2272V49.3817C49.2272 49.7231 49.5039 49.9998 49.8453 49.9998C50.1866 49.9998 50.4634 49.7231 50.4634 49.3817V43.4173H50.5767C50.918 43.4173 51.1948 43.1405 51.1948 42.7992V39.1649C51.1948 38.0083 50.5009 36.9834 49.427 36.5538ZM32.9099 21.5888C32.91 17.4933 36.2418 14.1615 40.3372 14.1615C44.4326 14.1615 47.7644 17.4934 47.7644 21.5888C47.7644 25.8321 48.2691 30.6228 48.4427 32.1454C47.758 32.378 46.2595 32.8364 43.8808 33.3085V32.2444C44.224 32.0507 44.5522 31.8291 44.8607 31.5798C46.1166 30.5647 47.0039 29.1431 47.3593 27.5769C47.4777 27.055 47.5378 26.5167 47.5378 25.9771C47.5378 22.377 44.9301 21.8593 42.4083 21.3587C40.7956 21.0385 39.1279 20.7074 37.7977 19.6433C37.6523 19.5269 37.4617 19.4827 37.2797 19.5225C37.0977 19.5622 36.943 19.6823 36.8592 19.8487C36.8557 19.8556 36.5094 20.5373 35.9237 21.2011C35.4277 21.7633 34.6487 22.4335 33.7546 22.4335C33.4503 22.4335 33.1613 22.4996 32.9006 22.6176C32.9066 22.2725 32.9099 21.9289 32.9099 21.5888ZM40.3372 31.9416C38.9572 31.9416 37.6617 31.484 36.5907 30.6184C35.55 29.7771 34.8148 28.5998 34.5205 27.3033C34.4224 26.871 34.3728 26.4248 34.3728 25.9771C34.3728 25.6358 34.096 25.359 33.7547 25.359C33.2889 25.359 32.91 24.9801 32.91 24.5143C32.91 24.0485 33.2889 23.6696 33.7547 23.6696C35.6289 23.6696 36.9884 21.9725 37.6022 21.0229C39.0437 21.951 40.6923 22.2783 42.1676 22.5713C44.8841 23.1105 46.3016 23.5069 46.3016 25.9772C46.3016 26.4249 46.2519 26.8711 46.1539 27.3033C45.8597 28.5999 45.1244 29.7772 44.0837 30.6185C43.0127 31.4841 41.7172 31.9416 40.3372 31.9416ZM32.2317 32.1454C32.341 31.1863 32.5817 28.9304 32.7449 26.3317C32.8744 26.4039 33.0115 26.4639 33.156 26.5074C33.1823 26.8682 33.2355 27.2262 33.3151 27.5769C33.6705 29.1431 34.5579 30.5647 35.8137 31.5798C36.1222 31.8291 36.4504 32.0507 36.7936 32.2444V33.3085C34.4145 32.8364 32.916 32.3779 32.2317 32.1454ZM40.3372 39.9869C38.0149 39.9869 35.9812 38.4623 35.3229 36.2551L36.7216 35.6956C37.5162 35.3777 38.0297 34.6194 38.0297 33.7636V32.7957C38.7689 33.0457 39.5487 33.1779 40.3372 33.1779C41.1257 33.1779 41.9055 33.0457 42.6447 32.7957V33.7636C42.6447 34.6194 43.1581 35.3777 43.9527 35.6956L45.3515 36.2552C44.6932 38.4621 42.6596 39.9869 40.3372 39.9869Z" fill="#B8B8B8"/>
</svg>
