<svg width="24" height="24" viewBox="0 0 24 24" fill="none" xmlns="http://www.w3.org/2000/svg">
<path d="M18.7307 6.26807C17.9025 5.36975 16.766 4.875 15.5304 4.875C14.6068 4.875 13.761 5.16699 13.0164 5.7428C12.6406 6.03345 12.3002 6.38904 12 6.80408C11.7 6.38916 11.3594 6.03345 10.9835 5.7428C10.239 5.16699 9.39319 4.875 8.4696 4.875C7.23401 4.875 6.09741 5.36975 5.26917 6.26807C4.45081 7.15588 4 8.36877 4 9.68347C4 11.0366 4.50427 12.2753 5.58691 13.5817C6.55542 14.7502 7.94739 15.9365 9.55933 17.3102C10.1097 17.7793 10.7336 18.311 11.3815 18.8774C11.5526 19.0273 11.7722 19.1099 12 19.1099C12.2277 19.1099 12.4474 19.0273 12.6183 18.8777C13.2661 18.3112 13.8904 17.7792 14.441 17.3098C16.0527 15.9364 17.4447 14.7502 18.4132 13.5815C19.4958 12.2753 20 11.0366 20 9.68335C20 8.36877 19.5492 7.15588 18.7307 6.26807Z" fill="#1A1A1A"/>
</svg>
