<svg width="24" height="24" viewBox="0 0 24 24" fill="none" xmlns="http://www.w3.org/2000/svg">
<path d="M12 4C7.58886 4 4 7.58886 4 12C4 16.4112 7.58886 20 12 20C16.4112 20 20 16.4112 20 12C20 7.58886 16.4111 4 12 4ZM12.5204 16.7466C12.1403 16.81 11.384 16.9682 11 17C10.6749 17.027 10.3682 16.8409 10.1812 16.5738C9.99368 16.3067 9.94875 15.9649 10.0601 15.6582L11.5723 11.5H10C9.99865 10.6336 10.6486 9.99649 11.4798 9.75199C11.8765 9.63527 12.6155 9.47556 13 9.50004C13.2303 9.51469 13.6318 9.6592 13.8188 9.92632C14.0063 10.1934 14.0512 10.5352 13.9399 10.8418L12.4277 15H13.9995C13.9998 15.8655 13.3741 16.6043 12.5204 16.7466ZM13 9.00002C12.4477 9.00002 12 8.55225 12 8.00001C12 7.44771 12.4477 7 13 7C13.5523 7 14 7.44771 14 8.00001C14 8.55228 13.5523 9.00002 13 9.00002Z" fill="black"/>
</svg>
