<svg width="24" height="24" viewBox="0 0 24 24" fill="none" xmlns="http://www.w3.org/2000/svg">
<path d="M9.99994 11.9999C9.99994 10.8973 10.8973 9.99994 11.9999 9.99994H14.6666V4.66665C14.6666 4.29865 14.3686 4 13.9999 4H4.66665C4.298 4 4 4.29865 4 4.66665V19.3332C4 19.7012 4.298 19.9998 4.66665 19.9998H13.9999C14.3686 19.9998 14.6666 19.7012 14.6666 19.3332V14.6666V13.9999H11.9999C10.8973 13.9999 9.99994 13.1026 9.99994 11.9999Z" fill="black"/>
<path d="M19.8499 12.4212C19.8519 12.4187 19.8536 12.4161 19.8556 12.4136C19.867 12.3991 19.8781 12.3844 19.8883 12.369C19.8931 12.3618 19.8972 12.3543 19.9017 12.347C19.9084 12.336 19.9154 12.325 19.9214 12.3136C19.9265 12.3042 19.9307 12.2945 19.9352 12.285C19.9399 12.2751 19.9449 12.2653 19.9491 12.2551C19.9536 12.2442 19.9573 12.2331 19.9612 12.222C19.9645 12.2127 19.9681 12.2037 19.9709 12.1943C19.9749 12.1812 19.9779 12.168 19.9811 12.1548C19.9829 12.147 19.9852 12.1394 19.9868 12.1316C19.9904 12.1134 19.993 12.0951 19.9951 12.0768C19.9955 12.0737 19.9961 12.0706 19.9964 12.0674C20.001 12.0226 20.001 11.9774 19.9964 11.9326C19.9961 11.9294 19.9954 11.9263 19.9951 11.9232C19.993 11.9048 19.9904 11.8866 19.9868 11.8684C19.9852 11.8606 19.9829 11.853 19.9811 11.8452C19.9779 11.832 19.9749 11.8187 19.9709 11.8057C19.9681 11.7963 19.9645 11.7872 19.9612 11.778C19.9573 11.7669 19.9536 11.7557 19.9491 11.7448C19.9449 11.7347 19.9399 11.7249 19.9352 11.715C19.9307 11.7055 19.9265 11.6958 19.9214 11.6864C19.9153 11.675 19.9084 11.664 19.9017 11.653C19.8972 11.6457 19.8931 11.6382 19.8883 11.631C19.8781 11.6156 19.867 11.6009 19.8556 11.5864C19.8536 11.5839 19.8519 11.5813 19.8499 11.5788C19.8349 11.5604 19.8189 11.5428 19.802 11.5262L17.1379 8.86199C16.8772 8.60134 16.4559 8.60134 16.1952 8.86199C15.9346 9.12265 15.9346 9.54399 16.1952 9.80464L17.7239 11.3333H11.9999C11.6313 11.3333 11.3333 11.6319 11.3333 11.9999C11.3333 12.3679 11.6313 12.6666 11.9999 12.6666H17.7239L16.1952 14.1952C15.9346 14.4559 15.9346 14.8772 16.1952 15.1379C16.3252 15.2679 16.4959 15.3332 16.6666 15.3332C16.8372 15.3332 17.0079 15.2679 17.1379 15.1379L19.8021 12.4737C19.8189 12.4571 19.8349 12.4396 19.8499 12.4212Z" fill="black"/>
</svg>
