<svg width="24" height="24" viewBox="0 0 24 24" fill="none" xmlns="http://www.w3.org/2000/svg">
<rect width="24" height="24" fill="white"/>
<path d="M11.9093 4.78613C8.28738 4.78613 5.34082 7.7327 5.34082 11.3546V18.3309H6.6998V11.3546C6.6998 8.48219 9.0366 6.14512 11.9093 6.14512C14.7821 6.14512 17.1189 8.48215 17.1189 11.3546V18.3309H18.4779V11.3546C18.4779 7.7327 15.5313 4.78613 11.9093 4.78613Z" fill="#4137FF"/>
<path d="M19.2478 17.6514H4.75176C4.37645 17.6514 4.07227 17.9555 4.07227 18.3309C4.07227 18.7062 4.37645 19.0104 4.75176 19.0104H19.2478C19.6231 19.0104 19.9273 18.7062 19.9273 18.3309C19.9273 17.9555 19.6231 17.6514 19.2478 17.6514Z" fill="#4137FF"/>
<path d="M11.9095 2C10.7604 2 9.82568 2.93477 9.82568 4.08379C9.82568 5.23281 10.7604 6.16758 11.9095 6.16758C13.0585 6.16758 13.9933 5.23281 13.9933 4.08379C13.9933 2.93477 13.0585 2 11.9095 2ZM11.9095 4.80859C11.5165 4.80859 11.1847 4.47656 11.1847 4.08379C11.1847 3.69082 11.5165 3.35898 11.9095 3.35898C12.3024 3.35898 12.6343 3.69082 12.6343 4.08379C12.6343 4.47676 12.3024 4.80859 11.9095 4.80859Z" fill="#4137FF"/>
<path d="M13.0869 18.3311V19.5089C13.0869 20.1333 12.5789 20.6414 11.9544 20.6414C11.33 20.6414 10.8219 20.1333 10.8219 19.5089V18.3311H9.46289V19.5089C9.46289 20.8826 10.5807 22.0004 11.9544 22.0004C13.3281 22.0004 14.4459 20.8826 14.4459 19.5089V18.3311H13.0869Z" fill="#4137FF"/>
<circle cx="19" cy="8" r="4" fill="#FF002B"/>
</svg>
