<svg width="220" height="220" viewBox="0 0 220 220" fill="none" xmlns="http://www.w3.org/2000/svg">
<path opacity="0.2" d="M44.027 93.9202C44.1815 93.4698 44.8185 93.4698 44.973 93.9202L45.9282 96.7055C46.1361 97.3117 46.7062 97.7188 47.3471 97.7188H50.3185C50.8093 97.7188 51.0063 98.3524 50.6019 98.6307L48.2927 100.22C47.7384 100.602 47.506 101.306 47.7243 101.942L48.628 104.577C48.7844 105.033 48.2686 105.425 47.8716 105.151L45.3505 103.416C44.8383 103.064 44.1617 103.064 43.6495 103.416L41.1284 105.151C40.7314 105.425 40.2156 105.033 40.372 104.577L41.2757 101.942C41.494 101.306 41.2616 100.602 40.7073 100.22L38.3981 98.6307C37.9937 98.3524 38.1907 97.7188 38.6815 97.7188H41.6529C42.2938 97.7188 42.8639 97.3117 43.0718 96.7055L44.027 93.9202Z" stroke="#B058F8"/>
<path opacity="0.2" d="M40.027 37.9202C40.1815 37.4698 40.8185 37.4698 40.973 37.9202L41.9282 40.7055C42.1361 41.3117 42.7062 41.7188 43.3471 41.7188H46.3185C46.8093 41.7188 47.0063 42.3524 46.6019 42.6307L44.2927 44.2202C43.7384 44.6017 43.506 45.3058 43.7243 45.9424L44.628 48.5773C44.7844 49.0332 44.2686 49.4247 43.8716 49.1514L41.3505 47.4161C40.8383 47.0635 40.1617 47.0635 39.6495 47.4161L37.1284 49.1514C36.7314 49.4247 36.2156 49.0332 36.372 48.5773L37.2757 45.9424C37.494 45.3058 37.2616 44.6017 36.7073 44.2202L34.3981 42.6307C33.9937 42.3524 34.1907 41.7188 34.6815 41.7188H37.6529C38.2938 41.7188 38.8639 41.3117 39.0718 40.7055L40.027 37.9202Z" stroke="#B058F8"/>
<path opacity="0.2" d="M160.027 49.9202C160.182 49.4698 160.818 49.4698 160.973 49.9202L161.928 52.7055C162.136 53.3117 162.706 53.7188 163.347 53.7188H166.318C166.809 53.7188 167.006 54.3524 166.602 54.6307L164.293 56.2202C163.738 56.6017 163.506 57.3058 163.724 57.9424L164.628 60.5773C164.784 61.0332 164.269 61.4247 163.872 61.1514L161.35 59.4161C160.838 59.0635 160.162 59.0635 159.65 59.4161L157.128 61.1514C156.731 61.4247 156.216 61.0332 156.372 60.5773L157.276 57.9424C157.494 57.3058 157.262 56.6017 156.707 56.2202L154.398 54.6307C153.994 54.3524 154.191 53.7188 154.682 53.7188H157.653C158.294 53.7188 158.864 53.3117 159.072 52.7055L160.027 49.9202Z" stroke="#B058F8"/>
<path opacity="0.3" d="M92.0245 19.0816C92.1741 18.6209 92.8259 18.6209 92.9755 19.0816L93.9328 22.0279C94.1337 22.6459 94.7096 23.0643 95.3594 23.0643H98.4574C98.9417 23.0643 99.1431 23.6841 98.7512 23.9688L96.245 25.7898C95.7192 26.1717 95.4993 26.8488 95.7001 27.4668L96.6574 30.4131C96.8071 30.8738 96.2798 31.2568 95.888 30.9721L93.3817 29.1512C92.8559 28.7693 92.1441 28.7693 91.6183 29.1512L89.112 30.9721C88.7202 31.2568 88.1929 30.8738 88.3426 30.4131L89.2999 27.4668C89.5007 26.8488 89.2808 26.1717 88.755 25.7898L86.2488 23.9688C85.8569 23.6841 86.0583 23.0643 86.5426 23.0643H89.6406C90.2904 23.0643 90.8663 22.6459 91.0672 22.0279L92.0245 19.0816Z" stroke="#FFBC00"/>
<path opacity="0.2" d="M188.024 143.082C188.174 142.621 188.826 142.621 188.976 143.082L189.933 146.028C190.134 146.646 190.71 147.064 191.359 147.064H194.457C194.942 147.064 195.143 147.684 194.751 147.969L192.245 149.79C191.719 150.172 191.499 150.849 191.7 151.467L192.657 154.413C192.807 154.874 192.28 155.257 191.888 154.972L189.382 153.151C188.856 152.769 188.144 152.769 187.618 153.151L185.112 154.972C184.72 155.257 184.193 154.874 184.343 154.413L185.3 151.467C185.501 150.849 185.281 150.172 184.755 149.79L182.249 147.969C181.857 147.684 182.058 147.064 182.543 147.064H185.641C186.29 147.064 186.866 146.646 187.067 146.028L188.024 143.082Z" stroke="#B058F8"/>
<path opacity="0.3" d="M35.0245 152.082C35.1741 151.621 35.8259 151.621 35.9755 152.082L36.9328 155.028C37.1337 155.646 37.7096 156.064 38.3594 156.064H41.4574C41.9417 156.064 42.1431 156.684 41.7512 156.969L39.245 158.79C38.7192 159.172 38.4993 159.849 38.7001 160.467L39.6574 163.413C39.8071 163.874 39.2798 164.257 38.888 163.972L36.3817 162.151C35.8559 161.769 35.1441 161.769 34.6183 162.151L32.112 163.972C31.7202 164.257 31.1929 163.874 31.3426 163.413L32.2999 160.467C32.5007 159.849 32.2808 159.172 31.755 158.79L29.2488 156.969C28.8569 156.684 29.0583 156.064 29.5426 156.064H32.6406C33.2904 156.064 33.8663 155.646 34.0672 155.028L35.0245 152.082Z" stroke="#FFBC00"/>
<path opacity="0.2" d="M192.024 104.082C192.174 103.621 192.826 103.621 192.976 104.082L193.933 107.028C194.134 107.646 194.71 108.064 195.359 108.064H198.457C198.942 108.064 199.143 108.684 198.751 108.969L196.245 110.79C195.719 111.172 195.499 111.849 195.7 112.467L196.657 115.413C196.807 115.874 196.28 116.257 195.888 115.972L193.382 114.151C192.856 113.769 192.144 113.769 191.618 114.151L189.112 115.972C188.72 116.257 188.193 115.874 188.343 115.413L189.3 112.467C189.501 111.849 189.281 111.172 188.755 110.79L186.249 108.969C185.857 108.684 186.058 108.064 186.543 108.064H189.641C190.29 108.064 190.866 107.646 191.067 107.028L192.024 104.082Z" stroke="#FFBC00"/>
<circle cx="57.5" cy="61.5" r="2.5" fill="#FFBC00"/>
<circle cx="7.5" cy="78.5" r="1.5" fill="#FFBC00"/>
<circle cx="19.5" cy="104.5" r="1.5" fill="#B058F8"/>
<circle cx="31.5" cy="58.5" r="1.5" fill="#B058F8"/>
<circle cx="130.5" cy="24.5" r="1.5" fill="#B058F8"/>
<circle cx="18.5" cy="145.5" r="1" stroke="#B058F8"/>
<circle cx="122" cy="52" r="1" fill="#B058F8"/>
<circle cx="175.5" cy="127.5" r="2.5" fill="#FFBC00"/>
<circle cx="195.5" cy="65.5" r="2.5" fill="#B058F8"/>
<circle cx="155.5" cy="89.5" r="1.5" fill="#FFBC00"/>
<circle cx="212.5" cy="118.5" r="1.2" stroke="#B058F8" stroke-width="0.6"/>
<rect x="9.09126" y="125.657" width="7.4" height="7.4" rx="0.7" transform="rotate(-45 9.09126 125.657)" stroke="#FFBC00" stroke-width="0.6"/>
<rect x="83.7573" y="48.3237" width="4.73333" height="4.73333" rx="0.7" transform="rotate(-45 83.7573 48.3237)" stroke="#FFBC00" stroke-width="0.6"/>
<rect x="162.424" y="158.438" width="4.73333" height="4.73333" rx="0.7" transform="rotate(-45 162.424 158.438)" stroke="#B058F8" stroke-width="0.6"/>
<rect x="147.757" y="74.9902" width="2.06667" height="2.06667" rx="0.7" transform="rotate(-45 147.757 74.9902)" stroke="#FFBC00" stroke-width="0.6"/>
<rect x="75" y="84" width="64" height="119" rx="7" fill="white" stroke="#4137FF" stroke-width="2"/>
<rect x="80" y="95" width="54" height="102" rx="3" fill="white" stroke="#4137FF" stroke-width="2"/>
<line x1="96" y1="89" x2="118" y2="89" stroke="#B058F8" stroke-width="2" stroke-linecap="round"/>
<rect x="84.5" y="135.5" width="45" height="10" rx="5" stroke="#B058F8"/>
<path d="M97.4027 139.992L97.7107 139.082L99.2507 139.684V138.004H100.203V139.684L101.729 139.082L102.065 139.992L100.469 140.524L101.449 141.84L100.707 142.386L99.7127 141.014L98.7607 142.386L97.9767 141.84L98.9567 140.524L97.4027 139.992ZM102.584 139.992L102.892 139.082L104.432 139.684V138.004H105.384V139.684L106.91 139.082L107.246 139.992L105.65 140.524L106.63 141.84L105.888 142.386L104.894 141.014L103.942 142.386L103.158 141.84L104.138 140.524L102.584 139.992ZM107.766 139.992L108.074 139.082L109.614 139.684V138.004H110.566V139.684L112.092 139.082L112.428 139.992L110.832 140.524L111.812 141.84L111.07 142.386L110.076 141.014L109.124 142.386L108.34 141.84L109.32 140.524L107.766 139.992ZM112.948 139.992L113.256 139.082L114.796 139.684V138.004H115.748V139.684L117.274 139.082L117.61 139.992L116.014 140.524L116.994 141.84L116.252 142.386L115.258 141.014L114.306 142.386L113.522 141.84L114.502 140.524L112.948 139.992Z" fill="#4137FF"/>
<circle cx="107" cy="160" r="10" fill="#B058F8"/>
<rect x="102" y="160.003" width="1.79305" height="5.97683" rx="0.896525" transform="rotate(-45 102 160.003)" fill="white"/>
<rect x="110.962" y="157" width="1.79305" height="8.36756" rx="0.896525" transform="rotate(45 110.962 157)" fill="white"/>
</svg>
