<svg width="24" height="24" viewBox="0 0 24 24" fill="none" xmlns="http://www.w3.org/2000/svg">
<path d="M7.34326 6.34351V9.98851C7.34326 11.9361 7.76411 13.489 8.62986 14.736C9.27901 15.6711 10.195 16.49 11.4999 17.2988C12.8048 16.49 13.7208 15.6712 14.3699 14.7361C15.2357 13.489 15.6565 11.9361 15.6565 9.98851V6.34351H7.34326ZM12.4562 11.3067V13.9287H10.5436V11.3067C10.0759 10.9964 9.76736 10.4654 9.76736 9.86216C9.76739 8.90532 10.543 8.12966 11.4999 8.12966C12.4567 8.12966 13.2324 8.90532 13.2324 9.86216C13.2324 10.4654 12.9239 10.9965 12.4562 11.3067Z" fill="black"/>
<path d="M5 4V9.98847C5 12.4298 5.55772 14.4198 6.705 16.0724C7.70362 17.5109 9.15594 18.7199 11.2754 19.8773L11.5001 20L11.7247 19.8773C13.8442 18.72 15.2965 17.511 16.2951 16.0724C17.4424 14.4198 18.0001 12.4298 18.0001 9.98847V4H5ZM16.5941 9.98847C16.5941 12.1335 16.1185 13.8613 15.1401 15.2706C14.3731 16.3755 13.2928 17.3222 11.7405 18.2497L11.5001 18.3934L11.2597 18.2497C9.70734 17.3222 8.62713 16.3756 7.86006 15.2706C6.88169 13.8613 6.40609 12.1336 6.40609 9.98847V5.40606H16.5941V9.98847H16.5941Z" fill="black"/>
</svg>
