<svg width="24" height="24" viewBox="0 0 24 24" fill="none" xmlns="http://www.w3.org/2000/svg">
<path d="M12 8.375C10.0012 8.375 8.375 10.0012 8.375 12C8.375 13.9988 10.0012 15.625 12 15.625C12.3733 15.625 12.7417 15.5683 13.0949 15.4566C13.424 15.3524 13.6063 15.0012 13.5021 14.6721C13.398 14.343 13.0467 14.1607 12.7177 14.2648C12.4867 14.3379 12.2452 14.375 12 14.375C10.6904 14.375 9.625 13.3096 9.625 12C9.625 10.6904 10.6904 9.625 12 9.625C13.3096 9.625 14.375 10.6904 14.375 12C14.375 12.2276 14.343 12.4525 14.2798 12.6683C14.1829 12.9996 14.373 13.3467 14.7043 13.4436C15.0357 13.5405 15.3827 13.3505 15.4796 13.0192C15.5761 12.6893 15.625 12.3464 15.625 12C15.625 10.0012 13.9988 8.375 12 8.375Z" fill="black"/>
<path d="M18.125 9.81253H17.8103C17.7275 9.81253 17.6524 9.76038 17.6199 9.68169L17.6143 9.66819C17.5807 9.58713 17.5968 9.49691 17.6553 9.43834L17.8779 9.21578C18.609 8.48472 18.609 7.29519 17.8779 6.56413L17.436 6.12219C17.0818 5.76803 16.6109 5.573 16.1101 5.573C15.6092 5.573 15.1384 5.76803 14.7843 6.12219L14.5618 6.34472C14.5032 6.40331 14.4128 6.41937 14.3322 6.38584L14.3204 6.38097C14.2397 6.34763 14.1875 6.27259 14.1875 6.18981V5.875C14.1875 4.84113 13.3464 4 12.3125 4H11.6875C10.6537 4 9.81253 4.84113 9.81253 5.875V6.18981C9.81253 6.27259 9.76041 6.34763 9.68038 6.38066L9.66816 6.38572C9.58719 6.41941 9.49687 6.40331 9.43834 6.34475L9.21578 6.12219C8.86166 5.76803 8.39078 5.573 7.88994 5.573C7.38909 5.573 6.91825 5.76803 6.56409 6.12219L6.12216 6.56406C5.39109 7.29516 5.39109 8.48466 6.12219 9.21575L6.34472 9.43828C6.40328 9.49687 6.41934 9.58709 6.38475 9.67047L6.38097 9.67959C6.34766 9.76031 6.27256 9.81247 6.18978 9.81247H5.875C4.84113 9.81247 4 10.6536 4 11.6875V12.3125C4 13.3463 4.84113 14.1875 5.875 14.1875H6.18975C6.27256 14.1875 6.34759 14.2396 6.38013 14.3183L6.38569 14.3318C6.41934 14.4129 6.40325 14.5031 6.34469 14.5617L6.12216 14.7842C5.768 15.1384 5.57297 15.6092 5.57297 16.1101C5.57297 16.6109 5.768 17.0817 6.12212 17.4359L6.56406 17.8778C6.91822 18.232 7.38909 18.427 7.88991 18.427C8.39078 18.427 8.86163 18.232 9.21575 17.8778L9.43828 17.6553C9.49681 17.5967 9.58716 17.5806 9.66787 17.6142L9.67966 17.619C9.76037 17.6524 9.8125 17.7274 9.8125 17.8102V18.125C9.8125 19.1589 10.6536 20 11.6875 20H12.3125C13.3464 20 14.1875 19.1589 14.1875 18.125V17.8102C14.1875 17.7274 14.2396 17.6524 14.3197 17.6193L14.3319 17.6143C14.4129 17.5807 14.5032 17.5967 14.5617 17.6552L14.7843 17.8778C15.1384 18.232 15.6093 18.427 16.1101 18.427C16.6109 18.427 17.0818 18.232 17.4359 17.8778L17.8779 17.4359C18.232 17.0817 18.427 16.6109 18.427 16.1101C18.427 15.6092 18.232 15.1384 17.8779 14.7843L17.6553 14.5617C17.5967 14.5031 17.5807 14.4129 17.6143 14.3318L17.619 14.3204C17.6524 14.2397 17.7274 14.1875 17.8102 14.1875H18.125C19.1589 14.1875 20 13.3464 20 12.3125V11.6875C20 10.6537 19.1589 9.81253 18.125 9.81253ZM18.75 12.3125C18.75 12.6571 18.4696 12.9375 18.125 12.9375H17.8102C17.2194 12.9375 16.6909 13.293 16.4637 13.8432L16.4596 13.853C16.2316 14.403 16.3539 15.028 16.7714 15.4456L16.994 15.6681C17.112 15.7862 17.177 15.9431 17.177 16.1101C17.177 16.277 17.112 16.4339 16.9939 16.552L16.552 16.9939C16.4339 17.112 16.277 17.177 16.1101 17.177C15.9431 17.177 15.7862 17.112 15.6681 16.9939L15.4455 16.7713C15.0278 16.3537 14.4024 16.2315 13.8521 16.46L13.8433 16.4637C13.293 16.6909 12.9375 17.2194 12.9375 17.8102V18.125C12.9375 18.4696 12.6571 18.75 12.3125 18.75H11.6875C11.3429 18.75 11.0625 18.4696 11.0625 18.125V17.8102C11.0625 17.2194 10.707 16.6909 10.1561 16.4634L10.1477 16.4599C9.96359 16.3834 9.77119 16.3463 9.58087 16.3463C9.20241 16.3463 8.83241 16.4934 8.55444 16.7714L8.33187 16.994C8.21381 17.112 8.05691 17.177 7.88994 17.177C7.723 17.177 7.56603 17.112 7.448 16.9939L7.00606 16.552C6.888 16.4339 6.823 16.277 6.823 16.1101C6.823 15.9431 6.888 15.7862 7.00606 15.6681L7.22863 15.4456C7.64616 15.028 7.76847 14.403 7.54037 13.853L7.53631 13.8432C7.30906 13.293 6.78053 12.9375 6.18978 12.9375H5.875C5.53038 12.9375 5.25 12.6571 5.25 12.3125V11.6875C5.25 11.3429 5.53038 11.0625 5.875 11.0625H6.18978C6.78056 11.0625 7.30909 10.707 7.53716 10.1548L7.54006 10.1477C7.76856 9.59756 7.64631 8.97219 7.22859 8.55444L7.00606 8.33191C6.76234 8.08819 6.76234 7.69169 7.00606 7.448L7.44797 7.00606C7.56606 6.88803 7.723 6.823 7.88994 6.823C8.05691 6.823 8.21384 6.888 8.33187 7.00606L8.55447 7.22866C8.97225 7.64634 9.59766 7.76859 10.1479 7.53997L10.1568 7.53631C10.707 7.30913 11.0625 6.78059 11.0625 6.18981V5.875C11.0625 5.53038 11.3429 5.25 11.6875 5.25H12.3125C12.6571 5.25 12.9375 5.53038 12.9375 5.875V6.18981C12.9375 6.78059 13.293 7.30912 13.8439 7.53656L13.8523 7.54006C14.4024 7.7685 15.0278 7.64628 15.4456 7.22859L15.6681 7.006C15.7862 6.88797 15.9431 6.82297 16.1101 6.82297C16.277 6.82297 16.434 6.888 16.552 7.00603L16.9939 7.44797C17.2377 7.69166 17.2377 8.08816 16.994 8.33184L16.7714 8.55444C16.3537 8.97219 16.2314 9.59753 16.459 10.1454L16.4637 10.1568C16.6909 10.707 17.2195 11.0625 17.8102 11.0625H18.125C18.4696 11.0625 18.75 11.3429 18.75 11.6875V12.3125Z" fill="black"/>
</svg>
