<svg width="24" height="24" viewBox="0 0 24 24" fill="none" xmlns="http://www.w3.org/2000/svg">
<path d="M18.8228 6.66736C18.8228 7.86401 17.8529 8.83411 16.6562 8.83411C15.4596 8.83411 14.4896 7.86401 14.4896 6.66736C14.4896 5.47083 15.4596 4.50073 16.6562 4.50073C17.8529 4.50073 18.8228 5.47083 18.8228 6.66736Z" fill="black"/>
<path d="M16.6559 9.33411C15.1852 9.33411 13.9893 8.13806 13.9893 6.66736C13.9893 5.19678 15.1852 4.00073 16.6559 4.00073C18.1267 4.00073 19.3226 5.19678 19.3226 6.66736C19.3226 8.13806 18.1267 9.33411 16.6559 9.33411ZM16.6559 5.00073C15.7366 5.00073 14.9893 5.74878 14.9893 6.66736C14.9893 7.58606 15.7366 8.33411 16.6559 8.33411C17.5753 8.33411 18.3226 7.58606 18.3226 6.66736C18.3226 5.74878 17.5753 5.00073 16.6559 5.00073Z" fill="black"/>
<path d="M18.8228 17.334C18.8228 18.5305 17.8529 19.5006 16.6562 19.5006C15.4596 19.5006 14.4896 18.5305 14.4896 17.334C14.4896 16.1373 15.4596 15.1672 16.6562 15.1672C17.8529 15.1672 18.8228 16.1373 18.8228 17.334Z" fill="black"/>
<path d="M16.6559 20.0006C15.1852 20.0006 13.9893 18.8046 13.9893 17.334C13.9893 15.8633 15.1852 14.6672 16.6559 14.6672C18.1267 14.6672 19.3226 15.8633 19.3226 17.334C19.3226 18.8046 18.1267 20.0006 16.6559 20.0006ZM16.6559 15.6672C15.7366 15.6672 14.9893 16.4153 14.9893 17.334C14.9893 18.2526 15.7366 19.0006 16.6559 19.0006C17.5753 19.0006 18.3226 18.2526 18.3226 17.334C18.3226 16.4153 17.5753 15.6672 16.6559 15.6672Z" fill="black"/>
<path d="M9.49005 12.0006C9.49005 13.1973 8.51996 14.1672 7.3233 14.1672C6.12677 14.1672 5.15668 13.1973 5.15668 12.0006C5.15668 10.804 6.12677 9.83398 7.3233 9.83398C8.51996 9.83398 9.49005 10.804 9.49005 12.0006Z" fill="black"/>
<path d="M7.32306 14.6672C5.85248 14.6672 4.65643 13.4713 4.65643 12.0006C4.65643 10.5299 5.85248 9.33398 7.32306 9.33398C8.79376 9.33398 9.98981 10.5299 9.98981 12.0006C9.98981 13.4713 8.79376 14.6672 7.32306 14.6672ZM7.32306 10.334C6.40375 10.334 5.65643 11.0819 5.65643 12.0006C5.65643 12.9193 6.40375 13.6672 7.32306 13.6672C8.24249 13.6672 8.98981 12.9193 8.98981 12.0006C8.98981 11.0819 8.24249 10.334 7.32306 10.334Z" fill="black"/>
<path d="M8.89704 11.6807C8.66498 11.6807 8.43964 11.5599 8.31696 11.344C8.13495 11.0247 8.24701 10.6173 8.56635 10.4346L14.7523 6.90797C15.0716 6.72462 15.4789 6.83668 15.6617 7.15723C15.8437 7.47657 15.7316 7.88392 15.4123 8.06666L9.22626 11.5933C9.12226 11.6526 9.00898 11.6807 8.89704 11.6807Z" fill="black"/>
<path d="M15.0825 17.1808C14.9705 17.1808 14.8572 17.1527 14.7532 17.0934L8.56717 13.5668C8.24784 13.3848 8.1359 12.9774 8.3179 12.6573C8.49918 12.3374 8.90714 12.2247 9.22721 12.4081L15.4132 15.9347C15.7326 16.1167 15.8445 16.5241 15.6625 16.8441C15.5392 17.0601 15.3139 17.1808 15.0825 17.1808Z" fill="black"/>
</svg>
