<svg width="24" height="24" viewBox="0 0 24 24" fill="none" xmlns="http://www.w3.org/2000/svg">
<path d="M18.3164 8.20996C17.985 8.37028 17.8464 8.76904 18.0067 9.10026C18.4447 10.005 18.6667 10.9803 18.6667 12C18.6667 15.6759 15.6759 18.6667 12 18.6667C8.32406 18.6667 5.33333 15.6759 5.33333 12C5.33333 8.32406 8.32406 5.33333 12 5.33333C13.5233 5.33333 14.9543 5.83073 16.1387 6.77165C16.4259 7.00098 16.846 6.95296 17.0754 6.66471C17.3047 6.37663 17.2567 5.95703 16.9683 5.72803C15.5661 4.61361 13.8016 4 12 4C7.58903 4 4 7.58903 4 12C4 16.411 7.58903 20 12 20C16.411 20 20 16.411 20 12C20 10.7777 19.7331 9.60628 19.2067 8.51969C19.0467 8.18766 18.6466 8.04932 18.3164 8.20996Z" fill="black"/>
<path d="M12 6.6665C11.632 6.6665 11.3333 6.96517 11.3333 7.33317V11.9998C11.3333 12.3678 11.632 12.6665 12 12.6665H15.3333C15.7013 12.6665 16 12.3678 16 11.9998C16 11.6318 15.7013 11.3332 15.3333 11.3332H12.6666V7.33317C12.6666 6.96517 12.368 6.6665 12 6.6665Z" fill="black"/>
</svg>
