<svg width="24" height="24" viewBox="0 0 24 24" fill="none" xmlns="http://www.w3.org/2000/svg">
<path d="M4.96875 11.375C5.44177 11.375 5.87146 11.1869 6.18777 10.8818L7.91232 11.7441C7.90347 11.8152 7.89844 11.8874 7.89844 11.9609C7.89844 12.9302 8.68701 13.7188 9.65625 13.7188C10.6255 13.7188 11.4141 12.9302 11.4141 11.9609C11.4141 11.6899 11.3523 11.433 11.2422 11.2035L13.5863 8.85944C13.8158 8.96945 14.0728 9.03125 14.3438 9.03125C15.313 9.03125 16.1016 8.24268 16.1016 7.27344C16.1016 7.09033 16.0733 6.91379 16.0211 6.74777L18.0576 5.22052C18.3365 5.40683 18.6713 5.51562 19.0312 5.51562C20.0005 5.51562 20.7891 4.72705 20.7891 3.75781C20.7891 2.78857 20.0005 2 19.0312 2C18.062 2 17.2734 2.78857 17.2734 3.75781C17.2734 3.94092 17.3017 4.11746 17.3539 4.28348L15.3174 5.81073C15.0385 5.62442 14.7037 5.51562 14.3438 5.51562C13.3745 5.51562 12.5859 6.3042 12.5859 7.27344C12.5859 7.54443 12.6477 7.80139 12.7578 8.03088L10.4137 10.3749C10.1842 10.2649 9.92725 10.2031 9.65625 10.2031C9.18323 10.2031 8.75354 10.3913 8.43723 10.6963L6.71268 9.83401C6.72153 9.76291 6.72656 9.69073 6.72656 9.61719C6.72656 8.64795 5.93799 7.85938 4.96875 7.85938C3.99951 7.85938 3.21094 8.64795 3.21094 9.61719C3.21094 10.5864 3.99951 11.375 4.96875 11.375ZM19.0312 3.17188C19.3543 3.17188 19.6172 3.43478 19.6172 3.75781C19.6172 4.08084 19.3543 4.34375 19.0312 4.34375C18.7082 4.34375 18.4453 4.08084 18.4453 3.75781C18.4453 3.43478 18.7082 3.17188 19.0312 3.17188ZM14.3438 6.6875C14.6668 6.6875 14.9297 6.95041 14.9297 7.27344C14.9297 7.59647 14.6668 7.85938 14.3438 7.85938C14.0207 7.85938 13.7578 7.59647 13.7578 7.27344C13.7578 6.95041 14.0207 6.6875 14.3438 6.6875ZM4.96875 9.03125C5.29178 9.03125 5.55469 9.29416 5.55469 9.61719C5.55469 9.94022 5.29178 10.2031 4.96875 10.2031C4.64572 10.2031 4.38281 9.94022 4.38281 9.61719C4.38281 9.29416 4.64572 9.03125 4.96875 9.03125Z" fill="#4137FF"/>
<path d="M21.4141 20.8281H20.7891V8.44531C20.7891 8.12167 20.5268 7.85938 20.2031 7.85938H17.8594C17.5357 7.85938 17.2734 8.12167 17.2734 8.44531V20.8281H16.1016V11.9609C16.1016 11.6373 15.8393 11.375 15.5156 11.375H13.1719C12.8482 11.375 12.5859 11.6373 12.5859 11.9609V20.8281H11.4141V16.6484C11.4141 16.3248 11.1518 16.0625 10.8281 16.0625H8.48438C8.16074 16.0625 7.89844 16.3248 7.89844 16.6484V20.8281H6.72656V14.3047C6.72656 13.981 6.46426 13.7188 6.14062 13.7188H3.79688C3.47324 13.7188 3.21094 13.981 3.21094 14.3047V20.8281H2.58594C2.2623 20.8281 2 21.0904 2 21.4141C2 21.7377 2.2623 22 2.58594 22H21.4141C21.7377 22 22 21.7377 22 21.4141C22 21.0904 21.7377 20.8281 21.4141 20.8281Z" fill="#4137FF"/>
</svg>
