<svg width="64" height="64" viewBox="0 0 64 64" fill="none" xmlns="http://www.w3.org/2000/svg">
<g opacity="0.2">
<path d="M50.0106 5.3335H45.0885V20.8731C45.0885 21.9649 43.9051 22.5047 42.9884 21.1339L39.7373 16.2816L36.4863 21.1339C35.563 22.4987 34.3861 21.9649 34.3861 20.8731V5.3335H17.8838C13.8946 5.3435 10.6665 8.36303 10.6665 12.0843V51.9342C10.6772 55.6484 13.9023 58.6568 17.8838 58.6668H50.0171C50.8959 58.6655 51.738 58.3382 52.3579 57.757C52.9809 57.1788 53.3317 56.3932 53.3332 55.5735V8.43293C53.3296 6.72248 51.8442 5.33683 50.0106 5.3335ZM50.6283 50.6605L19.2753 50.6969C18.5919 50.7408 18.0482 51.2482 18.001 51.8855C17.9488 52.5906 18.5194 53.2017 19.2753 53.2504H50.6283L50.6218 55.6038C50.6221 55.7441 50.5638 55.879 50.4592 55.9798C50.3512 56.0774 50.2065 56.1318 50.0561 56.1315H17.8838C15.415 56.1315 13.4136 54.2645 13.4136 51.9615C13.4136 49.6585 15.415 47.7915 17.8838 47.7915H50.0561C50.3707 47.7948 50.6247 48.0319 50.6283 48.3253V50.6605Z" fill="#1A1A1A"/>
</g>
</svg>
