<svg width="24" height="24" viewBox="0 0 24 24" fill="none" xmlns="http://www.w3.org/2000/svg">
<circle cx="12" cy="12" r="12" fill="#4137FF"/>
<path d="M13.1788 11.2382C13.8296 11.8891 13.8296 12.9444 13.1788 13.5953C12.5279 14.2462 11.4726 14.2462 10.8217 13.5953C10.1708 12.9444 10.1708 11.8891 10.8217 11.2382C11.4726 10.5873 12.5279 10.5873 13.1788 11.2382Z" fill="white"/>
<path d="M17.0001 7.83323H15.8485L15.0148 6.1665H8.98473L8.15176 7.83404L7.00183 7.83609C6.08506 7.83773 5.33876 8.58482 5.33797 9.50199L5.3335 16.1664C5.3335 17.0856 6.08099 17.8335 7.00022 17.8335H17.0001C17.9193 17.8335 18.6668 17.086 18.6668 16.1668V9.49992C18.6668 8.58072 17.9193 7.83323 17.0001 7.83323ZM11.9999 15.7501C10.1619 15.7501 8.6665 14.2547 8.6665 12.4167C8.6665 10.5786 10.1619 9.08323 11.9999 9.08323C13.838 9.08323 15.3334 10.5786 15.3334 12.4167C15.3334 14.2547 13.838 15.7501 11.9999 15.7501Z" fill="white"/>
</svg>
