<svg width="24" height="24" viewBox="0 0 24 24" fill="none" xmlns="http://www.w3.org/2000/svg">
<path d="M17.69 12.3276H16.4526C16.5788 12.6729 16.6477 13.0456 16.6477 13.434V18.1106C16.6477 18.2725 16.6195 18.428 16.5682 18.5725H18.6138C19.378 18.5725 19.9996 17.9508 19.9996 17.1867V14.6373C19.9997 13.3638 18.9636 12.3276 17.69 12.3276Z" fill="#7E7E7E"/>
<path d="M7.35204 13.434C7.35204 13.0456 7.42094 12.6729 7.54707 12.3276H6.30969C5.03613 12.3276 4 13.3638 4 14.6373V17.1867C4 17.9509 4.62166 18.5726 5.38582 18.5726H7.43151C7.38023 18.4279 7.35204 18.2725 7.35204 18.1106V13.434Z" fill="#7E7E7E"/>
<path d="M13.4144 11.1245H10.5856C9.312 11.1245 8.27588 12.1606 8.27588 13.4342V18.1108C8.27588 18.3659 8.48269 18.5727 8.73782 18.5727H15.2621C15.5173 18.5727 15.7241 18.3659 15.7241 18.1108V13.4342C15.7241 12.1606 14.6879 11.1245 13.4144 11.1245Z" fill="#7E7E7E"/>
<path d="M12.0003 5C10.4687 5 9.22266 6.24606 9.22266 7.77772C9.22266 8.81663 9.79606 9.72398 10.6429 10.2004C11.0445 10.4263 11.5076 10.5554 12.0003 10.5554C12.4931 10.5554 12.9562 10.4263 13.3578 10.2004C14.2047 9.72398 14.778 8.8166 14.778 7.77772C14.778 6.2461 13.532 5 12.0003 5Z" fill="#7E7E7E"/>
<path d="M7.12276 7.58936C5.97729 7.58936 5.04541 8.52123 5.04541 9.6667C5.04541 10.8122 5.97729 11.7441 7.12276 11.7441C7.41332 11.7441 7.69001 11.6839 7.94135 11.5757C8.37592 11.3886 8.73423 11.0574 8.95595 10.6425C9.11157 10.3514 9.20011 10.0192 9.20011 9.6667C9.20011 8.52126 8.26823 7.58936 7.12276 7.58936Z" fill="#7E7E7E"/>
<path d="M16.8776 7.58936C15.7322 7.58936 14.8003 8.52123 14.8003 9.6667C14.8003 10.0193 14.8888 10.3514 15.0445 10.6425C15.2662 11.0574 15.6245 11.3886 16.059 11.5757C16.3104 11.6839 16.5871 11.7441 16.8776 11.7441C18.0231 11.7441 18.955 10.8122 18.955 9.6667C18.955 8.52123 18.0231 7.58936 16.8776 7.58936Z" fill="#7E7E7E"/>
</svg>
