<svg width="24" height="24" viewBox="0 0 24 24" fill="none" xmlns="http://www.w3.org/2000/svg">
<path d="M18.1666 4H5.83337C4.82202 4 4 4.82202 4 5.83337V18.1666C4 19.178 4.82202 20 5.83337 20H18.1666C19.178 20 20 19.178 20 18.1666V5.83337C20 4.82202 19.178 4 18.1666 4V4ZM12 16.6666C11.632 16.6666 11.3334 16.368 11.3334 16C11.3334 15.632 11.632 15.3334 12 15.3334C12.368 15.3334 12.6666 15.632 12.6666 16C12.6666 16.368 12.368 16.6666 12 16.6666ZM13.0693 12.2754C12.8247 12.3806 12.6666 12.6213 12.6666 12.8879V13.3334C12.6666 13.7013 12.368 14 12 14C11.632 14 11.3334 13.7013 11.3334 13.3334V12.8879C11.3334 12.088 11.808 11.3673 12.542 11.0507C13.2147 10.7606 13.6666 10.0146 13.6666 9.5C13.6666 8.5813 12.9187 7.83337 12 7.83337C11.0813 7.83337 10.3334 8.5813 10.3334 9.5C10.3334 9.86804 10.0347 10.1666 9.66663 10.1666C9.29871 10.1666 9 9.86804 9 9.5C9 7.84595 10.3459 6.5 12 6.5C13.6541 6.5 15 7.84595 15 9.5C15 10.608 14.17 11.8014 13.0693 12.2754Z" fill="#7E7E7E"/>
</svg>
