<svg width="24" height="24" viewBox="0 0 24 24" fill="none" xmlns="http://www.w3.org/2000/svg">
<path d="M18.6667 7.00003H15.3333V6.33334C15.3333 5.598 14.7354 5 14 5H10C9.26466 5 8.66666 5.59797 8.66666 6.33334V7H5.33334C4.59797 7.00003 4 7.598 4 8.33334V17C4 17.7353 4.59797 18.3333 5.33334 18.3333H18.6667C19.402 18.3333 20 17.7354 20 17V8.33334C20 7.598 19.402 7.00003 18.6667 7.00003ZM10 6.33334H14V7H10V6.33334ZM15.3333 14C15.3333 14.1843 15.1842 14.3334 15 14.3334H13.3333V16C13.3333 16.1843 13.1842 16.3334 13 16.3334H11C10.8158 16.3334 10.6667 16.1843 10.6667 16V14.3334H9C8.81575 14.3334 8.66666 14.1843 8.66666 14V12C8.66666 11.8158 8.81575 11.6667 9 11.6667H10.6667V10C10.6667 9.81578 10.8158 9.66669 11 9.66669H13C13.1842 9.66669 13.3333 9.81578 13.3333 10V11.6667H15C15.1842 11.6667 15.3333 11.8158 15.3333 12V14Z" fill="#7E7E7E"/>
</svg>
