<svg width="24" height="24" viewBox="0 0 24 24" fill="none" xmlns="http://www.w3.org/2000/svg">
<path d="M7.34326 6.34375V9.98875C7.34326 11.9363 7.76411 13.4893 8.62986 14.7363C9.27901 15.6714 10.195 16.4903 11.4999 17.2991C12.8048 16.4902 13.7208 15.6714 14.3699 14.7363C15.2357 13.4893 15.6565 11.9363 15.6565 9.98875V6.34375H7.34326ZM12.4562 11.3069V13.929H10.5436V11.3069C10.0759 10.9967 9.76736 10.4657 9.76736 9.86241C9.76739 8.90556 10.543 8.12991 11.4999 8.12991C12.4567 8.12991 13.2324 8.90556 13.2324 9.86241C13.2324 10.4657 12.9239 10.9967 12.4562 11.3069Z" fill="#7E7E7E"/>
<path d="M5 4V9.98847C5 12.4298 5.55772 14.4198 6.705 16.0724C7.70362 17.5109 9.15594 18.7199 11.2754 19.8773L11.5001 20L11.7247 19.8773C13.8442 18.72 15.2965 17.511 16.2951 16.0724C17.4424 14.4198 18.0001 12.4298 18.0001 9.98847V4H5ZM16.5941 9.98847C16.5941 12.1335 16.1185 13.8613 15.1401 15.2706C14.3731 16.3755 13.2928 17.3222 11.7405 18.2497L11.5001 18.3934L11.2597 18.2497C9.70734 17.3222 8.62713 16.3756 7.86006 15.2706C6.88169 13.8613 6.40609 12.1336 6.40609 9.98847V5.40606H16.5941V9.98847H16.5941Z" fill="#7E7E7E"/>
</svg>
