<svg width="24" height="24" xmlns="http://www.w3.org/2000/svg">

 <g>
  <title>background</title>
  <rect fill="none" id="canvas_background" height="602" width="802" y="-1" x="-1"/>
 </g>
 <g>
  <title>Layer 1</title>
  <path stroke="#ffffff" id="svg_1" fill="none" d="m16.9667,15.7375l-0.1343,-0.5555c-0.0618,-0.2557 -0.319,-0.4127 -0.5748,-0.351c-0.2556,0.0618 -0.4128,0.3192 -0.3508,0.5748l0.1343,0.5556c0.0281,0.1159 -0.0394,0.2331 -0.1535,0.2668c-0.007,0.002 -0.0141,0.0043 -0.0212,0.0067l-2.3116,0.8004c-0.1914,0.0664 -0.3199,0.2465 -0.3203,0.449l-0.0065,3.3373c0,0.1231 -0.1001,0.2232 -0.2238,0.2232l-2.0096,0.0028c-0.0864,0 -0.1409,-0.0454 -0.1656,-0.0723c-0.0253,-0.0276 -0.0666,-0.0867 -0.0593,-0.1743c0.0011,-0.0136 0.0016,-0.0272 0.0016,-0.0408l-0.0063,-3.2759c-0.0004,-0.2025 -0.1289,-0.3826 -0.3203,-0.449l-2.34154,-0.8108c-0.10751,-0.0371 -0.17076,-0.1522 -0.14397,-0.2631l1.76006,-7.28091c0.01581,-0.06473 0.05413,-0.10435 0.0837,-0.12667l1.45385,-1.08576c0.0495,-0.03702 0.1001,-0.04483 0.1345,-0.04483l0.0004,0l1.2165,-0.00056c0.0659,0 0.1135,0.02716 0.1416,0.05004c0.0048,0.0039 0.0098,0.00762 0.0147,0.01134l1.4334,1.06847c0.0467,0.03497 0.0777,0.08575 0.0874,0.14323c0.0019,0.01116 0.0041,0.02232 0.0069,0.03329l0.7191,2.97396c0.0618,0.2556 0.3188,0.4128 0.5748,0.351c0.2556,-0.0619 0.4128,-0.3192 0.351,-0.5747l-0.7158,-2.95971c-0.0539,-0.29278 -0.2144,-0.55153 -0.454,-0.73047l-1.1814,-0.88059c0.6812,-0.49312 1.1254,-1.2941 1.1254,-2.1972c0,-1.49517 -1.2164,-2.71133 -2.7113,-2.71133c-1.495,0 -2.71137,1.21616 -2.71137,2.71133c0,0.90329 0.44438,1.70426 1.12577,2.19738l-1.18083,0.88189c-0.21913,0.1637 -0.37538,0.40012 -0.43974,0.66612l-1.75987,7.28038c-0.14416,0.5925 0.18229,1.1892 0.75856,1.3877l2.02103,0.6999l0.00559,2.9195c-0.02065,0.3211 0.09133,0.639 0.30896,0.8756c0.2221,0.2416 0.538,0.3802 0.8674,0.3802l2.0097,-0.0028c0.648,0 1.1756,-0.5273 1.1756,-1.1747l0.0057,-2.9979l1.9828,-0.6866c0.5939,-0.1821 0.944,-0.7947 0.7974,-1.4005zm-4.9669,-12.7853c0.9698,0 1.7589,0.78907 1.7589,1.75913c0,0.96988 -0.7891,1.75895 -1.7589,1.75895c-0.9699,0 -1.759,-0.78907 -1.759,-1.75895c0,-0.97006 0.7891,-1.75913 1.759,-1.75913z"/>
  <path id="svg_2" fill="#ffffff" d="m15.8304,12.742c-0.1895,0.1082 -0.2993,0.5037 -0.2452,0.883c0.045,0.3135 0.1879,0.5179 0.3433,0.5179c0.0323,0 0.0654,-0.0089 0.0982,-0.0276c0.1897,-0.1085 0.2994,-0.5037 0.2452,-0.8827l0,-0.0006c-0.0543,-0.379 -0.2519,-0.5982 -0.4415,-0.49z"/>
 </g>
</svg>