<svg width="24" height="24" viewBox="0 0 24 24" fill="none" xmlns="http://www.w3.org/2000/svg">
<g opacity="0.2">
<path d="M11.9989 8.44434C10.0352 8.44434 8.44336 10.0362 8.44336 11.9999C8.44336 13.9636 10.0352 15.5555 11.9989 15.5555C13.9626 15.5555 15.5545 13.9636 15.5545 11.9999C15.5545 10.0362 13.9626 8.44434 11.9989 8.44434ZM11.9989 13.7777C11.0171 13.7777 10.2212 12.9817 10.2212 11.9999C10.2212 11.0181 11.0171 10.2221 11.9989 10.2221C12.9808 10.2221 13.7767 11.0181 13.7767 11.9999C13.7767 12.9817 12.9808 13.7777 11.9989 13.7777Z" fill="black"/>
<path d="M11.9983 4C11.5073 4 11.1094 4.39797 11.1094 4.88891V5.77781C11.1094 6.26875 11.5073 6.66672 11.9983 6.66672C12.4892 6.66672 12.8872 6.26875 12.8872 5.77781V4.88891C12.8872 4.39797 12.4892 4 11.9983 4Z" fill="black"/>
<path d="M11.9983 17.3335C11.5073 17.3335 11.1094 17.7315 11.1094 18.2224V19.1113C11.1094 19.6022 11.5073 20.0002 11.9983 20.0002C12.4892 20.0002 12.8872 19.6022 12.8872 19.1113V18.2224C12.8872 17.7315 12.4892 17.3335 11.9983 17.3335Z" fill="black"/>
<path d="M19.1118 11.1113H18.2229C17.732 11.1113 17.334 11.5093 17.334 12.0002C17.334 12.4912 17.732 12.8891 18.2229 12.8891H19.1118C19.6027 12.8891 20.0007 12.4912 20.0007 12.0002C20.0007 11.5093 19.6027 11.1113 19.1118 11.1113Z" fill="black"/>
<path d="M5.77776 11.1113H4.88891C4.39797 11.1113 4 11.5093 4 12.0002C4 12.4912 4.39797 12.8891 4.88891 12.8891H5.77781C6.26875 12.8891 6.66672 12.4912 6.66672 12.0002C6.66672 11.5093 6.2687 11.1113 5.77776 11.1113Z" fill="black"/>
<path d="M17.6349 6.34328C17.2904 6.01057 16.7443 6.01057 16.3998 6.34328L15.7714 6.97172C15.4183 7.31276 15.4085 7.87552 15.7496 8.22859C16.0906 8.58172 16.6533 8.59151 17.0064 8.25042C17.0138 8.24328 17.0211 8.23599 17.0283 8.22859L17.6567 7.60016C17.9977 7.24703 17.988 6.68432 17.6349 6.34328Z" fill="black"/>
<path d="M8.25083 15.7714C7.90979 15.4183 7.34703 15.4085 6.99396 15.7496C6.98656 15.7567 6.97927 15.764 6.97213 15.7714L6.34364 16.3998C5.99052 16.7409 5.98073 17.3036 6.32182 17.6567C6.66286 18.0098 7.22562 18.0196 7.57869 17.6785C7.58609 17.6714 7.59338 17.6641 7.60052 17.6567L8.22895 17.0283C8.58208 16.6872 8.59187 16.1245 8.25083 15.7714Z" fill="black"/>
<path d="M17.6553 16.3999L17.0269 15.7715C16.6798 15.4245 16.1171 15.4245 15.77 15.7715C15.423 16.1186 15.423 16.6813 15.77 17.0283L16.3984 17.6568C16.7516 17.9978 17.3143 17.988 17.6553 17.6349C17.988 17.2905 17.988 16.7444 17.6553 16.3999Z" fill="black"/>
<path d="M8.25047 6.99355C8.24334 6.98615 8.23604 6.97886 8.22865 6.97172L7.60016 6.34329C7.24703 6.00224 6.68432 6.01198 6.34328 6.36511C6.01057 6.70959 6.01057 7.25573 6.34328 7.60016L6.97172 8.2286C7.31276 8.58172 7.87552 8.59151 8.2286 8.25042C8.58172 7.90938 8.59151 7.34667 8.25047 6.99355Z" fill="black"/>
</g>
</svg>
