<svg width="52" height="52" viewBox="0 0 52 52" fill="none" xmlns="http://www.w3.org/2000/svg">
<g filter="url(#filter0_d)">
<circle cx="26" cy="26" r="20" fill="white"/>
</g>
<g clip-path="url(#clip0)">
<path d="M29.4996 34C28.9831 34 28.471 33.9087 27.9703 33.7268C25.7642 32.9254 23.7165 31.6201 22.0484 29.9521C20.3803 28.284 19.0751 26.2363 18.2737 24.0302C18.0162 23.3212 17.9402 22.5894 18.0479 21.8549C18.1488 21.1669 18.4153 20.4991 18.8186 19.9235C19.2237 19.3453 19.7637 18.8645 20.3803 18.5329C21.0379 18.1793 21.7555 18 22.5135 18C22.7492 18 22.953 18.1647 23.0024 18.3952L23.7872 22.0575C23.8227 22.2234 23.7717 22.3959 23.6518 22.5158L22.3109 23.8568C23.5759 26.3719 25.6285 28.4245 28.1436 29.6896L29.4846 28.3486C29.6045 28.2287 29.7771 28.1778 29.9429 28.2132L33.6052 28.998C33.8357 29.0474 34.0004 29.2512 34.0004 29.4869C34.0004 30.2449 33.8211 30.9626 33.4675 31.6201C33.1359 32.2367 32.6551 32.7768 32.0769 33.1818C31.5014 33.5851 30.8335 33.8516 30.1455 33.9525C29.9299 33.9842 29.7143 34 29.4996 34ZM22.114 19.0218C21.1142 19.1322 20.2268 19.6562 19.6375 20.4973C18.9749 21.443 18.8203 22.6063 19.2136 23.6888C20.7543 27.9301 24.0704 31.2462 28.3117 32.7869C29.3942 33.1801 30.5574 33.0256 31.5032 32.3629C32.3442 31.7737 32.8683 30.8863 32.9786 29.8864L29.9994 29.248L28.5989 30.6485C28.4499 30.7975 28.2235 30.8371 28.0328 30.7475C25.0582 29.35 22.6504 26.9423 21.253 23.9677C21.1634 23.777 21.203 23.5506 21.352 23.4016L22.7524 22.0011L22.114 19.0218Z" fill="black"/>
<path d="M33.5006 26.4997C33.2245 26.4997 33.0007 26.2758 33.0007 25.9997C33.0007 22.14 29.8606 19 26.001 19C25.7248 19 25.501 18.7761 25.501 18.5C25.501 18.2239 25.7248 18 26.001 18C28.1378 18 30.1467 18.8321 31.6576 20.343C33.1685 21.854 34.0006 23.8629 34.0006 25.9997C34.0006 26.2758 33.7768 26.4997 33.5006 26.4997Z" fill="black"/>
<path d="M31.5007 26.4997C31.2246 26.4997 31.0008 26.2759 31.0008 25.9998C31.0008 23.2429 28.7578 21 26.001 21C25.7248 21 25.501 20.7761 25.501 20.5C25.501 20.2239 25.7248 20 26.001 20C29.3092 20 32.0007 22.6915 32.0007 25.9998C32.0007 26.2759 31.7769 26.4997 31.5007 26.4997Z" fill="black"/>
<path d="M29.5008 26.4998C29.2247 26.4998 29.0008 26.276 29.0008 25.9998C29.0008 24.3457 27.6551 23 26.001 23C25.7248 23 25.501 22.7761 25.501 22.5C25.501 22.2239 25.7248 22 26.001 22C28.2065 22 30.0008 23.7943 30.0008 25.9998C30.0008 26.276 29.777 26.4998 29.5008 26.4998Z" fill="black"/>
</g>
<defs>
<filter id="filter0_d" x="0" y="0" width="52" height="52" filterUnits="userSpaceOnUse" color-interpolation-filters="sRGB">
<feFlood flood-opacity="0" result="BackgroundImageFix"/>
<feColorMatrix in="SourceAlpha" type="matrix" values="0 0 0 0 0 0 0 0 0 0 0 0 0 0 0 0 0 0 127 0"/>
<feOffset/>
<feGaussianBlur stdDeviation="3"/>
<feColorMatrix type="matrix" values="0 0 0 0 0 0 0 0 0 0 0 0 0 0 0 0 0 0 0.16 0"/>
<feBlend mode="normal" in2="BackgroundImageFix" result="effect1_dropShadow"/>
<feBlend mode="normal" in="SourceGraphic" in2="effect1_dropShadow" result="shape"/>
</filter>
<clipPath id="clip0">
<rect width="16" height="16" fill="white" transform="translate(18 18)"/>
</clipPath>
</defs>
</svg>
