<svg width="52" height="52" viewBox="0 0 52 52" fill="none" xmlns="http://www.w3.org/2000/svg">
<g filter="url(#filter0_d)">
<circle cx="26" cy="26" r="20" fill="white"/>
</g>
<g clip-path="url(#clip0)">
<path d="M28.5 21.5C28.372 21.5 28.244 21.4513 28.1467 21.3533L26 19.2073L23.8533 21.3533C23.658 21.5487 23.3413 21.5487 23.146 21.3533C22.9507 21.158 22.9507 20.8413 23.146 20.646L25.646 18.146C25.8413 17.9507 26.158 17.9507 26.3533 18.146L28.8533 20.646C29.0487 20.8413 29.0487 21.158 28.8533 21.3533C28.756 21.4513 28.628 21.5 28.5 21.5Z" fill="black"/>
<path d="M26 26C25.724 26 25.5 25.776 25.5 25.5V18.5C25.5 18.224 25.724 18 26 18C26.276 18 26.5 18.224 26.5 18.5V25.5C26.5 25.776 26.276 26 26 26Z" fill="black"/>
<path d="M32.5 33.9996H19.5C18.6733 33.9996 18 33.3263 18 32.4996V24.833C18 24.0063 18.6733 23.333 19.5 23.333H24.1667C24.4427 23.333 24.6667 23.557 24.6667 23.833C24.6667 24.109 24.4427 24.333 24.1667 24.333H19.5C19.2247 24.333 19 24.5577 19 24.833V32.4996C19 32.775 19.2247 32.9996 19.5 32.9996H32.5C32.7753 32.9996 33 32.775 33 32.4996V24.833C33 24.5577 32.7753 24.333 32.5 24.333H27.8333C27.5573 24.333 27.3333 24.109 27.3333 23.833C27.3333 23.557 27.5573 23.333 27.8333 23.333H32.5C33.3267 23.333 34 24.0063 34 24.833V32.4996C34 33.3263 33.3267 33.9996 32.5 33.9996Z" fill="black"/>
<path d="M25.9991 29.9973C25.7071 29.9973 25.4158 29.928 25.1498 29.79L18.2678 26.1967C18.0238 26.0687 17.9284 25.766 18.0564 25.5213C18.1838 25.278 18.4851 25.1813 18.7318 25.31L25.6118 28.9033C25.8544 29.03 26.1464 29.0287 26.3891 28.9027L33.2678 25.31C33.5144 25.182 33.8151 25.278 33.9431 25.5213C34.0704 25.766 33.9758 26.068 33.7318 26.1967L26.8518 29.79C26.5844 29.928 26.2918 29.9973 25.9991 29.9973Z" fill="black"/>
</g>
<defs>
<filter id="filter0_d" x="0" y="0" width="52" height="52" filterUnits="userSpaceOnUse" color-interpolation-filters="sRGB">
<feFlood flood-opacity="0" result="BackgroundImageFix"/>
<feColorMatrix in="SourceAlpha" type="matrix" values="0 0 0 0 0 0 0 0 0 0 0 0 0 0 0 0 0 0 127 0"/>
<feOffset/>
<feGaussianBlur stdDeviation="3"/>
<feColorMatrix type="matrix" values="0 0 0 0 0 0 0 0 0 0 0 0 0 0 0 0 0 0 0.16 0"/>
<feBlend mode="normal" in2="BackgroundImageFix" result="effect1_dropShadow"/>
<feBlend mode="normal" in="SourceGraphic" in2="effect1_dropShadow" result="shape"/>
</filter>
<clipPath id="clip0">
<rect width="16" height="16" fill="white" transform="translate(18 18)"/>
</clipPath>
</defs>
</svg>
