<svg width="220" height="220" viewBox="0 0 220 220" fill="none" xmlns="http://www.w3.org/2000/svg">
<path opacity="0.2" d="M44.027 104.92C44.1815 104.47 44.8185 104.47 44.973 104.92L45.9282 107.705C46.1361 108.312 46.7062 108.719 47.3471 108.719H50.3185C50.8093 108.719 51.0063 109.352 50.6019 109.631L48.2927 111.22C47.7384 111.602 47.506 112.306 47.7243 112.942L48.628 115.577C48.7844 116.033 48.2686 116.425 47.8716 116.151L45.3505 114.416C44.8383 114.064 44.1617 114.064 43.6495 114.416L41.1284 116.151C40.7314 116.425 40.2156 116.033 40.372 115.577L41.2757 112.942C41.494 112.306 41.2616 111.602 40.7073 111.22L38.3981 109.631C37.9937 109.352 38.1907 108.719 38.6815 108.719H41.6529C42.2938 108.719 42.8639 108.312 43.0718 107.705L44.027 104.92Z" stroke="#B058F8"/>
<path opacity="0.2" d="M40.027 48.9202C40.1815 48.4698 40.8185 48.4698 40.973 48.9202L41.9282 51.7055C42.1361 52.3117 42.7062 52.7188 43.3471 52.7188H46.3185C46.8093 52.7188 47.0063 53.3524 46.6019 53.6307L44.2927 55.2202C43.7384 55.6017 43.506 56.3058 43.7243 56.9424L44.628 59.5773C44.7844 60.0332 44.2686 60.4247 43.8716 60.1514L41.3505 58.4161C40.8383 58.0635 40.1617 58.0635 39.6495 58.4161L37.1284 60.1514C36.7314 60.4247 36.2156 60.0332 36.372 59.5773L37.2757 56.9424C37.494 56.3058 37.2616 55.6017 36.7073 55.2202L34.3981 53.6307C33.9937 53.3524 34.1907 52.7188 34.6815 52.7188H37.6529C38.2938 52.7188 38.8639 52.3117 39.0718 51.7055L40.027 48.9202Z" stroke="#B058F8"/>
<path opacity="0.2" d="M160.027 60.9202C160.182 60.4698 160.818 60.4698 160.973 60.9202L161.928 63.7055C162.136 64.3117 162.706 64.7188 163.347 64.7188H166.318C166.809 64.7188 167.006 65.3524 166.602 65.6307L164.293 67.2202C163.738 67.6017 163.506 68.3058 163.724 68.9424L164.628 71.5773C164.784 72.0332 164.269 72.4247 163.872 72.1514L161.35 70.4161C160.838 70.0635 160.162 70.0635 159.65 70.4161L157.128 72.1514C156.731 72.4247 156.216 72.0332 156.372 71.5773L157.276 68.9424C157.494 68.3058 157.262 67.6017 156.707 67.2202L154.398 65.6307C153.994 65.3524 154.191 64.7188 154.682 64.7188H157.653C158.294 64.7188 158.864 64.3117 159.072 63.7055L160.027 60.9202Z" stroke="#B058F8"/>
<path opacity="0.3" d="M92.0245 30.0816C92.1741 29.6209 92.8259 29.6209 92.9755 30.0816L93.9328 33.0279C94.1337 33.6459 94.7096 34.0643 95.3594 34.0643H98.4574C98.9417 34.0643 99.1431 34.6841 98.7512 34.9688L96.245 36.7898C95.7192 37.1717 95.4993 37.8488 95.7001 38.4668L96.6574 41.4131C96.8071 41.8738 96.2798 42.2568 95.888 41.9721L93.3817 40.1512C92.8559 39.7693 92.1441 39.7693 91.6183 40.1512L89.112 41.9721C88.7202 42.2568 88.1929 41.8738 88.3426 41.4131L89.2999 38.4668C89.5007 37.8488 89.2808 37.1717 88.755 36.7898L86.2488 34.9688C85.8569 34.6841 86.0583 34.0643 86.5426 34.0643H89.6406C90.2904 34.0643 90.8663 33.6459 91.0672 33.0279L92.0245 30.0816Z" stroke="#FFBC00"/>
<path opacity="0.2" d="M188.024 154.082C188.174 153.621 188.826 153.621 188.976 154.082L189.933 157.028C190.134 157.646 190.71 158.064 191.359 158.064H194.457C194.942 158.064 195.143 158.684 194.751 158.969L192.245 160.79C191.719 161.172 191.499 161.849 191.7 162.467L192.657 165.413C192.807 165.874 192.28 166.257 191.888 165.972L189.382 164.151C188.856 163.769 188.144 163.769 187.618 164.151L185.112 165.972C184.72 166.257 184.193 165.874 184.343 165.413L185.3 162.467C185.501 161.849 185.281 161.172 184.755 160.79L182.249 158.969C181.857 158.684 182.058 158.064 182.543 158.064H185.641C186.29 158.064 186.866 157.646 187.067 157.028L188.024 154.082Z" stroke="#B058F8"/>
<path opacity="0.3" d="M35.0245 163.082C35.1741 162.621 35.8259 162.621 35.9755 163.082L36.9328 166.028C37.1337 166.646 37.7096 167.064 38.3594 167.064H41.4574C41.9417 167.064 42.1431 167.684 41.7512 167.969L39.245 169.79C38.7192 170.172 38.4993 170.849 38.7001 171.467L39.6574 174.413C39.8071 174.874 39.2798 175.257 38.888 174.972L36.3817 173.151C35.8559 172.769 35.1441 172.769 34.6183 173.151L32.112 174.972C31.7202 175.257 31.1929 174.874 31.3426 174.413L32.2999 171.467C32.5007 170.849 32.2808 170.172 31.755 169.79L29.2488 167.969C28.8569 167.684 29.0583 167.064 29.5426 167.064H32.6406C33.2904 167.064 33.8663 166.646 34.0672 166.028L35.0245 163.082Z" stroke="#FFBC00"/>
<path opacity="0.2" d="M192.024 115.082C192.174 114.621 192.826 114.621 192.976 115.082L193.933 118.028C194.134 118.646 194.71 119.064 195.359 119.064H198.457C198.942 119.064 199.143 119.684 198.751 119.969L196.245 121.79C195.719 122.172 195.499 122.849 195.7 123.467L196.657 126.413C196.807 126.874 196.28 127.257 195.888 126.972L193.382 125.151C192.856 124.769 192.144 124.769 191.618 125.151L189.112 126.972C188.72 127.257 188.193 126.874 188.343 126.413L189.3 123.467C189.501 122.849 189.281 122.172 188.755 121.79L186.249 119.969C185.857 119.684 186.058 119.064 186.543 119.064H189.641C190.29 119.064 190.866 118.646 191.067 118.028L192.024 115.082Z" stroke="#FFBC00"/>
<circle cx="57.5" cy="72.5" r="2.5" fill="#FFBC00"/>
<circle cx="7.5" cy="89.5" r="1.5" fill="#FFBC00"/>
<circle cx="19.5" cy="115.5" r="1.5" fill="#B058F8"/>
<circle cx="31.5" cy="69.5" r="1.5" fill="#B058F8"/>
<circle cx="130.5" cy="35.5" r="1.5" fill="#B058F8"/>
<circle cx="18.5" cy="156.5" r="1" stroke="#B058F8"/>
<circle cx="122" cy="63" r="1" fill="#B058F8"/>
<circle cx="175.5" cy="138.5" r="2.5" fill="#FFBC00"/>
<circle cx="195.5" cy="76.5" r="2.5" fill="#B058F8"/>
<circle cx="155.5" cy="100.5" r="1.5" fill="#FFBC00"/>
<circle cx="212.5" cy="129.5" r="1.2" stroke="#B058F8" stroke-width="0.6"/>
<rect x="9.09126" y="136.657" width="7.4" height="7.4" rx="0.7" transform="rotate(-45 9.09126 136.657)" stroke="#FFBC00" stroke-width="0.6"/>
<rect x="83.7573" y="59.3232" width="4.73333" height="4.73333" rx="0.7" transform="rotate(-45 83.7573 59.3232)" stroke="#FFBC00" stroke-width="0.6"/>
<rect x="162.424" y="169.438" width="4.73333" height="4.73333" rx="0.7" transform="rotate(-45 162.424 169.438)" stroke="#B058F8" stroke-width="0.6"/>
<rect x="147.757" y="85.9902" width="2.06667" height="2.06667" rx="0.7" transform="rotate(-45 147.757 85.9902)" stroke="#FFBC00" stroke-width="0.6"/>
<path d="M91.8659 133.781H87.0058C86.2815 133.781 85.6943 134.368 85.6943 135.093C85.6942 135.817 86.2813 136.404 87.0058 136.404H91.8659C92.5901 136.404 93.1773 135.817 93.1773 135.093C93.1773 134.368 92.5901 133.781 91.8659 133.781Z" fill="#4137FF"/>
<path d="M125.797 133.781H97.9726C97.2483 133.781 96.6611 134.368 96.6611 135.093C96.6611 135.817 97.2483 136.404 97.9726 136.404H125.797C126.522 136.404 127.109 135.817 127.109 135.093C127.109 134.368 126.521 133.781 125.797 133.781Z" fill="#4137FF"/>
<rect x="91.0452" y="111.024" width="5.33315" height="17.7772" rx="2" transform="rotate(-45 91.0452 111.024)" fill="#B058F8"/>
<rect x="117.704" y="102.091" width="5.33315" height="24.888" rx="2" transform="rotate(45 117.704 102.091)" fill="#B058F8"/>
<path d="M114.83 143.505H87.0058C86.2815 143.505 85.6943 144.092 85.6943 144.816C85.6943 145.541 86.2815 146.128 87.0058 146.128H114.83C115.554 146.128 116.142 145.541 116.142 144.816C116.142 144.092 115.554 143.505 114.83 143.505Z" fill="#4137FF"/>
<path d="M125.794 143.505H120.934C120.21 143.505 119.623 144.092 119.623 144.816C119.623 145.541 120.21 146.128 120.934 146.128H125.794C126.519 146.128 127.106 145.541 127.106 144.816C127.106 144.092 126.519 143.505 125.794 143.505Z" fill="#4137FF"/>
<path opacity="0.1" d="M66.6904 189.969L97.751 163.454L106.842 169.515L114.418 163.454L146.236 189.969L143.963 191.484H67.448L66.6904 189.969Z" fill="#4137FF"/>
<path d="M147.995 133.469C147.977 133.448 147.959 133.427 147.939 133.407C146.909 132.383 145.587 131.759 144.162 131.608C144.152 131.607 144.142 131.606 144.131 131.605C144.044 131.596 143.957 131.59 143.869 131.585C143.849 131.583 143.83 131.581 143.81 131.58C143.704 131.575 143.597 131.572 143.49 131.572H139.216V97.326C139.216 94.9407 137.276 93 134.89 93H77.9119C75.5266 93 73.5859 94.9407 73.5859 97.326V131.572H69.3125C69.2053 131.572 69.0984 131.575 68.992 131.58C68.9721 131.581 68.9526 131.583 68.9327 131.585C68.8452 131.59 68.758 131.596 68.6712 131.604C68.6605 131.605 68.6499 131.607 68.6392 131.608C67.2152 131.759 65.8938 132.383 64.8638 133.407C64.8439 133.426 64.8262 133.448 64.8077 133.468C63.6907 134.608 63 136.167 63 137.885V186.687C63 188.478 63.7511 190.096 64.9531 191.246C64.9702 191.264 64.9865 191.283 65.0046 191.3C65.3253 191.6 65.6733 191.861 66.0415 192.085C66.1266 192.137 66.2131 192.186 66.3002 192.234C66.3052 192.236 66.3102 192.239 66.3152 192.242C66.3972 192.286 66.4803 192.329 66.5641 192.369C66.5751 192.375 66.5863 192.38 66.5973 192.385C66.6751 192.422 66.7536 192.458 66.8329 192.492C66.8507 192.5 66.8684 192.507 66.8862 192.514C66.9592 192.545 67.0328 192.574 67.1069 192.602C67.1312 192.611 67.1555 192.62 67.18 192.628C67.2482 192.653 67.3168 192.676 67.3858 192.698C67.4164 192.708 67.4469 192.718 67.4776 192.727C67.5414 192.746 67.6056 192.765 67.6701 192.782C67.706 192.792 67.7418 192.801 67.7779 192.81C67.8384 192.825 67.8993 192.839 67.9604 192.853C68.0004 192.861 68.0401 192.87 68.0803 192.878C68.139 192.89 68.1983 192.9 68.2575 192.91C68.2999 192.917 68.342 192.925 68.3848 192.931C68.4446 192.94 68.5048 192.947 68.565 192.954C68.6071 192.959 68.649 192.965 68.6912 192.969C68.7578 192.976 68.8249 192.98 68.8919 192.984C68.9281 192.987 68.964 192.99 69.0004 192.992C69.104 192.997 69.2083 193 69.3127 193H143.49C143.594 193 143.698 192.997 143.802 192.992C143.839 192.99 143.875 192.987 143.911 192.984C143.978 192.98 144.045 192.976 144.111 192.969C144.154 192.965 144.196 192.959 144.238 192.954C144.298 192.947 144.358 192.94 144.417 192.931C144.46 192.925 144.503 192.917 144.546 192.91C144.605 192.9 144.663 192.89 144.722 192.878C144.762 192.87 144.803 192.861 144.843 192.852C144.904 192.839 144.964 192.825 145.024 192.811C145.061 192.801 145.097 192.791 145.134 192.781C145.197 192.764 145.261 192.746 145.324 192.727C145.355 192.718 145.386 192.708 145.418 192.698C145.486 192.676 145.553 192.653 145.621 192.629C145.646 192.62 145.671 192.61 145.697 192.601C145.77 192.574 145.842 192.545 145.914 192.515C145.933 192.507 145.952 192.499 145.971 192.491C146.049 192.458 146.126 192.423 146.203 192.386C146.215 192.38 146.227 192.374 146.239 192.368C146.322 192.328 146.404 192.286 146.485 192.243C146.491 192.239 146.497 192.236 146.503 192.233C146.589 192.186 146.674 192.137 146.758 192.086L146.762 192.084C147.129 191.86 147.477 191.599 147.797 191.3C147.816 191.283 147.832 191.264 147.849 191.246C149.051 190.096 149.802 188.478 149.802 186.687V137.885C149.802 136.167 149.112 134.609 147.995 133.469ZM139.216 134.195H143.49C143.615 134.195 143.738 134.202 143.86 134.214C143.887 134.217 143.914 134.222 143.941 134.226C144.037 134.237 144.132 134.25 144.225 134.269C144.246 134.273 144.267 134.28 144.288 134.285C144.387 134.306 144.485 134.33 144.581 134.36C144.592 134.364 144.604 134.369 144.616 134.373C144.705 134.401 144.793 134.434 144.879 134.469L139.216 139.454V134.195ZM76.209 97.326C76.209 96.3869 76.9728 95.6229 77.9119 95.6229H134.89C135.829 95.6229 136.593 96.3869 136.593 97.326V141.763L108.279 166.688C108.185 166.771 108.086 166.843 107.985 166.911C106.929 167.621 105.501 167.548 104.524 166.688L76.209 141.763V97.326ZM68.1813 134.374C68.195 134.37 68.2083 134.364 68.2221 134.36C68.3169 134.331 68.4141 134.307 68.5119 134.285C68.5337 134.28 68.555 134.274 68.5771 134.269C68.6701 134.25 68.7651 134.238 68.8604 134.226C68.8876 134.222 68.9144 134.217 68.9418 134.214C69.0637 134.202 69.1873 134.195 69.3125 134.195H73.5859V139.454L67.9228 134.469C68.0076 134.434 68.0936 134.403 68.1813 134.374ZM66.0817 188.466C65.7899 187.938 65.623 187.332 65.623 186.687V137.885C65.623 137.305 65.761 136.759 65.9998 136.271L96.2001 162.856L66.0817 188.466ZM144.628 190.195C144.589 190.208 144.551 190.219 144.512 190.23C144.442 190.25 144.371 190.268 144.3 190.285C144.258 190.294 144.217 190.303 144.175 190.311C144.1 190.325 144.024 190.336 143.948 190.346C143.91 190.35 143.873 190.356 143.835 190.36C143.721 190.37 143.606 190.377 143.49 190.377H69.3125C69.1958 190.377 69.0808 190.37 68.967 190.36C68.9295 190.356 68.8924 190.35 68.8551 190.346C68.7782 190.336 68.7019 190.325 68.6264 190.311C68.5854 190.303 68.5446 190.294 68.5039 190.285C68.4309 190.269 68.3587 190.25 68.2875 190.229C68.2505 190.219 68.2132 190.208 68.1767 190.196C68.1575 190.19 68.1392 190.182 68.1204 190.176L98.1898 164.607L102.791 168.657C102.919 168.771 103.052 168.877 103.188 168.976C104.143 169.67 105.272 170.017 106.401 170.017C107.047 170.017 107.692 169.903 108.305 169.677C108.917 169.45 109.497 169.11 110.012 168.657L114.613 164.607L144.682 190.176C144.664 190.182 144.646 190.189 144.628 190.195ZM147.179 186.687C147.179 187.332 147.012 187.938 146.721 188.466L116.602 162.856L146.802 136.271C147.041 136.759 147.179 137.305 147.179 137.885V186.687Z" fill="#4137FF"/>
</svg>
