<svg width="24" height="24" viewBox="0 0 24 24" fill="none" xmlns="http://www.w3.org/2000/svg">
<path d="M8.00015 4C7.68455 4 7.42871 4.25584 7.42871 4.57144V5.71428H8.57156V4.57144C8.57156 4.25584 8.31572 4 8.00015 4Z" fill="white"/>
<path d="M16.0001 4C15.6845 4 15.4287 4.25584 15.4287 4.57144V5.71428H16.5716V4.57144C16.5716 4.25584 16.3158 4 16.0001 4Z" fill="white"/>
<path d="M18.2857 5.71387H16.5714V7.99959C16.5714 8.31519 16.3156 8.57103 16 8.57103C15.6844 8.57103 15.4286 8.31519 15.4286 7.99959V5.71387H8.57141V7.99959C8.57141 8.31519 8.31558 8.57103 7.99997 8.57103C7.68437 8.57103 7.42854 8.31519 7.42854 7.99959V5.71387H5.71428C4.76751 5.71387 4 6.48138 4 7.42815V18.2853C4 19.2321 4.76751 19.9996 5.71428 19.9996H18.2857C19.2325 19.9996 20 19.2321 20 18.2853V7.42815C20 6.48138 19.2325 5.71387 18.2857 5.71387ZM18.8571 18.2853C18.8571 18.6009 18.6013 18.8567 18.2857 18.8567H5.71428C5.39868 18.8567 5.14285 18.6009 5.14285 18.2853V10.8567H18.8571V18.2853Z" fill="white"/>
<path d="M15.833 12.1675C15.6099 11.9443 15.248 11.9442 15.0247 12.1672L10.8573 16.3347L8.97555 14.453C8.75226 14.2298 8.39038 14.23 8.16726 14.4533C7.94413 14.6766 7.94426 15.0384 8.16756 15.2616L10.4533 17.5473C10.6764 17.7704 11.0381 17.7704 11.2613 17.5473L15.8327 12.9758C16.056 12.7527 16.0561 12.3908 15.833 12.1675Z" fill="white"/>
</svg>
