<svg width="800" height="600" xmlns="http://www.w3.org/2000/svg">
 <!-- Created with Method Draw - http://github.com/duopixel/Method-Draw/ -->

 <g>
  <title>background</title>
  <rect fill="#fff" id="canvas_background" height="602" width="802" y="-1" x="-1"/>
  <g display="none" overflow="visible" y="0" x="0" height="100%" width="100%" id="canvasGrid">
   <rect fill="url(#gridpattern)" stroke-width="0" y="0" x="0" height="100%" width="100%"/>
  </g>
 </g>
 <g>
  <title>Layer 1</title>
  <g id="svg_6">
   <path id="svg_4" fill="#ffffff" d="m415.216832,41.34809l-6.576923,0l0,-6.577219c0,-4.771745 -3.868343,-8.63994 -8.639053,-8.63994c-4.772189,0 -8.640532,3.868195 -8.640532,8.63994l0,6.577219l-6.575443,0c-4.772189,0 -8.640532,3.868047 -8.640532,8.63994c0,4.771893 3.868343,8.63994 8.640532,8.63994l6.575443,0l0,6.576183c0,4.772189 3.868343,8.640532 8.640532,8.640532c4.77071,0 8.639053,-3.868343 8.639053,-8.640532l0,-6.576183l6.576923,0c4.77071,0 8.639053,-3.868047 8.639053,-8.63994c0,-4.771893 -3.868343,-8.63994 -8.639053,-8.63994z"/>
   <path id="svg_5" fill="#ffffff" d="m653.039303,566.306196l-25.249999,-147.831352c-2.739645,-16.034023 -14.115384,-28.9142 -29.687868,-33.610945l-113.352065,-34.201181c-5,-1.508876 -10.187869,-0.852071 -14.497041,1.5c-4.028106,-3.587278 -6.965976,-9.721893 -6.965976,-15.402366l0,-28.295856c0.292899,-0.251479 0.585799,-0.504438 0.877219,-0.754438c0.436391,-0.37574 0.899408,-0.781065 1.37574,-1.202663l11.10207,0c15.411242,0 29.707099,-6.187869 40.254436,-17.424555c10.547337,-11.235206 15.821005,-25.89201 14.846153,-41.272187l-3.076923,-48.610944l0,-0.727811c0,-1.326923 -0.100592,-2.628698 -0.292899,-3.903846l-3.446745,-54.440825c-0.301775,-4.761834 -4.418639,-8.375739 -9.167159,-8.078402c-4.763313,0.301775 -8.380177,4.406804 -8.078402,9.170118l2.038461,32.210057c-2.252958,-0.637574 -4.627219,-0.988166 -7.084319,-0.988166l-0.480769,0c-2.539941,-3.852071 -6.751479,-6.511834 -11.7071,-6.958579c-89.689344,-8.071005 -115.510348,-34.855028 -134.366856,-54.414198c-3.918639,-4.065089 -10.347633,-4.375739 -19.103549,-0.923077c-15.221893,5.99852 -41.133134,25.386093 -41.699702,60.005914c0,0.047337 -0.001479,0.094675 -0.001479,0.142012l0,2.232248c-1.717456,0.136095 -3.386094,0.446746 -4.995562,0.902367l2.66568,-42.100589c1.418639,-22.396448 12.692307,-42.360944 30.678992,-55.057689l0.653846,1.70858c4.337278,11.334319 15.405325,18.948224 27.541419,18.948224l98.616858,0c12.134615,0 23.202661,-7.613905 27.541419,-18.948224l0.150888,-0.39497c9.335798,7.034023 16.83136,16.158283 21.93491,26.822484c1.485207,3.100592 4.576923,4.911242 7.800295,4.911242c1.25,0 2.52071,-0.273669 3.723373,-0.849112c4.304733,-2.059171 6.12426,-7.218934 4.063609,-11.523668c-7.031065,-14.687869 -17.718934,-27.01775 -31.143489,-36.030915l5.949704,-15.547632c2.261834,-5.910207 1.810651,-12.480473 -1.236686,-18.025443c-3.048816,-5.543935 -8.352071,-9.446745 -14.551774,-10.705325l-49.588755,-10.070709c-15.89497,-3.228994 -32.010353,-3.228994 -47.905323,0l-49.587275,10.068491c-6.199704,1.25858 -11.504437,5.160207 -14.553254,10.70636c-3.047337,5.546154 -3.498521,12.115236 -1.235207,18.025443l5.494083,14.354881c-24.360945,15.49852 -39.74556,41.332838 -41.593193,70.514789l-4.094674,64.677511c-0.159763,1.16568 -0.27071,2.347633 -0.27071,3.557692l0,0.727811l-3.076923,48.609465c-0.974852,15.378697 4.298816,30.03846 14.846153,41.273666c10.547337,11.235206 24.843194,17.423076 40.254436,17.423076l11.10207,0c0.476331,0.421598 0.939349,0.828402 1.37574,1.204142c0.29142,0.25 0.584319,0.501479 0.877219,0.754438l0,28.295856c0,5.680473 -2.93787,11.815088 -6.967455,15.402366c-4.307692,-2.352071 -9.497041,-3.010355 -14.494082,-1.501479l-113.353544,34.201181c-15.571005,4.698225 -26.946744,17.578401 -29.687868,33.610945l-9.483727,55.532541c-0.803254,4.704142 2.357988,9.168639 7.06213,9.971893c4.698225,0.810651 9.168639,-2.357988 9.970414,-7.06213l9.485207,-55.532541c1.628698,-9.529585 8.389053,-17.18491 17.644969,-19.97633l113.353544,-34.202661c0.742604,-0.223373 1.531065,0.116864 1.881657,0.804734c0,0.001479 0.002959,0.004438 0.002959,0.004438l54.119819,106.923071c1.423077,2.815089 3.292899,5.295858 5.495562,7.375739c4.846154,4.579881 11.316567,7.221893 18.254437,7.221893c4.41716,0 8.642011,-1.069527 12.380177,-3.028106c4.806213,-2.519231 8.807692,-6.504437 11.37278,-11.571005l54.122778,-106.926029c0.347633,-0.690828 1.139053,-1.034024 1.881657,-0.804734l113.353544,34.201181c9.255917,2.792899 16.016271,10.448224 17.64349,19.97633l25.251478,147.831352c0.545858,3.195266 -0.877219,5.455621 -1.775148,6.51923c-0.897929,1.063609 -2.886095,2.847633 -6.127219,2.847633l-53.525145,0l-14.121301,-82.670114c-0.803254,-4.702662 -5.264793,-7.868343 -9.971893,-7.06213c-4.704142,0.803254 -7.865384,5.267751 -7.06213,9.971893l13.62426,79.758871l-314.090219,0l13.62426,-79.758871c0.803254,-4.704142 -2.357988,-9.168639 -7.06213,-9.971893c-4.701183,-0.804734 -9.168639,2.357988 -9.971893,7.06213l-14.121301,82.670114l-53.525145,0c-3.242603,0 -5.230769,-1.784024 -6.128698,-2.847633c-0.89645,-1.063609 -2.319526,-3.325444 -1.775148,-6.51923l8.79142,-51.463015c0.803254,-4.702662 -2.359467,-9.167159 -7.063609,-9.970414c-4.700887,-0.806213 -9.167603,2.357988 -9.970857,7.06213l-8.790236,51.461536c-1.257396,7.365384 0.78358,14.863904 5.600591,20.573963c4.816864,5.70858 11.864644,8.983727 19.336537,8.983727c0.008876,0 0,0 0.008876,0l456.198199,0c7.470414,0 14.517751,-3.275148 19.335798,-8.983727c4.815088,-5.705621 6.857988,-13.204141 5.599112,-20.568046zm-324.85797,-530.641981c0.349112,-0.636686 1.184911,-1.756657 2.846154,-2.094083l49.587275,-10.069526c6.807692,-1.381065 13.659763,-2.072189 20.513312,-2.072189c6.852071,0 13.708579,0.691124 20.513312,2.072189l49.588755,10.069526c0,0 0,0 0,0.001183c1.659763,0.336243 2.495562,1.456213 2.846154,2.092899c0.350592,0.638018 0.847633,1.942751 0.242604,3.526035l-12.480769,32.611537c-1.795858,4.692307 -6.378698,7.844674 -11.402366,7.844674l-98.615379,0c-5.023668,0 -9.606508,-3.152367 -11.402366,-7.844674l-12.479289,-32.611537c-0.606509,-1.582101 -0.107988,-2.888018 0.242604,-3.526035zm186.315078,213.238153c0.668639,10.566567 -2.954142,20.634614 -10.199704,28.353549c-5.884615,6.26923 -13.465976,10.249999 -21.778105,11.525147c9.499999,-11.760354 18.826922,-27.300294 21.460058,-45.041418c3.58284,-0.181953 6.967455,-1.107988 10.026627,-2.602071l0.491124,7.764792zm-218.792887,28.353549c-7.247041,-7.718934 -10.868343,-17.788461 -10.201183,-28.353549l0.492604,-7.763313c3.059171,1.494083 6.443787,2.418639 10.026627,2.602071c2.631657,17.739644 11.960058,33.279584 21.460058,45.041418c-8.31213,-1.276627 -15.89497,-5.257396 -21.778105,-11.526627zm113.713011,187.735196l-1.08284,2.142012c-0.153846,0.303254 -0.33432,0.585799 -0.513314,0.865385c-0.057692,0.088757 -0.10503,0.18787 -0.162722,0.275148c-0.109467,0.158284 -0.238166,0.294379 -0.35503,0.445266c-0.414201,0.529586 -0.865385,1.025148 -1.372781,1.443787c-0.106509,0.088757 -0.226331,0.158284 -0.335799,0.242604c-1.571006,1.180473 -3.495562,1.849112 -5.594674,1.849112c-3.594674,0 -6.710059,-1.914201 -8.334319,-5.119822l-35.881655,-70.894966l88.433427,0l-34.800294,68.751475zm43.547335,-86.032539l-105.927509,0l-6.674556,-13.18639c8.142011,-6.81065 13.633135,-17.928993 13.633135,-29.013312l0,-14.908283c11.31065,7.275148 25.464496,12.917159 45.909761,13.14497c0.032544,0 0.063609,0 0.096154,0c0.032544,0 0.063609,0 0.096154,0c20.445265,-0.227811 34.59911,-5.869822 45.909761,-13.14349l0,14.908283c0,11.084319 5.489645,22.202661 13.631656,29.013312l-6.674556,13.18491zm-0.075444,-84.34319c-15.97781,13.758875 -28.295856,22.801774 -52.887571,23.099111c-24.591715,-0.297337 -36.909761,-9.341715 -52.88905,-23.099111c-21.211537,-18.264792 -34.119821,-40.569524 -34.531063,-59.667156c-0.100592,-4.698225 -3.93787,-8.455621 -8.637573,-8.455621l-6.576923,0c-4.825444,0 -8.749999,-3.924556 -8.749999,-8.74852l0,-19.272188c0,-0.402367 0.036982,-0.795858 0.090237,-1.184911c0.025148,-0.131657 0.042899,-0.264793 0.06213,-0.397929c0.747041,-4.071006 4.315089,-7.167159 8.599112,-7.167159l6.550295,0c4.772189,0 8.640532,-3.868343 8.640532,-8.639053l0,-10.714496c0.517751,-29.24556 25.408283,-42.91124 33.291418,-45.032542c25.338756,25.849111 56.480766,49.355027 141.723365,57.238162c0.705621,4.060651 4.24852,7.147929 8.511834,7.147929l6.550295,0c4.284023,0 7.850591,3.096154 8.599112,7.167159c0.019231,0.134615 0.036982,0.266272 0.06213,0.397929c0.053254,0.387574 0.090237,0.782544 0.090237,1.184911l0,19.272188c0,4.823964 -3.924556,8.74852 -8.749999,8.74852l-6.576923,0c-4.699704,0 -8.536982,3.757396 -8.637573,8.455621c-0.412722,19.096153 -13.322484,41.402364 -34.534022,59.667156z"/>
  </g>
 </g>
</svg>