<svg width="24" height="24" viewBox="0 0 24 24" fill="none" xmlns="http://www.w3.org/2000/svg">
<path d="M16.7188 5.4375H7.28125C5.47192 5.4375 4 6.90942 4 8.71875V13.7866C4 15.2303 4.94788 16.4878 6.32141 16.8903L7.90613 18.4751C7.99414 18.563 8.11328 18.6124 8.23767 18.6124C8.36194 18.6124 8.4812 18.563 8.56909 18.4751L10.0228 17.0212H16.7188C18.5281 17.0212 20 15.5493 20 13.74V8.71875C20 6.90942 18.5281 5.4375 16.7188 5.4375ZM19.0625 13.74C19.0625 15.0323 18.0111 16.0837 16.7188 16.0837H9.82874C9.70447 16.0837 9.58521 16.1332 9.49731 16.2211L8.23767 17.4807L6.89612 16.1392C6.83594 16.079 6.7605 16.0363 6.67786 16.0157C5.6532 15.7607 4.9375 14.8441 4.9375 13.7866V8.71875C4.9375 7.42639 5.98889 6.375 7.28125 6.375H16.7188C18.0111 6.375 19.0625 7.42639 19.0625 8.71875V13.74Z" fill="black"/>
<path d="M14.9761 9.93213H9.02344C8.76453 9.93213 8.55469 10.1421 8.55469 10.4009C8.55469 10.6598 8.76453 10.8696 9.02344 10.8696H14.9761C15.235 10.8696 15.4448 10.6598 15.4448 10.4009C15.4448 10.1421 15.235 9.93213 14.9761 9.93213Z" fill="black"/>
<path d="M14.9761 11.5889H9.02344C8.76453 11.5889 8.55469 11.7987 8.55469 12.0576C8.55469 12.3165 8.76453 12.5264 9.02344 12.5264H14.9761C15.235 12.5264 15.4448 12.3165 15.4448 12.0576C15.4448 11.7987 15.235 11.5889 14.9761 11.5889Z" fill="black"/>
</svg>
