<svg width="800" height="600" xmlns="http://www.w3.org/2000/svg">
 <!-- Created with Method Draw - http://github.com/duopixel/Method-Draw/ -->

 <g>
  <title>background</title>
  <rect fill="#fff" id="canvas_background" height="602" width="802" y="-1" x="-1"/>
 </g>
 <g>
  <title>Layer 1</title>
  <g id="svg_12">
   <path id="svg_4" fill="#ffffff" d="m388.211532,318.294376l-65.627215,-19.687869l0,-26.582839c24.252957,-17.958579 40.66272,-45.939346 42.991122,-77.78254c12.670118,-3.813609 21.924555,-15.588757 21.924555,-29.483726c0,-8.995562 -4.042899,-17.520709 -10.819526,-23.315087l0,-63.241121c0,-17.337425 -8.781065,-33.555028 -23.171596,-43.273518c-4.81213,-18.076626 -21.026626,-30.785649 -40.069524,-30.785649l-86.554729,0c-46.803252,0 -84.879285,38.075737 -84.879285,84.878693l0,52.421595c-6.776923,5.794378 -10.819378,14.319526 -10.819378,23.315087c0,13.89497 9.255325,25.670117 21.923963,29.483726c2.329734,31.843193 18.737721,59.823961 42.992157,77.78254l0,26.582839l-78.546741,23.563608c-17.732839,5.319526 -29.64704,21.332839 -29.64704,39.847631l0,105.681947c0,5.050296 4.093639,9.143491 9.143195,9.143491l1.676183,0l0,109.869816c0,5.050296 4.093787,9.143491 9.143195,9.143491c5.049408,0 9.143195,-4.093195 9.143195,-9.143491l0,-109.869816l35.810649,0l0,109.869816c0,5.050296 4.093639,9.143491 9.142751,9.143491c5.050296,0 9.143491,-4.093195 9.143491,-9.143491l0,-173.109458c0,-1.420118 -0.329882,-2.821006 -0.965976,-4.088757l-21.638312,-43.278104c-2.257692,-4.516272 -7.74852,-6.347633 -12.266419,-4.088757c-4.516716,2.257396 -6.347781,7.75 -4.088757,12.266271l20.673224,41.347631l0,42.794376l-44.953844,0l-1.676331,0l0,-96.538456c0,-10.375739 6.678254,-19.350591 16.616271,-22.332839l32.833578,-9.850591c11.161834,47.428991 54.117453,82.091711 103.698811,82.091711c25.492602,0 50.15976,-9.147928 69.457097,-25.757395c17.137573,-14.751478 29.093194,-34.544377 34.220412,-56.341713l19.93491,5.982248c0.87574,0.263314 1.760355,0.387574 2.630177,0.387574c3.933432,0 7.566568,-2.557692 8.754437,-6.517751c1.451183,-4.837278 -1.292899,-9.933431 -6.128698,-11.384615zm-217.100579,-131.899401c0,-5.048816 -4.093195,-9.142011 -9.143491,-9.142011c-6.88994,0 -12.495266,-5.606509 -12.495266,-12.495561c0,-4.43639 2.345562,-8.448224 6.274704,-10.735206c0.202367,-0.118343 0.386391,-0.257396 0.577811,-0.389053c1.739645,-0.884615 3.669378,-1.371302 5.642751,-1.371302l13.840236,0c8.606508,0 16.217455,-5.486686 18.939348,-13.650887l6.298816,-18.896449c21.494082,-0.473373 89.236681,-3.482248 127.301768,-22.516271c4.516272,-2.257396 6.347633,-7.75 4.088757,-12.266271c-2.257396,-4.516272 -7.74852,-6.347633 -12.266271,-4.088757c-40.8284,20.4142 -124.90088,20.673076 -125.745555,20.673076c-3.934911,0.001479 -7.428994,2.519231 -8.671597,6.251479l-8.35355,25.060649c-0.22929,0.684911 -0.866864,1.14645 -1.591716,1.14645l-13.840236,0c-0.559172,0 -1.117456,0.023669 -1.675887,0.054734l0,-45.008873c0,-36.718637 29.874111,-66.592452 66.593044,-66.592452l86.554729,0c11.468934,0 21.106508,8.265532 22.9142,19.652957c0.43787,2.755177 2.109467,5.160355 4.538461,6.530621c10.794378,6.088165 17.499999,17.425147 17.499999,29.589347l0,67.918635c0,3.254438 1.730769,6.264793 4.544378,7.902366c3.928994,2.286982 6.275148,6.298816 6.275148,10.735206c0,6.889053 -5.605029,12.495561 -12.495561,12.495561c-5.050296,0 -9.143491,4.093195 -9.143491,9.142011c0,48.652364 -39.579879,88.232243 -88.230764,88.232243c-48.652364,0 -88.230764,-39.581359 -88.230764,-88.232243zm133.184904,96.544373l0,22.470413c0,24.786981 -20.165679,44.95266 -44.95266,44.95266c-24.749999,0 -44.887571,-20.10207 -44.95266,-44.835796c0,-0.044379 -0.001479,-0.088757 -0.001479,-0.131657l0,-22.45562c13.667159,6.389053 28.896448,9.973372 44.954139,9.973372c16.056212,0 31.285501,-3.58284 44.95266,-9.973372zm12.572484,89.371297c-15.979289,13.754437 -36.409761,21.32988 -57.525145,21.32988c-41.449702,0 -77.291416,-29.242602 -86.128693,-69.07544l24.035502,-7.210059c5.600591,29.176034 31.306211,51.294376 62.093192,51.294376c30.785501,0 56.491121,-22.118342 62.091712,-51.295855l24.034022,7.211538c-4.097633,18.470413 -14.113905,35.278104 -28.60059,47.745559z"/>
   <path id="svg_5" fill="#ffffff" d="m286.741124,211.755921c-3.921597,-3.181952 -9.678994,-2.579882 -12.859467,1.341716c-3.889053,4.795858 -9.051775,7.43639 -14.538461,7.43639c-5.485207,0 -10.647928,-2.640532 -14.536981,-7.43639c-3.178994,-3.921597 -8.939349,-4.522189 -12.860946,-1.341716c-3.921597,3.180473 -4.52071,8.937869 -1.340237,12.860946c7.319526,9.023668 17.792898,14.201183 28.736685,14.201183c10.943786,0 21.418638,-5.177514 28.741123,-14.201183c3.180473,-3.923077 2.579882,-9.680473 -1.341716,-12.860946z"/>
   <path id="svg_6" fill="#ffffff" d="m216.057696,155.613912c-5.048816,0 -9.142011,4.093195 -9.142011,9.143491l0,10.819526c0,5.048816 4.093195,9.142011 9.142011,9.142011c5.050296,0 9.143491,-4.093195 9.143491,-9.142011l0,-10.819526c0,-5.048816 -4.093195,-9.143491 -9.143491,-9.143491z"/>
   <path id="svg_7" fill="#ffffff" d="m302.616862,155.613912c-5.048816,0 -9.143491,4.093195 -9.143491,9.143491l0,10.819526c0,5.048816 4.094674,9.142011 9.143491,9.142011c5.050296,0 9.143491,-4.093195 9.143491,-9.142011l0,-10.819526c0,-5.048816 -4.093195,-9.143491 -9.143491,-9.143491z"/>
   <path id="svg_8" fill="#ffffff" d="m578.865367,265.850592c-3.921597,-3.181952 -9.678994,-2.581361 -12.859467,1.340237c-3.889053,4.795858 -9.051775,7.43639 -14.538461,7.43639c-5.485207,0 -10.647928,-2.640532 -14.536981,-7.43639c-3.178994,-3.921597 -8.939349,-4.522189 -12.860946,-1.340237c-3.921597,3.180473 -4.52071,8.937869 -1.340237,12.859467c7.321005,9.026627 17.795857,14.202662 28.739643,14.202662c10.943786,0 21.415679,-5.176035 28.738164,-14.202662c3.180473,-3.920118 2.579882,-9.678994 -1.341716,-12.859467z"/>
   <path id="svg_9" fill="#ffffff" d="m508.211525,209.711542c-5.048816,0 -9.142011,4.093195 -9.142011,9.143491l0,10.819526c0,5.048816 4.093195,9.142011 9.142011,9.142011c5.050296,0 9.143491,-4.093195 9.143491,-9.142011l0,-10.819526c0,-5.051775 -4.093195,-9.143491 -9.143491,-9.143491z"/>
   <path id="svg_10" fill="#ffffff" d="m594.741106,209.711542c-5.048816,0 -9.143491,4.093195 -9.143491,9.143491l0,10.819526c0,5.048816 4.094674,9.142011 9.143491,9.142011c5.050296,0 9.143491,-4.093195 9.143491,-9.142011l0,-10.819526c0,-5.048816 -4.093195,-9.143491 -9.143491,-9.143491z"/>
   <path id="svg_11" fill="#ffffff" d="m685.940805,396.954135l-74.189345,-29.677513c-0.630177,-0.251479 -1.22929,-0.553254 -1.797337,-0.893491c50.248518,-10.118343 73.779582,-19.628697 74.821002,-20.054733c3.821006,-1.565089 6.118343,-5.49852 5.606509,-9.594674c-0.107988,-0.860947 -10.74852,-86.850587 -10.74852,-161.158275c0,-70.665676 -57.491121,-128.156206 -128.156797,-128.156206c-70.665676,0 -128.156797,57.492009 -128.156797,128.159164c0,74.272185 -10.640532,160.295849 -10.74852,161.156796c-0.511834,4.097633 1.785503,8.029585 5.606509,9.596153c1.04142,0.426035 24.573963,9.934911 74.822481,20.054733c-0.569527,0.340237 -1.168639,0.640533 -1.798816,0.893491l-74.187866,29.674555c-15.886094,6.355029 -26.150886,21.516271 -26.150886,38.625737l0,22.979289l-24.992602,0l0,-42.795856l20.674555,-41.347631c2.258876,-4.516272 0.427515,-10.008875 -4.090236,-12.266271c-4.516272,-2.258876 -10.007396,-0.427515 -12.266271,4.088757l-21.637573,43.278104c-0.636095,1.27071 -0.965976,2.668639 -0.965976,4.088757l0,173.110937c0,5.048816 4.093195,9.142011 9.143491,9.142011c5.048816,0 9.142011,-4.093195 9.142011,-9.142011l0,-109.871295l24.992602,0l0,12.501479c0,2.426035 0.963018,4.751479 2.678994,6.467455c1.714497,1.713018 4.038461,2.674556 6.463017,2.674556c0.001479,0 0.002959,0 0.005917,0l1.670118,0l0,88.227806c0,5.048816 4.094674,9.142011 9.143491,9.142011c5.050296,0 9.143491,-4.093195 9.143491,-9.142011l0,-88.232243l24.991123,0l0,88.232243c0,5.048816 4.093195,9.142011 9.143491,9.142011c5.048816,0 9.143491,-4.093195 9.143491,-9.142011l0,-119.013307c0,-5.050296 -4.094674,-9.143491 -9.143491,-9.143491c-5.050296,0 -9.143491,4.093195 -9.143491,9.143491l0,12.495561l-35.810649,0l0,-44.61982c0,-9.588757 5.752958,-18.085798 14.655325,-21.646448l36.471891,-14.588757c12.531064,39.514791 49.291417,66.681949 91.201178,66.681949c41.909761,0 78.670114,-27.168637 91.201178,-66.681949l36.471891,14.588757c8.902366,3.560651 14.655325,12.059171 14.655325,21.646448l0,44.61982l-35.810649,0l0,-12.495561c0,-5.050296 -4.093195,-9.143491 -9.143491,-9.143491c-5.048816,0 -9.142011,4.093195 -9.142011,9.143491l0,119.013307c0,5.048816 4.093195,9.142011 9.142011,9.142011c5.050296,0 9.143491,-4.093195 9.143491,-9.142011l0,-88.232243l24.991123,0l0,88.232243c0,5.048816 4.094674,9.142011 9.143491,9.142011c5.048816,0 9.143491,-4.093195 9.143491,-9.142011l0,-88.232243l1.676035,0c5.048816,0 9.143491,-4.093195 9.143491,-9.143491l0,-53.761831c0,-17.109466 -10.264792,-32.269229 -26.150886,-38.624258zm-244.335785,-221.377206c0.001479,-60.584316 49.288459,-109.869816 109.871295,-109.869816c60.582837,0 109.869816,49.286979 109.869816,109.869816c0,62.770706 7.465976,133.640525 10.035502,156.162713c-10.130177,3.440828 -32.297335,10.223372 -67.483724,17.20562l0,-15.739644c5.075443,-2.865384 9.930473,-6.143491 14.494082,-9.83284c18.578401,-15.014792 31.70414,-36.045856 36.961536,-59.214494c1.751479,-7.720414 2.640532,-15.681952 2.640532,-23.6642c0,-53.255914 -38.575442,-60.914198 -75.880173,-68.321002c-23.856508,-4.736686 -48.526624,-9.634615 -68.204138,-25.375738c-2.150887,-1.721893 -4.970414,-2.37574 -7.662721,-1.786982c-2.692308,0.588757 -4.97929,2.363905 -6.220414,4.826923c-0.051775,0.100592 -5.174556,10.184911 -13.838757,20.004437c-7.337278,8.316568 -18.860946,18.230768 -32.087276,18.230768c-4.501479,0 -8.776627,0.97929 -12.633135,2.723373c0.088757,-5.10355 0.137574,-10.187869 0.137574,-15.218934zm109.871295,153.1494c-20.4142,0 -39.5784,-6.76923 -55.420115,-19.575443c-15.396449,-12.443786 -26.272188,-29.859466 -30.625738,-49.039938c-1.449704,-6.393491 -2.184911,-12.995561 -2.184911,-19.616863c0,-5.050296 -4.094674,-9.143491 -9.143491,-9.143491c-6.890532,0 -12.495561,-5.605029 -12.495561,-12.495561c0,-6.890532 5.605029,-12.495561 12.495561,-12.495561c27.72485,0 47.835796,-25.106507 56.917157,-39.152365c21.322484,13.72781 45.710057,18.569526 67.53402,22.903845c40.184909,7.97781 61.155322,13.841715 61.155322,50.383133c0,6.62426 -0.736686,13.223372 -2.18639,19.618342c-4.352071,19.178993 -15.229289,36.596152 -30.624259,49.039938c-15.843194,12.804733 -35.005915,19.573963 -55.421594,19.573963zm-119.903839,3.013313c1.616864,-14.187869 5.177514,-47.55769 7.591716,-85.999995c1.91568,1.068047 3.943787,1.954142 6.081361,2.599112c0.389053,5.337278 1.176035,10.631656 2.35355,15.819526c5.257396,23.168638 18.384614,44.199702 36.961536,59.214494c4.563609,3.689349 9.418639,6.967455 14.495561,9.83284l0,15.739644c-35.193785,-6.983727 -57.360943,-13.764792 -67.483724,-17.20562zm119.903839,115.999993c-34.353548,0 -64.437866,-22.554732 -74.176031,-55.205618l20.690827,-8.276627c11.754437,-4.701183 19.350591,-15.920117 19.350591,-28.57988l0,-14.318047c10.934911,3.698225 22.470413,5.653846 34.134613,5.653846c11.664201,0 23.199703,-1.955621 34.134613,-5.653846l0,14.318047c0,12.659763 7.594674,23.878697 19.349111,28.57988l20.692307,8.278106c-9.736686,32.646448 -39.821004,55.204139 -74.176031,55.204139z"/>
  </g>
 </g>
</svg>