<svg width="24" height="24" viewBox="0 0 24 24" fill="none" xmlns="http://www.w3.org/2000/svg">
<path d="M12 7.65731L11.5948 7.09707C11.3206 6.71783 11.0128 6.39749 10.6777 6.13833L10.6776 6.13831C10.0189 5.62884 9.2802 5.375 8.4696 5.375C7.3719 5.375 6.36919 5.81263 5.63681 6.60695L12 7.65731ZM12 7.65731L12.4051 7.09709M12 7.65731L12.4051 7.09709M12.4051 7.09709C12.6795 6.71773 12.9872 6.3975 13.3222 6.13833C13.9811 5.62884 14.7198 5.375 15.5304 5.375C16.6281 5.375 17.6307 5.81263 18.3631 6.60697C19.0886 7.39393 19.5 8.48226 19.5 9.68335C19.5 10.893 19.0559 12.0226 18.0282 13.2625L18.0282 13.2625C17.0934 14.3905 15.7397 15.5462 14.1167 16.9292L14.1167 16.9293L14.1023 16.9415C13.5554 17.4077 12.9341 17.9373 12.2891 18.5013L12.2889 18.5015C12.2094 18.5712 12.1068 18.6099 12 18.6099C11.8933 18.6099 11.7908 18.5713 11.7109 18.5013L11.7106 18.501C11.0608 17.9329 10.4353 17.3998 9.88562 16.9313L9.88366 16.9296L9.88363 16.9296M12.4051 7.09709L9.88363 16.9296M9.88363 16.9296C8.26041 15.5463 6.9067 14.3905 5.9719 13.2626C4.9442 12.0225 4.5 10.893 4.5 9.68347C4.5 8.48228 4.9114 7.39395 5.63676 6.60699L9.88363 16.9296Z" stroke="#FF002B"/>
</svg>
