<svg width="24" height="24" viewBox="0 0 24 24" fill="none" xmlns="http://www.w3.org/2000/svg">
<path d="M15.9649 8.0021L13.9513 6.87635C14.622 6.38118 15.0565 5.59509 15.0565 4.71152C15.0565 3.21634 13.8131 2 12.2846 2C10.7562 2 9.51277 3.21634 9.51277 4.71152C9.51277 5.59527 9.94748 6.38137 10.6184 6.87672L8.60456 8.00396C8.22329 8.21788 7.99167 8.61762 8.00023 9.04917L8.01544 9.68664C8.02172 9.94967 8.24459 10.1574 8.51347 10.1517C8.78236 10.1455 8.99515 9.92734 8.98888 9.66451L8.97367 9.02871C8.97176 8.93105 9.03204 8.86204 9.08852 8.83042L11.5484 7.45336C11.5838 7.43346 11.622 7.42341 11.6627 7.42341H11.6629L12.9066 7.42286C12.9513 7.42286 12.9927 7.43457 13.0298 7.45764C13.0361 7.46155 13.0425 7.46527 13.0492 7.46899L15.4817 8.82875C15.5607 8.87283 15.6057 8.95858 15.5966 9.04713C15.5955 9.05922 15.5945 9.07131 15.5943 9.0834L15.4217 16.3095C15.4194 16.4174 15.3427 16.491 15.2676 16.5163C15.2638 16.5176 15.2598 16.5189 15.256 16.5204L13.8639 17.0275C13.6737 17.0969 13.5474 17.2743 13.547 17.4728L13.5404 20.8218C13.5404 20.9447 13.4381 21.045 13.3116 21.045L11.2569 21.0476C11.1297 21.0476 11.0261 20.9464 11.0261 20.8218C11.0261 19.8554 11.0249 18.7915 11.0223 17.473C11.0219 17.2743 10.8956 17.0969 10.7055 17.0277L9.29637 16.5143C9.19444 16.4771 9.14823 16.3833 9.14766 16.3067C9.14766 16.3043 9.14747 16.3017 9.14747 16.2992L9.07997 13.4729C9.07369 13.2099 8.84949 13.002 8.58193 13.0079C8.31304 13.0141 8.10025 13.2322 8.10653 13.4951L8.17404 16.3184C8.17993 16.8011 8.49389 17.2381 8.95655 17.4068L10.0494 17.8048C10.0515 18.9724 10.0525 19.938 10.0525 20.8218C10.0525 21.4715 10.5929 22 11.2577 22L13.3122 21.9972C13.9749 21.9972 14.514 21.4699 14.514 20.8227L14.5199 17.8048L15.5907 17.4148C16.0623 17.2531 16.3852 16.8173 16.3949 16.3299L16.5674 9.12172C16.6056 8.66691 16.3709 8.22922 15.9649 8.0021ZM12.2848 2.95239C13.2763 2.95239 14.0829 3.74146 14.0829 4.71152C14.0829 5.6814 13.2763 6.47047 12.2848 6.47047C11.2931 6.47047 10.4864 5.6814 10.4864 4.71152C10.4864 3.74165 11.2931 2.95239 12.2848 2.95239Z" fill="white"/>
<path d="M8.35714 11.9999C8.55441 11.9999 8.71429 11.8401 8.71429 11.6429V11.6426C8.71429 11.4455 8.55441 11.2856 8.35714 11.2856C8.15988 11.2856 8 11.4456 8 11.6429C8 11.8401 8.15988 11.9999 8.35714 11.9999Z" fill="white"/>
</svg>
