<svg width="24" height="24" viewBox="0 0 24 24" fill="none" xmlns="http://www.w3.org/2000/svg">
<path d="M7.33325 9.99951C8.06958 9.99951 8.6665 9.40259 8.6665 8.66626C8.6665 7.92992 8.06958 7.33301 7.33325 7.33301C6.59692 7.33301 6 7.92992 6 8.66626C6 9.40259 6.59692 9.99951 7.33325 9.99951Z" fill="#4137FF"/>
<path d="M10.3329 15.6659C10.3329 13.0674 12.2021 10.9002 14.666 10.4303V5.99987C14.666 4.89728 13.7687 4 12.6661 4H5.99987C4.89728 4 4 4.89728 4 5.99987V15.3326C4 16.4352 4.89728 17.3325 5.99987 17.3325H10.6036C10.4303 16.8072 10.3329 16.2486 10.3329 15.6659ZM7.1598 12.1195C6.71983 11.6795 5.94654 11.6795 5.50657 12.1195L5.33325 12.2921V5.99987C5.33325 5.6319 5.6319 5.33325 5.99987 5.33325H12.6661C13.0341 5.33325 13.3327 5.6319 13.3327 5.99987V10.2923L12.8261 9.78563C12.3701 9.32966 11.6282 9.32966 11.1729 9.78563L7.99975 12.9588L7.1598 12.1195Z" fill="#4137FF"/>
<path d="M15.6661 11.3291C13.2769 11.3291 11.333 13.273 11.333 15.6622C11.333 18.0513 13.2769 19.9952 15.6661 19.9952C18.0552 19.9952 19.9991 18.0513 19.9991 15.6622C19.9991 13.273 18.0552 11.3291 15.6661 11.3291ZM17.4993 16.3288H16.3327V17.4954C16.3327 17.864 16.0347 18.162 15.6661 18.162C15.2974 18.162 14.9994 17.864 14.9994 17.4954V16.3288H13.8328C13.4642 16.3288 13.1662 16.0308 13.1662 15.6622C13.1662 15.2935 13.4642 14.9955 13.8328 14.9955H14.9994V13.8289C14.9994 13.4603 15.2974 13.1623 15.6661 13.1623C16.0347 13.1623 16.3327 13.4603 16.3327 13.8289V14.9955H17.4993C17.8679 14.9955 18.1659 15.2935 18.1659 15.6622C18.1659 16.0308 17.8679 16.3288 17.4993 16.3288Z" fill="#4137FF"/>
</svg>
