<svg width="24" height="24" viewBox="0 0 24 24" fill="none" xmlns="http://www.w3.org/2000/svg">
<path d="M15.4991 20C14.9827 20 14.4706 19.9087 13.9698 19.7268C11.7637 18.9254 9.71597 17.6201 8.04791 15.9521C6.37986 14.284 5.0746 12.2363 4.27323 10.0302C4.0157 9.32122 3.93971 8.58937 4.04742 7.8549C4.14832 7.16693 4.41481 6.49905 4.81811 5.92345C5.22319 5.34532 5.76323 4.86446 6.37983 4.53288C7.03736 4.17931 7.75505 4 8.51302 4C8.74876 4 8.9525 4.16471 9.00191 4.3952L9.78669 8.05752C9.82222 8.22336 9.77125 8.39591 9.65135 8.51585L8.31037 9.85679C9.57538 12.3719 11.628 14.4245 14.1431 15.6896L15.4841 14.3486C15.604 14.2287 15.7766 14.1778 15.9424 14.2132L19.6047 14.998C19.8352 15.0474 19.9999 15.2512 19.9999 15.4869C19.9999 16.2449 19.8206 16.9626 19.467 17.6201C19.1354 18.2367 18.6546 18.7768 18.0764 19.1818C17.5009 19.5851 16.833 19.8516 16.145 19.9525C15.9294 19.9842 15.7139 20 15.4991 20ZM8.11354 5.02183C7.11373 5.1322 6.22633 5.65624 5.63704 6.4973C4.97438 7.44305 4.81986 8.60628 5.21309 9.6888C6.75378 13.9301 10.0699 17.2462 14.3112 18.7869C15.3937 19.1801 16.5569 19.0256 17.5027 18.3629C18.3437 17.7737 18.8678 16.8863 18.9782 15.8864L15.9989 15.248L14.5984 16.6485C14.4494 16.7975 14.223 16.8371 14.0323 16.7475C11.0577 15.35 8.64995 12.9423 7.25251 9.96769C7.16292 9.77698 7.20248 9.55055 7.35151 9.40156L8.75195 8.00112L8.11354 5.02183Z" fill="black"/>
<path d="M19.4999 12.4997C19.2238 12.4997 19 12.2758 19 11.9997C19 8.14002 15.8599 4.99996 12.0002 4.99996C11.7241 4.99996 11.5003 4.77609 11.5003 4.49998C11.5003 4.22387 11.7241 4 12.0002 4C14.1371 4 16.1459 4.83209 17.6569 6.34303C19.1678 7.85397 19.9999 9.86285 19.9999 11.9997C19.9999 12.2758 19.7761 12.4997 19.4999 12.4997Z" fill="black"/>
<path d="M17.5 12.4997C17.2239 12.4997 17 12.2759 17 11.9998C17 9.24287 14.7571 6.99996 12.0002 6.99996C11.7241 6.99996 11.5003 6.77609 11.5003 6.49998C11.5003 6.22387 11.7241 6 12.0002 6C15.3085 6 18 8.69149 18 11.9998C18 12.2759 17.7762 12.4997 17.5 12.4997Z" fill="black"/>
<path d="M15.5001 12.4998C15.224 12.4998 15.0001 12.276 15.0001 11.9998C15.0001 10.3457 13.6544 8.99996 12.0002 8.99996C11.7241 8.99996 11.5003 8.7761 11.5003 8.49998C11.5003 8.22387 11.7241 8 12.0002 8C14.2058 8 16.0001 9.79431 16.0001 11.9998C16.0001 12.276 15.7762 12.4998 15.5001 12.4998Z" fill="black"/>
</svg>
