<svg id="SvgjsSvg1032" width="288" height="288" xmlns="http://www.w3.org/2000/svg" version="1.1" xmlns:xlink="http://www.w3.org/1999/xlink" xmlns:svgjs="http://svgjs.com/svgjs"><defs id="SvgjsDefs1033"></defs><g id="SvgjsG1034"><svg xmlns="http://www.w3.org/2000/svg" width="288" height="288" fill="none" viewBox="0 0 52 52"><path fill="#ffffff" d="M25.3005 27.2367L20.8641 25.9058V24.1088C22.5036 22.8948 23.6129 21.0033 23.7703 18.8507C24.6268 18.5929 25.2524 17.7969 25.2524 16.8576C25.2524 16.2495 24.9791 15.6732 24.521 15.2815V11.0064C24.521 9.83439 23.9274 8.73808 22.9546 8.08111C22.6293 6.85913 21.5332 6 20.2459 6H14.3948C11.2309 6 8.65696 8.57392 8.65696 11.7378V15.2815C8.19884 15.6732 7.92557 16.2495 7.92557 16.8576C7.92557 17.7969 8.55123 18.5929 9.40763 18.8507C9.56512 21.0033 10.6743 22.8948 12.3139 24.1088V25.9058L7.00414 27.4987C5.8054 27.8583 5 28.9408 5 30.1924V37.3365C5 37.6779 5.27673 37.9546 5.61808 37.9546H5.73139V45.3818C5.73139 45.7232 6.00813 45.9999 6.34947 45.9999C6.69081 45.9999 6.96755 45.7232 6.96755 45.3818V37.9546H9.38835V45.3818C9.38835 45.7232 9.66508 45.9999 10.0064 45.9999C10.3478 45.9999 10.6245 45.7232 10.6245 45.3818V33.6796C10.6245 33.5836 10.6022 33.4889 10.5592 33.4032L9.09645 30.4776C8.94383 30.1723 8.57265 30.0485 8.26724 30.2012C7.96191 30.3538 7.83813 30.7251 7.99084 31.0304L9.38835 33.8255V36.7184H6.34947H6.23615V30.1924C6.23615 29.491 6.6876 28.8843 7.35941 28.6827L9.57896 28.0168C10.3335 31.223 13.2373 33.5662 16.589 33.5662C18.3123 33.5662 19.9798 32.9478 21.2843 31.825C22.4428 30.8278 23.251 29.4898 23.5976 28.0163L24.9452 28.4207C25.0044 28.4385 25.0642 28.4469 25.123 28.4469C25.3889 28.4469 25.6345 28.274 25.7148 28.0063C25.8129 27.6793 25.6274 27.3348 25.3005 27.2367ZM10.6245 18.3203C10.6245 17.979 10.3478 17.7023 10.0064 17.7023C9.54064 17.7023 9.16172 17.3233 9.16172 16.8576C9.16172 16.5577 9.32028 16.2865 9.58589 16.1319C9.59957 16.1239 9.61201 16.1145 9.62495 16.1056C9.74255 16.0458 9.873 16.0129 10.0064 16.0129H10.942C11.5238 16.0129 12.0383 15.642 12.2223 15.0901L12.6481 13.8127C14.1011 13.7807 18.6805 13.5773 21.2537 12.2906C21.559 12.138 21.6828 11.7667 21.5301 11.4614C21.3775 11.1561 21.0063 11.0323 20.7009 11.185C17.9409 12.565 12.2576 12.5825 12.2005 12.5825C11.9345 12.5826 11.6983 12.7528 11.6143 13.0051L11.0496 14.6992C11.0341 14.7455 10.991 14.7767 10.942 14.7767H10.0064C9.9686 14.7767 9.93086 14.7783 9.89311 14.7804V11.7378C9.89311 9.25562 11.9126 7.23615 14.3948 7.23615H20.2459C21.0212 7.23615 21.6727 7.7949 21.7949 8.56469C21.8245 8.75094 21.9375 8.91353 22.1017 9.00616C22.8314 9.41772 23.2847 10.1841 23.2847 11.0064V15.5977C23.2847 15.8177 23.4017 16.0212 23.5919 16.1319C23.8575 16.2865 24.0161 16.5577 24.0161 16.8576C24.0161 17.3233 23.6372 17.7023 23.1714 17.7023C22.83 17.7023 22.5533 17.979 22.5533 18.3203C22.5533 21.6092 19.8777 24.2848 16.5889 24.2848C13.3 24.2848 10.6245 21.6091 10.6245 18.3203ZM19.6278 24.8467V26.3657C19.6278 28.0413 18.2646 29.4045 16.589 29.4045C14.9159 29.4045 13.5546 28.0456 13.5502 26.3736C13.5502 26.3706 13.5501 26.3676 13.5501 26.3647V24.8467C14.474 25.2786 15.5035 25.5209 16.589 25.5209C17.6744 25.5209 18.7039 25.2787 19.6278 24.8467ZM20.4777 30.8882C19.3975 31.818 18.0164 32.3301 16.589 32.3301C13.787 32.3301 11.3641 30.3533 10.7667 27.6606L12.3915 27.1732C12.7701 29.1455 14.5078 30.6407 16.589 30.6407C18.6701 30.6407 20.4078 29.1455 20.7864 27.1731L22.4111 27.6606C22.1341 28.9092 21.457 30.0454 20.4777 30.8882Z" class="color1A1A1A svgShape"></path><path fill="#ffffff" d="M18.4411 20.0347C18.176 19.8196 17.7868 19.8603 17.5718 20.1254 17.3089 20.4496 16.9599 20.6281 16.589 20.6281 16.2182 20.6281 15.8692 20.4496 15.6063 20.1254 15.3914 19.8603 15.002 19.8197 14.7369 20.0347 14.4718 20.2497 14.4313 20.6389 14.6463 20.9041 15.1411 21.5141 15.8491 21.8641 16.5889 21.8641 17.3287 21.8641 18.0368 21.5141 18.5318 20.9041 18.7468 20.6389 18.7062 20.2497 18.4411 20.0347zM13.6629 16.2395C13.3216 16.2395 13.0449 16.5162 13.0449 16.8576V17.589C13.0449 17.9303 13.3216 18.207 13.6629 18.207 14.0043 18.207 14.281 17.9303 14.281 17.589V16.8576C14.281 16.5163 14.0043 16.2395 13.6629 16.2395zM19.5143 16.2395C19.173 16.2395 18.8962 16.5162 18.8962 16.8576V17.589C18.8962 17.9303 19.173 18.207 19.5143 18.207 19.8557 18.207 20.1324 17.9303 20.1324 17.589V16.8576C20.1324 16.5163 19.8557 16.2395 19.5143 16.2395zM38.1887 23.6915C37.9236 23.4764 37.5344 23.517 37.3194 23.7821 37.0565 24.1063 36.7075 24.2848 36.3366 24.2848 35.9658 24.2848 35.6168 24.1063 35.3539 23.7821 35.139 23.517 34.7496 23.4764 34.4845 23.6915 34.2194 23.9065 34.1789 24.2957 34.3939 24.5608 34.8888 25.171 35.5969 25.5209 36.3367 25.5209 37.0765 25.5209 37.7844 25.171 38.2794 24.5608 38.4944 24.2958 38.4538 23.9065 38.1887 23.6915zM33.4125 19.8965C33.0712 19.8965 32.7945 20.1732 32.7945 20.5146V21.246C32.7945 21.5873 33.0712 21.864 33.4125 21.864 33.7539 21.864 34.0306 21.5873 34.0306 21.246V20.5146C34.0306 20.1731 33.7539 19.8965 33.4125 19.8965zM39.2619 19.8965C38.9206 19.8965 38.6438 20.1732 38.6438 20.5146V21.246C38.6438 21.5873 38.9206 21.864 39.2619 21.864 39.6033 21.864 39.88 21.5873 39.88 21.246V20.5146C39.88 20.1733 39.6033 19.8965 39.2619 19.8965z" class="color1A1A1A svgShape"></path><path fill="#ffffff" d="M45.427 32.5541L40.4118 30.5479C40.3692 30.5309 40.3287 30.5105 40.2903 30.4875C43.6871 29.8035 45.2778 29.1606 45.3482 29.1318C45.6065 29.026 45.7618 28.7601 45.7272 28.4832C45.7199 28.425 45.0006 22.6121 45.0006 17.5889C45.0006 12.8119 41.1142 8.92554 36.3372 8.92554C31.5602 8.92554 27.6738 12.812 27.6738 17.5891C27.6738 22.6099 26.9545 28.4251 26.9472 28.4833C26.9126 28.7603 27.0679 29.0261 27.3262 29.132C27.3966 29.1608 28.9874 29.8036 32.3842 30.4877C32.3457 30.5107 32.3052 30.531 32.2626 30.5481L27.2475 32.5541C26.1736 32.9837 25.4797 34.0086 25.4797 35.1652V36.7186H23.7902V33.8256L25.1878 31.0305C25.3405 30.7252 25.2167 30.3539 24.9113 30.2013C24.606 30.0486 24.2348 30.1724 24.0821 30.4777L22.6194 33.4033C22.5764 33.4892 22.5541 33.5837 22.5541 33.6797V45.382C22.5541 45.7233 22.8308 46 23.1722 46C23.5135 46 23.7902 45.7233 23.7902 45.382V37.9547H25.4797V38.7998C25.4797 38.9638 25.5448 39.121 25.6608 39.237C25.7767 39.3528 25.9338 39.4178 26.0977 39.4178C26.0978 39.4178 26.0979 39.4178 26.0981 39.4178H26.211V45.382C26.211 45.7233 26.4878 46 26.8291 46C27.1705 46 27.4472 45.7233 27.4472 45.382V39.4175H29.1366V45.382C29.1366 45.7233 29.4133 46 29.7547 46C30.096 46 30.3728 45.7233 30.3728 45.382V37.3367C30.3728 36.9953 30.096 36.7186 29.7547 36.7186C29.4133 36.7186 29.1366 36.9953 29.1366 37.3367V38.1814H26.7158V35.1651C26.7158 34.5169 27.1047 33.9425 27.7065 33.7018L30.172 32.7156C31.0191 35.3868 33.5041 37.2233 36.3372 37.2233C39.1703 37.2233 41.6553 35.3867 42.5024 32.7156L44.9679 33.7018C45.5697 33.9425 45.9586 34.517 45.9586 35.1651V38.1814H43.5378V37.3367C43.5378 36.9953 43.2611 36.7186 42.9197 36.7186C42.5784 36.7186 42.3017 36.9953 42.3017 37.3367V45.382C42.3017 45.7233 42.5784 46 42.9197 46C43.2611 46 43.5378 45.7233 43.5378 45.382V39.4175H45.2272V45.382C45.2272 45.7233 45.504 46 45.8453 46C46.1866 46 46.4634 45.7233 46.4634 45.382V39.4175H46.5767C46.918 39.4175 47.1948 39.1408 47.1948 38.7994V35.1651C47.1948 34.0085 46.5009 32.9837 45.427 32.5541ZM28.9099 17.589C28.91 13.4935 32.2418 10.1618 36.3372 10.1618C40.4326 10.1618 43.7644 13.4936 43.7644 17.589C43.7644 21.8323 44.2691 26.6231 44.4428 28.1456C43.758 28.3782 42.2595 28.8367 39.8809 29.3087V28.2447C40.224 28.051 40.5522 27.8294 40.8607 27.58C42.1166 26.565 43.0039 25.1433 43.3593 23.5771C43.4777 23.0552 43.5378 22.517 43.5378 21.9774C43.5378 18.3773 40.9301 17.8596 38.4083 17.3589C36.7956 17.0387 35.1279 16.7076 33.7977 15.6435C33.6523 15.5271 33.4617 15.4829 33.2797 15.5227C33.0977 15.5625 32.9431 15.6825 32.8592 15.849C32.8557 15.8558 32.5094 16.5375 31.9237 17.2013C31.4277 17.7635 30.6487 18.4337 29.7546 18.4337C29.4503 18.4337 29.1613 18.4999 28.9006 18.6178C28.9066 18.2728 28.9099 17.9291 28.9099 17.589ZM36.3372 27.9419C34.9572 27.9419 33.6617 27.4843 32.5908 26.6186C31.55 25.7774 30.8148 24.6001 30.5205 23.3035C30.4225 22.8713 30.3728 22.425 30.3728 21.9774C30.3728 21.636 30.096 21.3593 29.7547 21.3593C29.2889 21.3593 28.91 20.9804 28.91 20.5146C28.91 20.0488 29.2889 19.6699 29.7547 19.6699C31.6289 19.6699 32.9884 17.9727 33.6023 17.0232C35.0437 17.9512 36.6923 18.2785 38.1676 18.5715C40.8841 19.1108 42.3017 19.5072 42.3017 21.9774C42.3017 22.4252 42.2519 22.8713 42.1539 23.3036C41.8597 24.6001 41.1244 25.7775 40.0837 26.6187C39.0127 27.4843 37.7173 27.9419 36.3372 27.9419ZM28.2317 28.1456C28.341 27.1865 28.5817 24.9307 28.7449 22.332C28.8744 22.4042 29.0115 22.4641 29.156 22.5077C29.1823 22.8685 29.2355 23.2264 29.3151 23.5771C29.6705 25.1433 30.5579 26.565 31.8137 27.58C32.1222 27.8294 32.4504 28.051 32.7936 28.2447V29.3087C30.4145 28.8366 28.916 28.3782 28.2317 28.1456ZM36.3372 35.9872C34.0149 35.9872 31.9812 34.4625 31.3229 32.2553L32.7216 31.6958C33.5162 31.378 34.0297 30.6196 34.0297 29.7638V28.7959C34.7689 29.0459 35.5487 29.1781 36.3372 29.1781C37.1257 29.1781 37.9055 29.0459 38.6447 28.7959V29.7638C38.6447 30.6196 39.1581 31.378 39.9527 31.6958L41.3515 32.2554C40.6933 34.4623 38.6596 35.9872 36.3372 35.9872Z" class="color1A1A1A svgShape"></path></svg></g></svg>