<svg width="24" height="24" viewBox="0 0 24 24" fill="none" xmlns="http://www.w3.org/2000/svg">
<path d="M16.9667 15.7375L16.8324 15.182C16.7706 14.9263 16.5134 14.7693 16.2576 14.831C16.002 14.8928 15.8448 15.1502 15.9068 15.4058L16.0411 15.9614C16.0692 16.0773 16.0017 16.1945 15.8876 16.2282C15.8806 16.2302 15.8735 16.2325 15.8664 16.2349L13.5548 17.0353C13.3634 17.1017 13.2349 17.2818 13.2345 17.4843L13.228 20.8216C13.228 20.9447 13.1279 21.0448 13.0042 21.0448L10.9946 21.0476C10.9082 21.0476 10.8537 21.0022 10.829 20.9753C10.8037 20.9477 10.7624 20.8886 10.7697 20.801C10.7708 20.7874 10.7713 20.7738 10.7713 20.7602L10.765 17.4843C10.7646 17.2818 10.6361 17.1017 10.4447 17.0353L8.10316 16.2245C7.99565 16.1874 7.9324 16.0723 7.95919 15.9614L9.71925 8.68049C9.73506 8.61576 9.77338 8.57614 9.80295 8.55382L11.2568 7.46806C11.3063 7.43104 11.3569 7.42323 11.3913 7.42323H11.3917L12.6082 7.42267C12.6741 7.42267 12.7217 7.44983 12.7498 7.47271C12.7546 7.47661 12.7596 7.48033 12.7645 7.48405L14.1979 8.55252C14.2446 8.58749 14.2756 8.63827 14.2853 8.69575C14.2872 8.70691 14.2894 8.71807 14.2922 8.72904L15.0113 11.703C15.0731 11.9586 15.3301 12.1158 15.5861 12.054C15.8417 11.9921 15.9989 11.7348 15.9371 11.4793L15.2213 8.51959C15.1674 8.22681 15.0069 7.96806 14.7673 7.78912L13.5859 6.90853C14.2671 6.41541 14.7113 5.61443 14.7113 4.71133C14.7113 3.21616 13.4949 2 12 2C10.505 2 9.28863 3.21616 9.28863 4.71133C9.28863 5.61462 9.73301 6.41559 10.4144 6.90871L9.23357 7.7906C9.01444 7.9543 8.85819 8.19072 8.79383 8.45672L7.03396 15.7371C6.8898 16.3296 7.21625 16.9263 7.79252 17.1248L9.81355 17.8247L9.81914 20.7442C9.79849 21.0653 9.91047 21.3832 10.1281 21.6198C10.3502 21.8614 10.6661 22 10.9955 22L13.0052 21.9972C13.6532 21.9972 14.1808 21.4699 14.1808 20.8225L14.1865 17.8246L16.1693 17.138C16.7632 16.9559 17.1133 16.3433 16.9667 15.7375ZM11.9998 2.9522C12.9696 2.9522 13.7587 3.74127 13.7587 4.71133C13.7587 5.68121 12.9696 6.47028 11.9998 6.47028C11.0299 6.47028 10.2408 5.68121 10.2408 4.71133C10.2408 3.74127 11.0299 2.9522 11.9998 2.9522Z" fill="#010465"/>
<path d="M15.8304 12.742C15.6409 12.8502 15.5311 13.2457 15.5852 13.625C15.6302 13.9385 15.7731 14.1429 15.9285 14.1429C15.9608 14.1429 15.9939 14.134 16.0267 14.1153C16.2164 14.0068 16.3261 13.6116 16.2719 13.2326V13.232C16.2176 12.853 16.02 12.6338 15.8304 12.742Z" fill="#ffffff"/>
</svg>
