<svg xmlns="http://www.w3.org/2000/svg" viewBox="0 0 340.16 246.05"><defs><style>.cls-1{fill:#fff;}</style></defs><g id="Layer_2" data-name="Layer 2"><g id="Layer_2-2" data-name="Layer 2"><path class="cls-1" d="M153.47,16.49,111.46.9a13.76,13.76,0,0,0-4.79-.9C99.15,0,93.42,7.05,93.42,17.85V81.07c0,13,8.3,24.74,18,26l3.69.49v35.54c0,7.69,4.12,12.77,9.51,12.77a9.62,9.62,0,0,0,3.22-.58l29.64-10.45c5.42-1.91,9.71-9.73,9.71-17.45V94.66h0V41.48C167.23,30.54,161.16,19.34,153.47,16.49Zm1.3,92.62a5.59,5.59,0,0,1-.81,0l-35.12-4.68V98.53c0-7.89,5-14,9.46-14.48l29.64-3.4.37,0c2.89,0,5.23,4.16,5.23,9.28v4.75C163.54,102.76,159.69,109.11,154.77,109.11Zm8.77,18.32c0,6.73-3.82,12.77-7.24,14l-29.64,10.45a5.86,5.86,0,0,1-2,.37c-3.43,0-5.82-3.74-5.82-9.08v-35l34.63,4.61a9.69,9.69,0,0,0,1.3.09c3.48,0,6.55-1.91,8.77-5.07Zm0-48.11A7.23,7.23,0,0,0,158.31,77a7.09,7.09,0,0,0-.79,0l-29.64,3.4c-6.88.79-12.73,9-12.73,18.14v5.36l-3.2-.43c-7.91-1-14.85-11.52-14.85-22.39V17.85c0-8.34,3.94-14.16,9.57-14.16a10,10,0,0,1,3.51.67l42,15.59c6.15,2.28,11.35,12.14,11.35,21.53Z"/><path class="cls-1" d="M236.27,0a13.44,13.44,0,0,0-4.72.9L190.17,16.49c-7.56,2.85-13.54,14.05-13.54,25v86c0,7.72,4.21,15.54,9.55,17.45l29.2,10.45a9.39,9.39,0,0,0,3.17.58c5.31,0,9.37-5.08,9.37-12.77V107.6l3.63-.49c9.6-1.3,17.77-13,17.77-26V17.85C249.32,7.05,243.68,0,236.27,0Zm-12,104.38-34.55,4.68a5.32,5.32,0,0,1-.79,0c-4.81,0-8.58-6.35-8.58-14.45V89.91h0c0-4.48,2.05-9.28,5.09-9.28l.36,0L215,84.05c4.39.51,9.28,6.59,9.28,14.48Zm0,38.76c0,5.34-2.33,9.08-5.68,9.08a5.75,5.75,0,0,1-1.93-.36l-29.2-10.45c-3.36-1.2-7.11-7.24-7.11-14V107.81c2.19,3.11,5.19,5,8.58,5a9.29,9.29,0,0,0,1.28-.09l34.06-4.61Zm21.41-62.07c0,10.87-6.81,21.34-14.58,22.39l-3.14.43V98.53c0-9.17-5.77-17.35-12.54-18.14L186.18,77a6.79,6.79,0,0,0-.78,0,7.07,7.07,0,0,0-5.09,2.31V41.48c0-9.4,5.11-19.26,11.16-21.54L232.85,4.35a9.81,9.81,0,0,1,3.42-.66c5.52,0,9.37,5.82,9.37,14.16Z"/><path class="cls-1" d="M60,230.57a21.2,21.2,0,0,1-2.39.45,23.54,23.54,0,0,1-3.29.21q-3.7,0-5.31-1.2t-1.61-4.65V205a5,5,0,0,0-1.48-4,6,6,0,0,0-4-1.28,8.32,8.32,0,0,0-3.09.58,10.45,10.45,0,0,0-2.59,1.48c.05.28.09.55.12.82a7.69,7.69,0,0,1,0,.83v27.18a21.2,21.2,0,0,1-2.39.45,23.44,23.44,0,0,1-3.29.21q-3.7,0-5.31-1.2t-1.61-4.65V205a4.73,4.73,0,0,0-1.65-4,6.37,6.37,0,0,0-4-1.28,8.6,8.6,0,0,0-3.13.54,19.78,19.78,0,0,0-2.31,1v29.32a17.61,17.61,0,0,1-2.3.45,23.69,23.69,0,0,1-3.3.21q-3.7,0-5.35-1.2T0,225.38V199.93a6,6,0,0,1,.91-3.46A9.89,9.89,0,0,1,3.46,194,22.77,22.77,0,0,1,10.17,191a30,30,0,0,1,8.36-1.15,21.94,21.94,0,0,1,6.55.95,17.42,17.42,0,0,1,5.64,2.92,25.4,25.4,0,0,1,5.6-2.76,22.25,22.25,0,0,1,7.42-1.11,23.67,23.67,0,0,1,6.13.78A13.91,13.91,0,0,1,55,193.13a12.91,12.91,0,0,1,3.58,4.62A15.73,15.73,0,0,1,60,204.62Z"/><path class="cls-1" d="M85.25,189.8a32.8,32.8,0,0,1,7.78.86,16.86,16.86,0,0,1,6,2.68,12.35,12.35,0,0,1,3.83,4.61,14.91,14.91,0,0,1,1.36,6.59v18.62a5,5,0,0,1-1.11,3.41,10.48,10.48,0,0,1-2.68,2.19,20.5,20.5,0,0,1-6.26,2.39,39.47,39.47,0,0,1-8.4.82q-8.49,0-13.51-3.25t-5-9.93q0-5.68,3.38-8.65T81,206.44l11-1.16v-.9a4.16,4.16,0,0,0-2.14-3.87,12.48,12.48,0,0,0-6.18-1.24,25.79,25.79,0,0,0-6.14.74,38.45,38.45,0,0,0-5.39,1.73,5.23,5.23,0,0,1-1.69-2,6.23,6.23,0,0,1-.7-2.92q0-3.63,3.79-5.19A26.16,26.16,0,0,1,79,190.25,44.12,44.12,0,0,1,85.25,189.8Zm.49,32.86a17.2,17.2,0,0,0,3.58-.37,8.19,8.19,0,0,0,2.68-.95v-7.57l-6.75.57a10.4,10.4,0,0,0-4.25,1.2,3.09,3.09,0,0,0-1.6,2.84,3.75,3.75,0,0,0,1.48,3.13Q82.37,222.67,85.74,222.66Z"/><path class="cls-1" d="M125.93,230.57a17.28,17.28,0,0,1-2.3.45,23.69,23.69,0,0,1-3.3.21q-3.7,0-5.35-1.2t-1.65-4.65V200.26a6.74,6.74,0,0,1,1.15-3.95,10.35,10.35,0,0,1,3.22-2.89,23.26,23.26,0,0,1,6.55-2.59,33.33,33.33,0,0,1,8-1q8.57,0,8.56,5.77a7.66,7.66,0,0,1-.41,2.55,11.51,11.51,0,0,1-.91,2,21.63,21.63,0,0,0-4.61-.42,20.62,20.62,0,0,0-4.78.58,17.4,17.4,0,0,0-4.2,1.57Z"/><path class="cls-1" d="M146.36,179.67a6.55,6.55,0,0,1,1.94-4.78,7.47,7.47,0,0,1,10.13,0,6.58,6.58,0,0,1,1.93,4.78,6.68,6.68,0,0,1-1.93,4.86,7.5,7.5,0,0,1-10.13,0A6.65,6.65,0,0,1,146.36,179.67Zm13.26,50.9a17.48,17.48,0,0,1-2.31.45,23.44,23.44,0,0,1-3.29.21q-3.71,0-5.31-1.2t-1.61-4.65V191.53a19.65,19.65,0,0,1,2.31-.5,20.65,20.65,0,0,1,3.29-.24q3.7,0,5.31,1.23c1.08.83,1.61,2.39,1.61,4.7Z"/><path class="cls-1" d="M189.11,231.89a20.35,20.35,0,0,1-4-.37,21,21,0,0,1-3.29-1v14.74a19.65,19.65,0,0,1-2.31.5,20.74,20.74,0,0,1-3.29.24q-3.7,0-5.36-1.23c-1.1-.83-1.64-2.39-1.64-4.7V199.35a6.23,6.23,0,0,1,.9-3.5,8.94,8.94,0,0,1,2.56-2.43,23,23,0,0,1,6.34-2.59,33.09,33.09,0,0,1,8.56-1A30.81,30.81,0,0,1,196.4,191a18,18,0,0,1,6.87,3.75,17.12,17.12,0,0,1,4.49,6.51,24.86,24.86,0,0,1,1.61,9.39,25.53,25.53,0,0,1-1.53,9.18,18.35,18.35,0,0,1-4.24,6.67,17.7,17.7,0,0,1-6.42,4A23.4,23.4,0,0,1,189.11,231.89Zm-1.9-10a8.6,8.6,0,0,0,6.88-2.8c1.62-1.87,2.43-4.69,2.43-8.48s-.78-6.7-2.35-8.4a8.42,8.42,0,0,0-6.55-2.56,10.77,10.77,0,0,0-3.29.45,19.05,19.05,0,0,0-2.55,1v19.36a10.48,10.48,0,0,0,5.43,1.4Z"/><path class="cls-1" d="M257.14,210.8a24.52,24.52,0,0,1-1.49,8.77,18.08,18.08,0,0,1-4.24,6.63,18.77,18.77,0,0,1-6.63,4.2,24,24,0,0,1-8.64,1.49,25,25,0,0,1-8.69-1.44,17.84,17.84,0,0,1-10.92-10.79,24.83,24.83,0,0,1-1.48-8.86,23.91,23.91,0,0,1,1.52-8.69,18.3,18.3,0,0,1,11-10.83,24,24,0,0,1,8.61-1.48,23.74,23.74,0,0,1,8.56,1.48,18.72,18.72,0,0,1,6.63,4.24,19.1,19.1,0,0,1,4.28,6.63A23.41,23.41,0,0,1,257.14,210.8Zm-21-11.12a7.06,7.06,0,0,0-6,2.88c-1.43,1.93-2.14,4.67-2.14,8.24s.7,6.47,2.1,8.36a7.84,7.84,0,0,0,12.11,0q2.1-2.88,2.1-8.32c0-3.51-.72-6.24-2.14-8.19A7,7,0,0,0,236.14,199.68Z"/><path class="cls-1" d="M297.08,219a11.24,11.24,0,0,1-4.53,9.51Q288,232,279.21,232a37.84,37.84,0,0,1-6.3-.49A18.63,18.63,0,0,1,268,230a8.65,8.65,0,0,1-3.21-2.47,5.47,5.47,0,0,1-1.16-3.46,6.12,6.12,0,0,1,.74-3.09,6.73,6.73,0,0,1,1.9-2.1,30.32,30.32,0,0,0,5.43,2.47,21.26,21.26,0,0,0,7.09,1.08q5.85,0,5.85-3.3a2.49,2.49,0,0,0-1-2.14,10.42,10.42,0,0,0-3.5-1.32l-3.3-.74q-6.75-1.39-10.05-4.32a10.42,10.42,0,0,1-3.29-8.2,10.86,10.86,0,0,1,4.73-9.27q4.74-3.4,12.73-3.41a33.26,33.26,0,0,1,5.6.45,16.94,16.94,0,0,1,4.53,1.36,8.73,8.73,0,0,1,3,2.26,4.88,4.88,0,0,1,1.11,3.17,6.18,6.18,0,0,1-2.39,5,11.3,11.3,0,0,0-1.94-.91,28.63,28.63,0,0,0-2.75-.9,24.52,24.52,0,0,0-3.14-.66,19.83,19.83,0,0,0-3-.25,10.46,10.46,0,0,0-4.49.78,2.53,2.53,0,0,0-1.61,2.35,2.1,2.1,0,0,0,.91,1.81,10.1,10.1,0,0,0,3.29,1.24l3.13.74q7.5,1.65,10.71,4.78A10.76,10.76,0,0,1,297.08,219Z"/><path class="cls-1" d="M321.21,189.8a32.89,32.89,0,0,1,7.79.86,16.86,16.86,0,0,1,6,2.68A12.35,12.35,0,0,1,338.8,198a15.05,15.05,0,0,1,1.36,6.59v18.62a5,5,0,0,1-1.12,3.41,10.43,10.43,0,0,1-2.67,2.19,20.5,20.5,0,0,1-6.26,2.39,39.47,39.47,0,0,1-8.4.82q-8.49,0-13.51-3.25t-5-9.93q0-5.68,3.37-8.65t10.38-3.7l11-1.16v-.9a4.15,4.15,0,0,0-2.15-3.87,12.43,12.43,0,0,0-6.17-1.24,25.73,25.73,0,0,0-6.14.74,38.45,38.45,0,0,0-5.39,1.73,5.15,5.15,0,0,1-1.69-2,6.23,6.23,0,0,1-.7-2.92q0-3.63,3.79-5.19a26.21,26.21,0,0,1,5.55-1.36A44.33,44.33,0,0,1,321.21,189.8Zm.5,32.86a17.27,17.27,0,0,0,3.58-.37,8.28,8.28,0,0,0,2.68-.95v-7.57l-6.76.57a10.35,10.35,0,0,0-4.24,1.2,3.09,3.09,0,0,0-1.6,2.84,3.75,3.75,0,0,0,1.48,3.13Q318.33,222.67,321.71,222.66Z"/></g></g></svg>