<svg width="24" height="24" viewBox="0 0 24 24" fill="none" xmlns="http://www.w3.org/2000/svg">
<path d="M11.9094 4.78613C8.28747 4.78613 5.34091 7.7327 5.34091 11.3546V18.3309H6.6999V11.3546C6.6999 8.48219 9.03669 6.14512 11.9094 6.14512C14.7822 6.14512 17.119 8.48215 17.119 11.3546V18.3309H18.478V11.3546C18.4779 7.7327 15.5314 4.78613 11.9094 4.78613Z" fill="black"/>
<path d="M19.248 17.6514H4.75197C4.37666 17.6514 4.07248 17.9555 4.07248 18.3309C4.07248 18.7062 4.37666 19.0104 4.75197 19.0104H19.248C19.6233 19.0104 19.9275 18.7062 19.9275 18.3309C19.9275 17.9555 19.6233 17.6514 19.248 17.6514Z" fill="black"/>
<path d="M11.9095 2C10.7604 2 9.82568 2.93477 9.82568 4.08379C9.82568 5.23281 10.7604 6.16758 11.9095 6.16758C13.0585 6.16758 13.9933 5.23281 13.9933 4.08379C13.9933 2.93477 13.0585 2 11.9095 2ZM11.9095 4.80859C11.5165 4.80859 11.1847 4.47656 11.1847 4.08379C11.1847 3.69082 11.5165 3.35898 11.9095 3.35898C12.3024 3.35898 12.6343 3.69082 12.6343 4.08379C12.6343 4.47676 12.3024 4.80859 11.9095 4.80859Z" fill="black"/>
<path d="M13.0872 18.3308V19.5086C13.0872 20.1331 12.5791 20.6411 11.9547 20.6411C11.3302 20.6411 10.8222 20.1331 10.8222 19.5086V18.3308H9.46317V19.5086C9.46317 20.8824 10.5809 22.0002 11.9547 22.0002C13.3284 22.0002 14.4462 20.8824 14.4462 19.5086V18.3308H13.0872Z" fill="black"/>
</svg>
