<svg width="24" height="24" viewBox="0 0 24 24" fill="none" xmlns="http://www.w3.org/2000/svg">
<path d="M17.625 5.875H14.8125V5.40625C14.8125 4.63084 14.1817 4 13.4062 4H10.5938C9.81834 4 9.1875 4.63084 9.1875 5.40625V5.875H6.375C5.59959 5.875 4.96875 6.50584 4.96875 7.28125V8.21875C4.96875 8.47762 5.17862 8.6875 5.4375 8.6875H5.94322L6.76781 18.717C6.76791 18.7184 6.76803 18.7197 6.76816 18.7211C6.83447 19.4502 7.43656 20 8.16862 20H15.8313C16.5634 20 17.1655 19.4502 17.2318 18.7211C17.2319 18.7197 17.2321 18.7184 17.2322 18.717L18.0568 8.6875H18.5625C18.8214 8.6875 19.0312 8.47762 19.0312 8.21875V7.28125C19.0312 6.50584 18.4004 5.875 17.625 5.875ZM10.125 5.40625C10.125 5.14778 10.3353 4.9375 10.5938 4.9375H13.4062C13.6647 4.9375 13.875 5.14778 13.875 5.40625V5.875H10.125V5.40625ZM16.298 18.6377C16.2752 18.88 16.0748 19.0625 15.8313 19.0625H8.16862C7.92512 19.0625 7.72475 18.88 7.70194 18.6377L6.88387 8.6875H17.1161L16.298 18.6377ZM18.0938 7.75H17.625H6.375H5.90625V7.28125C5.90625 7.02278 6.11653 6.8125 6.375 6.8125H9.65625H14.3438H17.625C17.8835 6.8125 18.0938 7.02278 18.0938 7.28125V7.75Z" fill="black"/>
<path d="M12 9.625C11.7411 9.625 11.5312 9.83487 11.5312 10.0938V16.7188C11.5312 16.9776 11.7411 17.1875 12 17.1875C12.2589 17.1875 12.4688 16.9776 12.4688 16.7188V10.0938C12.4688 9.83487 12.2589 9.625 12 9.625Z" fill="black"/>
<path d="M14.8125 9.625C14.5536 9.625 14.3438 9.83487 14.3438 10.0938V16.7188C14.3438 16.9776 14.5536 17.1875 14.8125 17.1875C15.0714 17.1875 15.2812 16.9776 15.2812 16.7188V10.0938C15.2812 9.83487 15.0714 9.625 14.8125 9.625Z" fill="black"/>
<path d="M9.1875 9.625C8.92862 9.625 8.71875 9.83487 8.71875 10.0938V16.7188C8.71875 16.9776 8.92862 17.1875 9.1875 17.1875C9.44638 17.1875 9.65625 16.9776 9.65625 16.7188V10.0938C9.65625 9.83487 9.44638 9.625 9.1875 9.625Z" fill="black"/>
</svg>
