<svg xmlns="http://www.w3.org/2000/svg" width="52" height="52" fill="none"><rect id="backgroundrect" width="100%" height="100%" x="0" y="0" fill="none" stroke="none"/>




<g class="currentLayer" style=""><title>Layer 1</title><path d="M22.5593 21.9308C22.9907 21.9308 23.3405 21.581 23.3405 21.1496V20.2429C23.3405 19.8114 22.9907 19.4617 22.5593 19.4617C22.1279 19.4617 21.778 19.8114 21.778 20.2429V21.1496C21.778 21.581 22.1279 21.9308 22.5593 21.9308Z" fill="#1A1A1A" id="svg_1"/><path d="M29.6823 21.9308C30.1137 21.9308 30.4635 21.581 30.4635 21.1496V20.2429C30.4635 19.8114 30.1137 19.4617 29.6823 19.4617C29.2508 19.4617 28.901 19.8114 28.901 20.2429V21.1496C28.901 21.581 29.2508 21.9308 29.6823 21.9308Z" fill="#1A1A1A" id="svg_2"/><path d="M35.0212 34.433H29.1026V32.0205C33.0914 31.935 36.0764 29.0794 36.0764 25.3111L36.0691 24.0891C36.9059 24.0591 37.6985 23.6895 38.2583 23.0646C38.8387 22.4166 39.1166 21.5466 39.0206 20.6776C38.9563 20.0943 38.7184 19.5369 38.3433 19.0802V12.9141C38.3433 11.1359 36.9308 9.68078 35.1666 9.60734C35.1211 9.59914 35.0743 9.59484 35.0265 9.59484H34.8061C33.3552 7.36758 30.8505 6 28.1739 6H24.0749C21.3971 6 18.8938 7.36719 17.4429 9.59484H17.2151C17.1673 9.59484 17.1205 9.59914 17.075 9.60734C15.3109 9.68078 13.8984 11.1359 13.8984 12.9141V19.0802C13.5229 19.537 13.2852 20.0941 13.2209 20.6784C13.1252 21.5473 13.4033 22.4171 13.9838 23.0649C14.5434 23.6896 15.3359 24.0591 16.1725 24.0891L16.1652 25.3111C16.1652 28.9965 19.0203 31.8089 22.8772 32.0109V34.433H17.2205C13.7905 34.433 11 37.2166 11 40.6382V45.2188C11 45.6502 11.3498 46 11.7813 46H22.3953C22.8267 46 23.1766 45.6502 23.1766 45.2188C23.1766 44.7873 22.8267 44.4375 22.3953 44.4375H12.5624V40.6381C12.5624 38.0781 14.652 35.9955 17.2204 35.9955H21.2968C21.6403 38.3386 23.6727 40.1437 26.1208 40.1437C28.5688 40.1437 30.6012 38.3386 30.9448 35.9955H35.0212C37.5896 35.9955 39.6791 38.0782 39.6791 40.6381V44.4375H29.8463C29.4149 44.4375 29.0651 44.7873 29.0651 45.2188C29.0651 45.6502 29.4149 46 29.8463 46H40.4604C40.8918 46 41.2416 45.6502 41.2416 45.2188V40.6381C41.2416 37.2166 38.4511 34.433 35.0212 34.433ZM36.7807 12.9141V18.7543H36.0109C34.8231 18.7543 33.8569 17.7917 33.8569 16.6086V13.9202C33.8569 13.4887 33.507 13.139 33.0756 13.139H32.9019C32.3528 13.139 31.906 12.6945 31.906 12.1481C31.906 11.6017 32.3528 11.1573 32.9019 11.1573H34.9035C34.9436 11.1636 34.9846 11.1669 35.0264 11.1669C35.9937 11.167 36.7807 11.9507 36.7807 12.9141ZM15.4609 12.9141C15.4609 11.9507 16.2478 11.167 17.2152 11.167C17.257 11.167 17.298 11.1637 17.338 11.1573H19.3397C19.8888 11.1573 20.3355 11.6018 20.3355 12.1482C20.3355 12.6946 19.8888 13.1391 19.3397 13.1391H19.1659C18.7345 13.1391 18.3847 13.4888 18.3847 13.9203V16.6087C18.3847 17.7918 17.4184 18.7544 16.2307 18.7544H15.4609V12.9141ZM15.1474 22.0223C14.8588 21.7002 14.7262 21.2836 14.7741 20.8493C14.7945 20.6633 14.8519 20.4824 14.9411 20.3168H16.2308C18.28 20.3168 19.9473 18.6534 19.9473 16.6086V14.6287C21.0657 14.3559 21.8981 13.3473 21.8981 12.1482C21.8981 10.7662 20.7922 9.63711 19.4173 9.59609C20.6049 8.31781 22.2917 7.5625 24.0749 7.5625H28.1739C29.9562 7.5625 31.6434 8.31789 32.8313 9.59586C31.4531 9.63328 30.3435 10.7638 30.3435 12.1482C30.3435 13.3473 31.1759 14.3559 32.2944 14.6287V16.6086C32.2944 18.6533 33.9616 20.3168 36.0109 20.3168H37.3005C37.3897 20.4824 37.447 20.6632 37.4675 20.8489C37.5154 21.2832 37.3829 21.6998 37.0944 22.022C36.8061 22.3439 36.3921 22.5284 35.9586 22.5284C35.807 22.5284 35.6575 22.5065 35.5142 22.4631C35.2774 22.3913 35.0209 22.4361 34.8223 22.5835C34.6237 22.7309 34.5066 22.9636 34.5066 23.2109V23.6641H31.4059C30.2485 22.8621 28.8507 22.423 27.4398 22.423H25.0636C23.6529 22.423 22.2551 22.8621 21.0975 23.6641H17.7349V23.2109C17.7349 22.9636 17.6178 22.7309 17.4192 22.5836C17.2207 22.4363 16.9641 22.3916 16.7273 22.4632C16.5841 22.5066 16.4347 22.5285 16.283 22.5285C15.8495 22.5285 15.4356 22.344 15.1474 22.0223ZM17.7277 25.3111V25.2267H21.3499C21.5195 25.2267 21.6844 25.1716 21.8198 25.0696C22.7483 24.3706 23.9002 23.9856 25.0636 23.9856H27.4398C28.6033 23.9856 29.7552 24.3705 30.6835 25.0696C30.819 25.1716 30.984 25.2267 31.1535 25.2267H34.514V25.3111C34.514 28.2464 32.1084 30.46 28.9184 30.46H23.3234C20.1333 30.4599 17.7277 28.2464 17.7277 25.3111ZM26.1208 38.5812C24.5373 38.5812 23.2098 37.4723 22.8845 35.9955H23.6584C24.0898 35.9955 24.4396 35.6457 24.4396 35.2142V32.0225H27.5401V35.2142C27.5401 35.6457 27.8899 35.9955 28.3213 35.9955H29.3571C29.0317 37.4723 27.7042 38.5812 26.1208 38.5812Z" fill="#ffffff" id="svg_3" class="selected" fill-opacity="1"/><path d="M26.8575 44.9202C26.7316 44.6129 26.4112 44.416 26.0803 44.44C25.7556 44.4634 25.4749 44.6918 25.3853 45.0044C25.2956 45.3169 25.4152 45.6647 25.6808 45.8535C25.9447 46.041 26.2995 46.0463 26.5692 45.8679C26.8758 45.6651 26.9988 45.2593 26.8575 44.9202Z" fill="#1A1A1A" id="svg_4"/></g></svg>