<svg width="800" height="600" xmlns="http://www.w3.org/2000/svg">
 <!-- Created with Method Draw - http://github.com/duopixel/Method-Draw/ -->

 <g>
  <title>background</title>
  <rect fill="#fff" id="canvas_background" height="602" width="802" y="-1" x="-1"/>
  <g display="none" overflow="visible" y="0" x="0" height="100%" width="100%" id="canvasGrid">
   <rect fill="url(#gridpattern)" stroke-width="0" y="0" x="0" height="100%" width="100%"/>
  </g>
 </g>
 <g>
  <title>Layer 1</title>
  <g id="svg_8">
   <path id="svg_4" fill="#ffffff" d="m347.31508,239.80474c6.38166,0 11.55621,-5.17456 11.55621,-11.55621l0,-13.41272c0,-6.38314 -5.17456,-11.55621 -11.55621,-11.55621c-6.38166,0 -11.55769,5.17308 -11.55769,11.55621l0,13.41272c0,6.38166 5.17604,11.55621 11.55769,11.55621z"/>
   <path id="svg_5" fill="#ffffff" d="m452.68489,239.80474c6.38166,0 11.55621,-5.17456 11.55621,-11.55621l0,-13.41272c0,-6.38314 -5.17456,-11.55621 -11.55621,-11.55621c-6.38314,0 -11.55769,5.17308 -11.55769,11.55621l0,13.41272c0,6.38166 5.17456,11.55621 11.55769,11.55621z"/>
   <path id="svg_6" fill="#ffffff" d="m531.6627,424.74851l-87.55325,0l0,-35.68787c59.00591,-1.26479 103.16272,-43.50739 103.16272,-99.25147l-0.10799,-18.07692c12.3787,-0.44379 24.10355,-5.91124 32.38461,-15.15532c8.5858,-9.5858 12.69674,-22.45562 11.27663,-35.31065c-0.95118,-8.6287 -4.47041,-16.87426 -10.01923,-23.63018l0,-91.21449c0,-26.30473 -20.89497,-47.83017 -46.9926,-48.91657c-0.67308,-0.1213 -1.36538,-0.18491 -2.07249,-0.18491l-3.26035,0c-21.46302,-32.94763 -58.51479,-53.1781 -98.10946,-53.1781l-60.63609,0c-39.61242,0 -76.64349,20.2247 -98.1065,53.1781l-3.36982,0c-0.7071,0 -1.39941,0.06361 -2.07249,0.18491c-26.09615,1.08639 -46.99112,22.61183 -46.99112,48.91657l0,91.21449c-5.55473,6.7574 -9.07101,14.99852 -10.02219,23.64201c-1.41568,12.85355 2.69822,25.72041 11.2855,35.30325c8.27811,9.24112 20.00148,14.7071 32.37722,15.15089l-0.10799,18.07692c0,54.51775 42.2352,96.1213 99.28994,99.10946l0,35.82988l-83.67899,0c-50.73964,0 -92.01923,41.17751 -92.01923,91.79289l0,67.76035c0,6.38166 5.17456,11.55621 11.55769,11.55621l157.01183,0c6.38166,0 11.55769,-5.17456 11.55769,-11.55621c0,-6.38314 -5.17604,-11.55769 -11.55769,-11.55769l-145.45709,0l0,-56.20414c0,-37.86982 30.91124,-68.67751 68.90532,-68.67751l60.30177,0c5.08136,34.66124 35.14645,61.3639 71.36094,61.3639c36.21302,0 66.2781,-26.70266 71.36094,-61.3639l60.30177,0c37.99408,0 68.90384,30.80917 68.90384,68.67751l0,56.20414l-145.45561,0c-6.38166,0 -11.55621,5.17456 -11.55621,11.55769c0,6.38166 5.17456,11.55621 11.55621,11.55621l157.0133,0c6.38166,0 11.55621,-5.17456 11.55621,-11.55621l0,-67.76183c0,-50.6139 -41.27958,-91.79141 -92.01775,-91.79141zm26.02811,-318.3269l0,86.39349l-11.38757,0c-17.571,0 -31.8639,-14.23964 -31.8639,-31.74112l0,-39.76923c0,-6.38314 -5.17604,-11.55621 -11.55769,-11.55621l-2.56953,0c-8.12278,0 -14.73225,-6.57544 -14.73225,-14.65828c0,-8.08284 6.60947,-14.6568 14.73225,-14.6568l29.60947,0c0.5932,0.0932 1.1997,0.14201 1.81805,0.14201c14.30917,0.00148 25.95118,11.59467 25.95118,25.84615zm-315.38164,0c0,-14.25148 11.64053,-25.84467 25.95118,-25.84467c0.61834,0 1.22485,-0.04882 1.81657,-0.14349l29.61095,0c8.12278,0 14.73077,6.57544 14.73077,14.65828c0,8.08284 -6.60799,14.65828 -14.73077,14.65828l-2.57101,0c-6.38166,0 -11.55621,5.17308 -11.55621,11.55621l0,39.76923c0,17.50148 -14.29438,31.74112 -31.8639,31.74112l-11.38757,0l0,-86.39497zm-4.63757,134.73668c-4.26923,-4.76479 -6.23077,-10.92751 -5.52219,-17.35207c0.30178,-2.75148 1.15089,-5.42751 2.47041,-7.87722l19.0784,0c30.31361,0 54.97781,-24.60651 54.97781,-54.85503l0,-29.28846c16.54438,-4.0355 28.85799,-18.95562 28.85799,-36.69378c0,-20.44379 -16.35947,-37.1463 -36.69822,-37.7531c17.56805,-18.90947 42.52071,-30.08269 68.8994,-30.08269l60.63609,0c26.36538,0 51.32396,11.17441 68.89645,30.07929c-20.38757,0.55355 -36.80177,17.27722 -36.80177,37.75651c0,17.73816 12.31361,32.65828 28.85947,36.69378l0,29.28846c0,30.24704 24.66272,54.85503 54.97781,54.85503l19.07692,0c1.31953,2.4497 2.16716,5.12426 2.47041,7.8713c0.70858,6.42456 -1.25148,12.58728 -5.51923,17.35355c-4.26479,4.76183 -10.38905,7.49112 -16.80177,7.49112c-2.2426,0 -4.45414,-0.32396 -6.57396,-0.96598c-3.50296,-1.06213 -7.29734,-0.39941 -10.23521,1.78106c-2.93787,2.18047 -4.67012,5.62278 -4.67012,9.28106l0,6.70414l-45.86834,0c-17.1213,-11.8639 -37.79881,-18.35947 -58.67011,-18.35947l-35.15089,0c-20.86834,0 -41.54586,6.49556 -58.67011,18.35947l-49.7426,0l0,-6.70414c0,-3.65828 -1.73225,-7.10059 -4.67012,-9.27959c-2.93639,-2.17899 -6.73225,-2.84024 -10.23521,-1.78106c-2.11834,0.64201 -4.3284,0.96598 -6.57248,0.96598c-6.41272,0 -12.5355,-2.72929 -16.79882,-7.48817zm38.17012,48.65088l0,-1.24852l53.58284,0c2.50888,0 4.94822,-0.81509 6.95118,-2.32396c13.73521,-10.34024 30.77515,-16.0355 47.9852,-16.0355l35.15089,0c17.21154,0 34.25148,5.69379 47.98373,16.0355c2.00444,1.50888 4.44527,2.32396 6.95266,2.32396l49.71154,0l0,1.24852c0,43.4216 -35.5858,76.16716 -82.77514,76.16716l-82.76627,0c-47.19083,-0.00148 -82.77662,-32.74556 -82.77662,-76.16716zm124.15828,196.30324c-23.42455,0 -43.06213,-16.40385 -47.87426,-38.25l11.44822,0c6.38166,0 11.55621,-5.17456 11.55621,-11.55769l0,-47.21449l45.86538,0l0,47.21449c0,6.38314 5.17456,11.55769 11.55621,11.55769l15.32248,0c-4.81361,21.84615 -24.45118,38.25 -47.87426,38.25z"/>
   <path id="svg_7" fill="#ffffff" d="m410.89791,579.8846c-1.86243,-4.54586 -6.60207,-7.45858 -11.49704,-7.10355c-4.80325,0.34615 -8.95562,3.72485 -10.28106,8.34911c-1.32692,4.62278 0.44231,9.76775 4.3713,12.56065c3.90385,2.77367 9.15237,2.85207 13.14201,0.21302c4.5355,-3 6.35503,-9.00296 4.26479,-14.01923z"/>
  </g>
 </g>
</svg>